<svg xmlns="http://www.w3.org/2000/svg" width="512" height="512" viewBox="0 0 512 512" role="img" aria-label="RoboMaster Mosasaurus lab icon">
  <rect width="512" height="512" rx="96" fill="#0B0F14" />
  <g fill="#FEFEFE" transform="matrix(0.58241328 0 0 0.58241328 12.47650696 56.48306503)">
    <path d="M388.887817,244.464020   C391.110504,242.081848 393.333191,239.699692 396.187683,237.153717   C397.566132,236.044617 398.312744,235.099304 399.059387,234.153992   C402.691284,229.972610 406.323212,225.791229 410.374817,221.822403   C413.844879,227.847580 416.499542,223.421432 419.905029,221.864258   C418.009766,219.553909 416.448273,217.650452 414.886780,215.746979   C420.279755,207.375580 425.672729,199.004196 431.577240,190.253693   C432.725952,189.584091 433.363159,189.293625 434.244873,189.233612   C436.369843,189.906967 438.250244,190.349884 440.130646,190.792801   C440.323364,189.721756 441.033051,188.066696 440.609528,187.691757   C439.449188,186.664597 437.835663,186.117538 436.345795,185.519150   C436.015106,185.386322 435.455109,185.824341 434.715698,185.988159   C434.240723,185.969467 434.050720,185.962143 433.860718,185.954834   C436.171875,180.843018 438.483032,175.731201 441.354004,170.300156   C443.098145,169.333740 444.282532,168.686539 445.466888,168.039337   C444.576019,167.337692 443.685150,166.636032 442.794250,165.934357   C445.466522,157.529205 448.138794,149.124054 450.903809,140.368164   C450.996582,140.017410 450.932434,140.075562 451.353577,139.981277   C456.182068,140.338699 460.589386,140.790390 465.030701,141.590546   C466.908722,145.028030 468.752716,148.117050 470.621399,151.636932   C470.023834,155.377914 469.401581,158.687988 468.558716,162.083603   C468.255341,162.789795 468.172638,163.410461 468.154938,164.419312   C467.774902,166.538101 467.329834,168.268677 466.662598,170.093857   C466.345825,170.916473 466.251221,171.644516 466.148682,172.745438   C465.292725,176.143845 464.444733,179.169373 463.332092,182.211884   C463.001190,182.819092 462.934998,183.409302 462.880249,184.371140   C460.925751,190.161163 458.959808,195.579544 456.621399,201.118820   C455.845856,202.825119 455.442749,204.410538 455.078094,206.330551   C454.739655,207.443420 454.362732,208.221680 453.612610,208.999939   C452.492950,209.000153 451.746460,209.000381 450.768951,209.078857   C450.691925,209.771393 450.845978,210.385696 451.000000,211.000000   C451.000000,211.000000 451.000000,211.000610 451.104736,211.310974   C451.605560,212.132980 452.001617,212.644608 452.357239,213.499542   C451.672577,215.276199 451.028290,216.709534 450.038696,218.100494   C449.462463,218.038452 449.231506,218.018768 448.755402,217.827576   C447.666626,217.786453 446.823029,217.916870 445.979401,218.047287   C446.362152,219.130356 446.744904,220.213440 446.911987,221.558548   C441.843750,224.566940 436.991150,227.313293 431.791138,229.911362   C429.962860,229.509537 428.482056,229.256012 426.817261,229.150421   C426.398071,229.509537 426.188446,229.743637 425.873291,230.289917   C425.494293,231.385208 425.246460,232.191254 424.816467,233.252686   C424.459747,234.104477 424.285126,234.700882 423.954346,235.587524   C420.079498,238.436264 416.360840,240.994781 412.554199,243.441544   C412.391205,243.288834 412.316193,243.247879 412.241180,243.206924   C412.346466,243.350037 412.451752,243.493164 412.467285,243.957123   C408.303497,247.640823 404.229431,251.003708 399.920349,254.170898   C398.839935,255.049179 397.994568,256.123169 397.132721,257.156647   C397.116241,257.116119 397.197235,257.149261 396.844879,257.130219   C395.955139,257.879669 395.417755,258.648193 394.694855,259.716370   C390.137695,264.723938 385.766052,269.431793 381.133057,274.164490   C380.526978,274.777039 380.182251,275.364746 379.776459,276.238892   C378.972107,277.403992 378.228851,278.282593 377.093201,279.214600   C375.849579,281.000122 374.998322,282.732208 374.103912,284.778259   C373.685394,286.675110 373.310059,288.258026 373.154541,289.981903   C373.912903,289.405914 374.451385,288.688904 375.085205,287.647339   C380.064148,282.527222 384.947754,277.731750 390.194733,273.030518   C392.651123,273.442444 394.744141,273.760101 396.837158,274.077759   C396.814697,271.686401 396.792206,269.295074 396.924927,266.597107   C401.689850,262.787689 406.299561,259.284882 411.146423,256.009949   C412.625458,256.924316 413.867340,257.610779 415.928619,258.750183   C416.284943,255.839645 416.554291,253.639465 417.037384,251.232361   C418.419922,250.350311 419.588684,249.675186 421.115601,248.964966   C422.286407,248.207748 423.099091,247.485611 424.083679,246.506866   C425.159973,245.798889 426.064331,245.347549 427.011383,245.239807   C427.829956,248.394943 429.528320,248.084625 430.796539,246.271408   C431.633881,245.074219 431.554291,243.235703 432.104187,241.431793   C439.432343,236.510376 446.541504,231.841522 453.853943,227.394562   C454.655426,226.934906 455.253662,226.253372 456.064697,225.342743   C457.474701,224.288437 458.671875,223.463242 460.002838,222.969788   C461.855316,225.664810 463.588654,225.085236 464.651703,222.915665   C465.489594,221.205490 465.623993,219.150604 466.207031,216.966431   C467.640625,215.690994 468.938049,214.697968 470.560303,213.714386   C471.307190,213.021393 471.729218,212.318954 472.322540,211.329712   C473.634308,210.018127 474.774811,208.993347 476.267151,207.934753   C477.408051,206.921158 478.197052,205.941391 479.092682,204.643616   C487.622620,193.669174 496.028534,182.998825 504.510468,172.389221   C505.045441,171.720047 506.172791,171.524460 506.854187,171.118805   C506.683777,171.129028 506.740448,171.339325 506.740448,171.339325   C506.740448,171.339325 507.204437,171.219070 506.763672,171.282440   C508.405853,167.847916 510.488800,164.350006 512.912598,160.854202   C513.787659,159.794128 514.321838,158.731949 514.900391,157.330933   C517.251892,153.209381 519.559021,149.426651 521.894043,145.909164   C522.231567,146.605469 522.541199,147.036514 522.850769,147.467560   C522.698303,146.563110 522.545776,145.658661 522.453735,144.412811   C523.319763,142.706024 524.125305,141.340637 525.314331,140.050568   C526.966614,140.121704 528.235352,140.117493 529.646362,140.122772   C529.788574,140.132233 529.928955,140.380356 529.797607,140.728973   C529.477295,143.994720 530.612549,143.848190 532.719543,142.350159   C536.549194,144.889023 540.035156,147.326431 543.521057,149.763840   C542.532043,155.644958 541.543030,161.526062 540.030762,167.819031   C539.395020,169.291946 539.282532,170.353012 539.170044,171.414093   C538.140076,175.706192 537.110107,179.998291 535.687500,184.732117   C535.233398,185.796539 535.171875,186.419220 535.110413,187.041931   C533.829956,190.846176 532.549438,194.650421 531.007080,198.319366   C530.745300,198.184052 530.734070,198.366608 530.734070,198.366608   C530.734070,198.366608 530.911194,197.965317 530.911194,197.965317   C530.200134,201.111679 529.489014,204.258041 528.178345,207.733627   C524.295715,208.848404 525.036011,210.314743 526.917053,211.974106   C525.636169,215.432022 524.355286,218.889938 522.596558,222.849289   C521.795898,224.388428 521.473022,225.426147 521.150146,226.463867   C519.844238,229.774246 518.538391,233.084641 516.742126,236.852295   C515.874268,238.314270 515.496765,239.319000 515.119263,240.323730   C513.022766,245.113068 510.926270,249.902405 508.319580,254.795547   C507.815521,255.240158 507.821655,255.580948 507.827820,255.921753   C506.967133,257.756012 506.106445,259.590240 504.713623,261.886688   C503.977844,263.161041 503.774139,263.973206 503.570435,264.785339   C499.027466,273.262756 494.484497,281.740173 489.708832,290.563538   C489.476135,290.909454 489.014648,291.004852 488.706482,290.949463   C482.331177,290.432159 487.188934,293.987701 486.873199,295.746826   C487.565063,294.906097 488.256927,294.065369 489.229858,293.084290   C489.817596,292.403351 490.124237,291.862732 490.430847,291.322144   C501.324493,281.380310 511.836975,270.970551 523.253662,261.670868   C530.187195,256.023010 538.645813,252.451950 548.123779,252.992233   C549.214844,253.054428 550.292969,253.343124 551.473511,253.543121   C549.080688,258.432892 546.842773,263.006042 544.005981,267.942200   C540.784851,271.159882 540.698486,274.315216 542.296692,277.670319   C542.495911,280.519684 542.695190,283.369049 542.541626,286.769775   C540.045837,289.779175 541.703430,291.029816 543.727478,292.164001   C547.306946,302.985596 553.541077,311.740234 563.779541,318.171021   C564.668274,321.117554 565.422363,323.130127 567.998169,320.226837   C569.872620,320.862213 571.747009,321.497589 573.917603,322.715820   C574.473938,325.101898 574.734070,326.905121 574.994141,328.708344   C572.330566,330.344879 569.516113,331.781281 567.031189,333.654816   C559.045166,339.676117 557.044434,347.561035 560.901978,356.894623   C561.405273,358.112305 561.871826,359.345215 562.447144,361.234314   C563.112793,362.565857 563.686646,363.234100 564.260498,363.902344   C569.216187,369.321289 574.171875,374.740234 579.086853,380.661255   C578.054810,385.111755 580.863403,382.705444 582.072937,382.973267   C583.856262,384.347473 585.639526,385.721680 587.374390,387.449921   C587.111633,388.226196 586.897339,388.648438 586.683105,389.070679   C587.486572,388.970428 588.290039,388.870148 589.093506,388.769867   C591.545105,390.471954 593.996765,392.174072 596.717163,394.514404   C596.941711,396.278351 596.897522,397.404053 596.853271,398.529724   C591.410706,396.533600 585.968140,394.537476 580.182861,392.047180   C579.202332,391.429993 578.564636,391.306976 577.926880,391.183960   C568.750854,387.753082 559.574890,384.322235 550.127686,380.339264   C549.545044,379.151337 549.233582,378.515533 548.922058,377.879730   C548.235901,378.372406 547.549744,378.865082 546.863586,379.357758   C541.483948,377.839874 536.104248,376.321991 530.261841,374.420898   C529.200928,374.020782 528.602661,374.003876 528.004456,373.986938   C520.643799,373.241577 513.283142,372.496185 505.312012,371.409363   C503.466492,371.284454 502.231415,371.500977 500.996338,371.717529   C484.353210,374.591675 474.897491,385.805664 468.281708,400.151825   C461.506226,414.844299 459.036377,430.556396 458.341736,446.531586   C458.129242,451.418610 459.235321,456.430725 460.229462,461.284790   C461.392120,466.961548 465.350708,469.991119 471.087311,469.086029   C477.774170,468.030975 484.318756,466.084564 490.939362,464.588074   C491.985962,464.351501 493.107697,464.447479 494.194702,464.389648   C494.488281,464.785767 494.781891,465.181915 495.075500,465.578033   C491.444855,469.220551 488.101807,473.217957 484.128448,476.437531   C473.204071,485.289398 460.569031,487.166077 447.022888,484.664764   C443.436340,484.002502 439.824738,483.388794 436.196777,483.070770   C434.005554,482.878723 431.760651,483.298615 428.324921,483.522797   C435.509155,490.199432 443.003784,493.145325 451.150970,494.024200   C463.696381,495.377533 476.305511,496.138763 488.886505,497.165161   C489.799500,497.239685 490.703278,497.427338 492.122772,497.638428   C451.888672,520.178772 392.273285,514.204407 356.998291,463.322571   C357.141632,462.874542 357.350555,462.688263 357.350555,462.688232   C368.959442,462.869293 380.578735,463.398193 392.171814,463.050842   C396.475525,462.921906 401.044952,461.372314 404.924011,459.368652   C414.890900,454.220459 417.337769,444.357483 412.313354,431.775146   C411.090485,428.712830 409.605743,425.755096 408.104828,422.448395   C412.420776,421.584412 416.586456,420.904236 420.674103,419.904846   C436.177002,416.114563 445.323273,405.792328 450.227814,391.058380   C455.289124,375.853424 456.101440,360.172119 455.974182,343.663483   C451.191498,343.110718 446.503876,342.222839 441.794495,342.086761   C424.829315,341.596558 407.880524,341.647736 391.274841,345.981476   C376.593903,349.812958 362.926758,355.526947 352.509094,367.132355   C343.303833,377.387115 339.834747,391.864471 350.040771,403.628784   C350.439362,404.088226 350.676941,404.687408 351.168640,405.527435   C344.325745,406.365051 337.809509,406.948822 331.369659,408.000366   C321.344757,409.637238 311.345795,411.643036 303.570374,418.941010   C297.473877,424.663116 295.747559,431.856201 297.714935,439.849609   C299.174011,445.777771 301.016876,451.611450 302.776642,457.795959   C301.895844,457.795959 300.783142,458.044952 299.831085,457.759064   C281.933716,452.385284 265.389496,444.612000 252.399109,430.648895   C240.571716,417.935822 234.862549,402.659973 234.254105,385.524323   C233.456940,363.074097 240.061340,342.376648 250.617691,321.193298   C251.113068,326.286560 251.408920,330.066010 251.864197,333.826172   C252.459671,338.744598 252.695328,343.774872 253.940384,348.533447   C257.535126,362.272247 265.458069,366.936462 279.794067,364.066803   C283.062225,364.825409 285.601837,365.659119 288.198059,365.912109   C291.651398,366.248596 292.426880,364.090363 290.844543,361.555573   C289.680420,359.690796 287.602356,358.396545 285.931580,356.848053   C287.515717,349.094452 289.099823,341.340851 290.657532,333.716522   C292.802795,335.278564 295.126282,336.970367 297.796143,339.100647   C298.756348,339.709198 299.370178,339.879272 299.983978,340.049347   C304.343536,339.630127 308.703125,339.210907 313.567993,339.003204   C314.715637,338.823425 315.358002,338.432098 316.000366,338.040771   C318.433197,336.714569 320.865997,335.388397 323.968018,334.218689   C326.381561,334.545013 328.234619,335.148834 329.835785,334.747498   C331.118652,334.425964 332.095612,332.883942 333.208313,331.883545   C332.152466,331.130493 331.096588,330.377472 330.040741,329.624420   C334.142334,325.480896 338.243896,321.337372 342.790955,317.242615   C343.820526,316.183746 344.404663,315.076141 344.988831,313.968506   C344.939667,313.631958 345.028870,313.337311 345.731598,312.942352   C346.417694,312.179138 346.628662,311.558197 346.839600,310.937225   C347.107910,310.213470 347.376190,309.489716 347.733948,308.194641   C347.252411,305.843903 346.544983,304.638031 345.000549,306.951965   C343.524109,306.379608 342.047668,305.807251 340.202881,304.656494   C338.535522,303.711884 337.236511,303.345734 335.937531,302.979553   C331.993439,300.649170 327.851562,298.586090 324.188416,295.875946   C322.349335,294.515289 319.664337,292.512390 322.610596,289.374054   C324.593384,290.775208 326.000061,292.146088 327.406769,293.516968   C327.679169,291.633545 327.994568,289.754791 328.199799,287.864075   C328.268433,287.231812 328.055573,286.569000 327.971375,285.920135   C329.443451,285.013794 330.915558,284.107452 332.855896,283.469513   C334.036469,284.990570 334.748810,286.243256 335.461151,287.495911   C336.048859,287.187073 336.636566,286.878265 337.224274,286.569427   C336.477203,285.044037 335.730133,283.518616 334.983063,281.993195   C340.142151,278.866119 345.301270,275.739014 351.183228,272.611877   C354.770294,273.249054 356.012421,271.934265 356.049103,269.168915   C365.771271,261.758911 375.493408,254.348938 385.762115,246.967606   C386.866730,246.196167 387.424774,245.396072 387.982849,244.595963   C388.258636,244.444946 388.534424,244.293930 389.182434,244.451782   C389.983459,244.705399 390.412323,244.650146 390.841187,244.594894   C390.819916,244.471985 390.798645,244.349075 390.777405,244.226151   C390.147522,244.305435 389.517670,244.384735 388.887817,244.464020  M308.456421,373.296478   C311.895050,372.587616 315.333679,371.878784 319.080353,371.106445   C318.265045,370.252808 317.632751,369.590759 316.840881,368.327209   C315.824005,368.066772 314.807098,367.806366 312.998230,367.325836   C303.810242,365.437103 295.086182,365.589600 287.409637,373.067047   C287.225006,373.788086 287.040375,374.509094 286.623535,376.026917   C284.713776,381.680389 285.119568,387.258820 286.747711,392.729065   C290.493408,388.369232 294.083954,384.189941 298.442108,379.918976   C299.236115,379.087738 300.030121,378.256500 301.283844,376.981903   C302.805878,376.198944 304.327911,375.415955 306.225952,374.978424   C306.806335,374.621765 307.386719,374.265106 308.456421,373.296478  M421.343781,288.881714   C427.254791,282.140625 433.165802,275.399536 439.076813,268.658478   C419.393707,276.709473 402.175323,287.753754 389.816986,305.604553   C396.440033,306.064636 402.378632,306.632324 408.327118,306.767700   C409.613525,306.796997 411.413574,305.576263 412.157288,304.409027   C415.258209,299.542114 418.046326,294.475830 421.343781,288.881714  M503.487518,286.642670   C505.189056,286.074280 507.329346,285.920929 508.416687,284.771515   C509.006470,284.148071 507.803101,281.828308 507.408569,280.273682   C506.808594,280.185791 506.208618,280.097870 505.608673,280.009979   C504.728882,282.080719 503.849121,284.151428 503.487518,286.642670  M517.525818,228.499237   C517.525818,228.499237 517.486877,228.513229 517.525818,228.499237  M568.500854,329.525604   C568.500854,329.525604 568.487122,329.486877 568.500854,329.525604  M395.474213,240.500763   C395.474213,240.500763 395.513123,240.486786 395.474213,240.500763  M521.500793,219.526047   C521.500793,219.526047 521.486633,219.486847 521.500793,219.526047  z" />
    <path d="M451.031464,139.991760   C435.306274,139.307999 419.533966,137.898392 403.788849,138.155716   C375.263123,138.621933 347.403503,143.717087 320.549438,153.517746   C287.812103,165.465561 259.687775,184.321869 236.466019,210.423203   C221.821686,226.883514 208.717697,244.381134 198.974487,264.244141   C189.309387,283.947876 182.710068,304.629333 181.130478,326.533203   C179.853012,344.247742 179.748581,362.052490 179.345123,379.822235   C179.120773,389.702728 176.747894,398.844757 171.162796,407.022888   C163.944839,417.591949 153.440277,419.159668 143.206528,411.460114   C133.411453,404.090576 127.767242,394.300018 125.750000,382.301514   C122.787704,364.681793 122.371368,347.040039 129.286102,330.318848   C131.981094,323.801849 137.683060,318.542175 141.934479,312.651398   C146.977402,305.663879 152.469055,298.925079 156.783234,291.506805   C161.565948,283.282898 158.005341,278.535645 148.491501,277.768616   C133.105820,276.528168 125.422874,289.835938 122.140755,301.617706   C121.210312,304.957672 120.624283,308.393616 119.683617,312.682281   C113.528175,301.035950 112.503433,289.512848 118.591324,279.007721   C124.264664,269.217987 132.100677,260.660004 139.178772,251.713333   C144.123108,245.463745 149.789917,239.754974 154.405624,233.285004   C158.778732,227.155045 160.210434,220.086838 155.804474,213.202698   C153.449112,209.522537 154.719131,207.418350 157.910675,205.723267   C164.932602,201.993805 172.056381,198.455368 179.062302,194.696747   C186.003952,190.972626 192.513367,186.631973 196.509247,179.543884   C201.228958,171.171860 197.396561,164.438354 187.791046,165.152496   C182.924393,165.514297 178.214600,167.986359 173.499847,169.483414   C171.947174,162.834259 174.841995,157.214676 182.513809,155.887756   C191.300659,154.367981 200.274689,153.818100 209.191452,153.186508   C225.020477,152.065262 239.453400,146.650681 253.743835,140.120651   C284.331573,126.143562 316.382721,118.012337 350.102386,115.791595   C384.940063,113.497223 418.580383,118.359543 452.156433,129.677338   C452.179962,133.327286 451.556213,136.701431 450.932434,140.075562   C450.932434,140.075562 450.996582,140.017410 451.031464,139.991760  z" />
    <path d="M453.994507,108.015869   C439.335266,106.341873 424.695587,104.462029 410.009918,103.066101   C400.185699,102.132286 391.110840,99.475258 383.245026,93.453041   C377.670776,89.185303 372.802643,84.041725 374.087708,76.381874   C374.766357,72.336769 376.531250,68.001183 379.088409,64.831581   C387.126556,54.868164 398.023865,50.110680 410.754883,49.196487   C425.170990,48.161285 439.217102,49.770176 453.048615,53.987576   C460.605164,56.291660 466.720367,60.444912 472.211151,66.040794   C479.193329,73.156677 486.539520,79.921936 493.873535,86.681328   C495.673584,88.340347 497.921906,89.634964 500.161041,90.671974   C506.098694,93.421913 510.484222,91.095779 512.004272,84.616562   C514.328430,74.709618 511.100494,65.331833 502.304291,59.967045   C495.598907,55.877407 488.152008,53.003616 481.451172,49.788609   C492.882111,44.901569 505.304962,45.400528 515.877991,53.642857   C525.353027,61.029263 533.273621,70.402458 541.933533,78.844208   C547.266174,84.042458 552.406006,89.499741 558.174011,94.172005   C563.392578,98.399193 569.658142,99.353157 575.917480,96.084312   C579.518127,94.203911 581.553040,95.425987 582.917114,98.810593   C586.194580,106.943359 588.984741,115.320190 592.903564,123.130943   C595.752686,128.809631 599.637268,134.155563 603.929382,138.856079   C606.668518,141.855728 610.760742,144.730881 615.506531,142.268692   C619.606506,140.141571 621.973694,132.763702 620.344849,127.699944   C619.288574,124.416145 617.868469,121.249382 616.622559,118.058662   C626.078796,117.582619 630.729736,121.950653 630.911377,132.397415   C631.032410,139.361221 630.322571,146.337128 630.059875,153.310440   C629.463745,169.139008 633.379700,184.078613 637.899475,199.141891   C643.115295,216.524658 647.287537,234.285995 650.767334,252.106674   C654.644714,271.962921 654.125610,292.247375 652.551331,312.283508   C650.250610,341.565125 642.893616,369.791046 630.524780,396.497040   C625.726318,406.857574 619.728027,416.664062 614.223877,426.694153   C613.540527,427.939331 612.533142,429.006714 610.860962,431.249725   C613.280212,421.917358 615.863892,414.044006 617.300903,405.966644   C620.196838,389.688263 623.227661,373.370239 624.773376,356.934143   C626.168701,342.097382 626.756714,327.009430 625.784241,312.157776   C622.720764,265.371979 608.870483,222.263000 578.186401,185.898621   C568.138367,173.990570 556.507080,163.417328 545.566711,152.266190   C544.898010,151.584610 543.936951,151.189911 543.456238,149.888641   C547.132874,129.281555 547.129700,109.418602 544.403931,89.462822   C543.640259,90.250175 543.291992,91.100494 543.000244,91.969742   C539.685120,101.844818 536.668579,111.833496 532.956055,121.556534   C530.884338,126.982239 527.659668,131.967712 524.850037,136.817627   C516.940125,132.108276 509.427490,127.052994 501.253754,123.532867   C491.455811,119.313263 481.093781,116.403374 470.995758,112.839203   C471.015472,112.752068 471.037811,112.574806 471.031250,112.107132   C469.552826,98.810837 466.175201,86.482147 461.527893,73.731834   C460.107330,85.375046 458.788422,96.185204 457.156799,107.002121   C455.894226,107.344543 454.944366,107.680206 453.994507,108.015869  z" />
    <path d="M542.705261,533.788696   C568.044678,521.797974 589.215881,504.929810 607.673462,484.495605   C621.771606,468.887665 634.111084,452.102722 643.152710,432.974304   C651.077026,416.209686 656.729065,398.736145 658.843018,380.372833   C660.585388,365.237305 661.043091,349.951508 661.984253,334.726990   C662.639587,324.126587 664.685486,314.024658 671.332947,305.325409   C678.459656,295.999054 687.897034,294.502563 697.413757,301.256531   C708.005310,308.773254 713.457703,319.482574 714.737488,331.940002   C716.373291,347.863617 716.696716,364.106720 709.874207,378.982880   C706.591125,386.141479 700.424011,391.984802 695.518982,398.390106   C690.484802,404.963989 684.929565,411.195770 680.462219,418.131134   C675.854614,425.284210 679.433105,430.957642 688.005310,431.709229   C698.496155,432.629028 705.725342,427.529297 710.347168,418.929901   C713.598755,412.879974 715.459473,406.082520 717.764526,400.079010   C723.753235,409.058502 723.185669,425.054779 714.445618,436.393890   C707.180420,445.819702 698.301514,453.988098 690.362366,462.913605   C686.089355,467.717468 681.962891,472.721802 678.373047,478.042358   C675.185669,482.766510 675.310974,488.176422 678.059570,493.200592   C680.187256,497.089691 678.937317,499.484741 675.313782,501.200378   C667.071899,505.102570 658.451111,508.374298 650.695862,513.075989   C645.335876,516.325500 640.317566,520.928955 636.669189,526.018799   C631.702881,532.947510 635.614319,538.220093 643.835693,538.757568   C649.061768,539.099182 654.483215,536.450317 659.664246,535.179871   C660.155762,542.797424 656.299194,547.946167 647.793518,548.669800   C638.851990,549.430420 629.848145,549.474670 620.869812,549.782837   C606.698486,550.269470 593.586609,554.722412 580.611572,560.033569   C557.791016,569.374695 534.119263,575.309204 509.565308,578.238098   C486.408630,581.000244 463.406372,580.522278 440.489899,576.937073   C411.097443,572.338806 383.187469,563.110474 357.233063,548.353333   C356.429810,547.896606 355.782532,547.165527 355.194092,546.672546   C367.886230,548.872742 380.534576,551.490295 393.305542,553.183167   C414.426758,555.983032 435.610260,556.822021 456.962158,555.221191   C477.762421,553.661804 498.094940,550.197571 517.850098,543.645020   C526.176941,540.883057 534.198792,537.201965 542.705261,533.788696  z" />
    <path d="M287.754242,529.258362   C316.702393,557.476685 350.952240,574.451721 390.405090,580.937866   C401.354584,582.737976 412.404144,583.930908 423.409637,585.388611   C433.010834,586.660278 441.782837,589.922058 448.915253,596.648987   C458.743317,605.918274 458.404938,616.877014 448.335663,625.929688   C439.666351,633.723694 429.585541,637.423157 417.917694,637.604370   C402.954163,637.836731 388.267242,636.281555 374.691711,629.843445   C369.183777,627.231384 364.421112,622.739319 359.852814,618.524475   C352.411041,611.658447 345.552856,604.161743 338.147614,597.253601   C335.154633,594.461548 331.289124,591.765015 326.923615,593.882996   C322.501373,596.028503 322.149719,600.648743 321.770020,605.054260   C320.877655,615.409058 326.504364,622.103821 334.579376,626.960632   C339.776276,630.086365 345.594025,632.179932 351.269775,634.799011   C336.802856,640.237122 323.787201,637.013855 313.016876,626.657898   C304.303284,618.279541 296.962799,608.488464 288.759094,599.557556   C285.072571,595.544312 281.064575,591.686096 276.658875,588.512207   C272.020538,585.170715 266.568970,584.226013 261.111176,587.039062   C257.642242,588.826965 255.416733,587.835083 254.120758,584.302185   C250.984863,575.753540 248.385834,566.954590 244.540878,558.738281   C242.002213,553.313416 238.127289,548.293396 233.959686,543.946289   C231.942352,541.842102 226.752258,539.940979 224.986191,541.066528   C221.957443,542.996765 219.059494,547.237976 218.723801,550.758484   C218.298187,555.221741 220.485977,559.934204 221.521637,564.430054   C213.999527,564.910706 209.181076,561.036621 209.083984,552.914062   C208.988861,544.956543 209.496597,536.977478 210.050171,529.029541   C211.045746,514.735352 208.934616,500.929016 204.472031,487.361115   C192.343399,450.485626 188.778824,412.577026 193.208420,374.195099   C197.619370,335.974670 210.182434,300.311584 231.180801,267.843353   C232.767715,265.389587 234.604019,263.097137 236.742966,260.153687   C233.307098,273.075378 229.360565,285.049652 227.046371,297.331512   C224.011566,313.437958 221.880325,329.743866 220.048889,346.041351   C216.936447,373.737946 219.680862,401.147614 226.489609,428.039612   C234.230911,458.614868 248.549194,485.957397 269.467621,509.680603   C275.292877,516.286926 281.482086,522.572388 287.754242,529.258362  z" />
    <path d="M402.735352,406.781830   C394.369263,427.654510 375.337585,428.283783 357.540283,431.099670   C360.255676,429.984589 363.050110,429.028870 365.673553,427.728271   C381.734863,419.765839 390.057098,405.970551 395.126953,389.399750   C397.628754,381.222565 400.959808,373.227631 404.663605,365.509186   C408.597046,357.312164 415.986359,352.995636 424.720306,351.536346   C432.213898,350.284271 439.846619,349.864929 447.709015,349.047028   C448.115448,355.523651 448.646332,361.778656 448.830383,368.043823   C448.900269,370.422882 448.734772,372.867645 445.156128,373.392944   C424.841064,376.374817 412.494690,389.688660 402.735352,406.781830  z" />
    <path d="M694.421875,192.590515   C704.814758,193.615662 710.234192,202.441788 706.924316,212.552811   C704.595825,219.666077 700.555725,225.721069 694.191040,229.796829   C684.871521,235.764755 675.361389,241.434998 665.205750,246.635712   C666.186401,244.889984 667.432556,243.240143 668.103394,241.382553   C671.736145,231.322449 674.953674,221.103943 678.854309,211.151703   C681.866272,203.467133 685.055603,195.582291 694.421875,192.590515  z" />
    <path d="M545.624268,622.343018   C536.788574,617.433105 528.271179,612.717957 521.042603,608.716309   C528.917969,607.504333 537.603210,606.100098 546.310181,604.847107   C554.763611,603.630737 563.252808,601.598572 571.701538,601.715393   C580.008057,601.830261 583.835327,606.092651 584.012329,611.933350   C584.236877,619.343872 579.659607,625.126160 572.183105,626.946960   C562.798401,629.232483 554.112732,627.439209 545.624268,622.343018  z" />
    <path d="M281.277008,69.657280   C290.645477,77.294952 299.719940,84.713287 307.929504,91.424591   C295.137665,91.331032 281.942200,91.413300 268.759796,91.037689   C264.358063,90.912277 259.853607,90.056740 255.636932,88.754959   C248.726105,86.621437 246.119736,82.667618 246.774734,76.754692   C247.412003,71.001869 252.596924,65.662346 258.523102,64.832596   C266.537079,63.710522 274.065613,65.126862 281.277008,69.657280  z" />
    <path d="M159.109802,524.218445   C151.646774,526.923401 145.470474,522.837463 144.921967,515.198120   C144.360001,507.371368 146.674149,500.076752 151.537354,494.336609   C159.535034,484.896851 168.449295,476.233704 176.977112,467.243134   C177.309952,467.474579 177.642776,467.706024 177.975601,467.937500   C176.652893,472.055359 174.983231,476.098694 174.079041,480.306519   C172.140472,489.328094 170.873795,498.498535 168.797577,507.484558   C167.338791,513.798340 164.840500,519.818115 159.109802,524.218445  z" />
    <path d="M470.995758,112.839195   C471.482452,120.792526 471.988831,128.658722 472.564209,137.596710   C465.628723,134.693741 459.682251,132.204727 453.598602,129.355621   C454.671661,122.898308 455.881866,116.801071 457.356812,110.252289   C457.621582,109.800735 457.975494,109.552498 458.347717,109.436798   C462.825867,110.405670 466.931854,111.490234 471.037811,112.574806   C471.037811,112.574806 471.015472,112.752068 470.995758,112.839195  z" />
    <path d="M285.655762,357.042297   C287.602356,358.396545 289.680420,359.690796 290.844543,361.555573   C292.426880,364.090363 291.651398,366.248596 288.198059,365.912109   C285.601837,365.659119 283.062225,364.825409 280.192444,364.006592   C281.718292,361.587433 283.549103,359.411957 285.655762,357.042297  z" />
    <path d="M414.595428,215.901642   C416.448273,217.650452 418.009766,219.553909 419.905029,221.864258   C416.499542,223.421432 413.844879,227.847580 410.682678,221.572662   C411.815277,219.425690 413.059692,217.740997 414.595428,215.901642  z" />
    <path d="M575.340210,328.630676   C574.734070,326.905121 574.473938,325.101898 574.185425,322.905212   C577.898499,323.130798 581.639954,323.749878 586.032898,324.476776   C582.264648,325.961334 578.975464,327.257172 575.340210,328.630676  z" />
    <path d="M329.753906,329.722687   C331.096588,330.377472 332.152466,331.130493 333.208313,331.883545   C332.095612,332.883942 331.118652,334.425964 329.835785,334.747498   C328.234619,335.148834 326.381561,334.545013 324.308533,334.163849   C325.808868,332.575348 327.637939,331.198151 329.753906,329.722687  z" />
    <path d="M327.631897,285.973480   C328.055573,286.569000 328.268433,287.231812 328.199799,287.864075   C327.994568,289.754791 327.679169,291.633545 327.406769,293.516968   C326.000061,292.146088 324.593384,290.775208 322.947632,289.129089   C324.236542,287.911499 325.764435,286.969147 327.631897,285.973480  z" />
    <path d="M597.142212,398.720337   C596.897522,397.404053 596.941711,396.278351 596.989624,394.730225   C599.952393,396.188385 602.911438,398.068970 605.870544,399.949524   C605.685303,400.371490 605.500000,400.793457 605.314758,401.215424   C602.686890,400.447266 600.059021,399.679108 597.142212,398.720337  z" />
    <path d="M334.689514,282.013947   C335.730133,283.518616 336.477203,285.044037 337.224274,286.569427   C336.636566,286.878265 336.048859,287.187073 335.461151,287.495911   C334.748810,286.243256 334.036469,284.990570 333.186096,283.435486   C333.497314,282.766937 333.946625,282.400818 334.689514,282.013947  z" />
    <path d="M442.555420,166.148163   C443.685150,166.636032 444.576019,167.337692 445.466888,168.039337   C444.282532,168.686539 443.098145,169.333740 441.547821,169.991364   C441.560120,168.788544 441.938354,167.575256 442.555420,166.148163  z" />
    <path d="M542.537964,277.323425   C540.698486,274.315216 540.784851,271.159882 543.733521,268.163086   C543.633057,271.006134 543.206116,273.991364 542.537964,277.323425  z" />
    <path d="M355.727600,269.254761   C356.012421,271.934265 354.770294,273.249054 351.482483,272.503418   C352.507965,271.376862 353.957031,270.358734 355.727600,269.254761  z" />
    <path d="M567.747925,320.010284   C565.422363,323.130127 564.668274,321.117554 564.008362,318.419861   C565.149170,318.650543 566.323425,319.222137 567.747925,320.010284  z" />
    <path d="M543.675598,291.843170   C541.703430,291.029816 540.045837,289.779175 542.477539,287.159515   C543.051941,288.506073 543.337830,290.014191 543.675598,291.843170  z" />
    <path d="M527.165527,211.716919   C525.036011,210.314743 524.295715,208.848404 527.919250,208.036255   C527.977783,209.159683 527.695923,210.309708 527.165527,211.716919  z" />
    <path d="M581.929626,382.722321   C580.863403,382.705444 578.054810,385.111755 579.267883,380.950378   C580.255188,381.315430 581.020752,381.893402 581.929626,382.722321  z" />
    <path d="M547.106628,379.570740   C547.549744,378.865082 548.235901,378.372406 548.922058,377.879730   C549.233582,378.515533 549.545044,379.151337 549.851074,380.120667   C549.013611,380.230743 548.181641,380.007263 547.106628,379.570740  z" />
    <path d="M501.398438,371.754822   C502.231415,371.500977 503.466492,371.284454 504.853729,371.316437   C503.937439,371.640656 502.868958,371.716370 501.398438,371.754822  z" />
    <path d="M344.735413,314.135345   C344.404663,315.076141 343.820526,316.183746 343.084808,317.075317   C343.449493,316.006927 343.965759,315.154541 344.735413,314.135345  z" />
    <path d="M336.112671,303.258789   C337.236511,303.345734 338.535522,303.711884 339.918274,304.460815   C338.763947,304.408417 337.525909,303.973206 336.112671,303.258789  z" />
    <path d="M398.779938,234.252869   C398.312744,235.099304 397.566132,236.044617 396.504150,236.996063   C396.959381,236.118713 397.729919,235.235229 398.779938,234.252869  z" />
    <path d="M433.579041,186.156158   C434.050720,185.962143 434.240723,185.969467 434.693542,186.312408   C434.637665,187.433075 434.319000,188.218109 434.000336,189.003159   C433.363159,189.293625 432.725952,189.584091 431.759735,190.002899   C432.052917,188.873322 432.675140,187.615417 433.579041,186.156158  z" />
    <path d="M454.323364,108.235092   C454.944366,107.680206 455.894226,107.344543 457.194855,107.254974   C457.516663,107.669052 457.487671,107.837036 457.431213,108.019775   C457.403717,108.034531 457.410278,107.899155 457.410278,107.899155   C456.490906,108.084206 455.571564,108.269264 454.323364,108.235092  z" />
    <path d="M345.258942,307.148468   C346.544983,304.638031 347.252411,305.843903 347.867279,307.929962   C347.113190,307.939423 346.315247,307.642212 345.258942,307.148468  z" />
    <path d="M589.024902,388.556793   C588.290039,388.870148 587.486572,388.970428 586.683105,389.070679   C586.897339,388.648438 587.111633,388.226196 587.571716,387.736389   C588.197144,387.893768 588.576721,388.118744 589.024902,388.556793  z" />
    <path d="M315.713531,338.004639   C315.358002,338.432098 314.715637,338.823425 313.989136,338.955750   C314.412201,338.454041 314.919464,338.211273 315.713531,338.004639  z" />
    <path d="M387.718811,244.745743   C387.424774,245.396072 386.866730,246.196167 386.077118,246.834610   C386.381989,246.080475 386.918427,245.487991 387.718811,244.745743  z" />
    <path d="M521.416870,226.271851   C521.473022,225.426147 521.795898,224.388428 522.405762,223.173767   C522.356384,224.024475 522.019958,225.052155 521.416870,226.271851  z" />
    <path d="M539.443970,171.168121   C539.282532,170.353012 539.395020,169.291946 539.784912,168.126312   C539.947571,168.988556 539.832703,169.955353 539.443970,171.168121  z" />
    <path d="M515.384033,240.137848   C515.496765,239.319000 515.874268,238.314270 516.550171,237.154480   C516.448669,237.983612 516.048706,238.967804 515.384033,240.137848  z" />
    <path d="M535.311340,186.846588   C535.171875,186.419220 535.233398,185.796539 535.512878,185.085419   C535.658020,185.548401 535.585144,186.099838 535.311340,186.846588  z" />
    <path d="M578.068665,391.455872   C578.564636,391.306976 579.202332,391.429993 579.913635,391.794891   C579.394958,391.933777 578.802673,391.830780 578.068665,391.455872  z" />
    <path d="M528.198364,374.183899   C528.602661,374.003876 529.200928,374.020782 529.903442,374.226349   C529.469238,374.403595 528.930786,374.392212 528.198364,374.183899  z" />
    <path d="M346.591156,311.094879   C346.628662,311.558197 346.417694,312.179138 345.946411,312.841858   C345.904968,312.339905 346.123840,311.796234 346.591156,311.094879  z" />
    <path d="M299.776123,339.847717   C299.370178,339.879272 298.756348,339.709198 298.071106,339.309631   C298.522522,339.268768 299.045380,339.457428 299.776123,339.847717  z" />
    <path d="M503.765289,264.544189   C503.774139,263.973206 503.977844,263.161041 504.467468,262.173340   C504.488953,262.766174 504.224548,263.534637 503.765289,264.544189  z" />
    <path d="M564.204712,363.582306   C563.686646,363.234100 563.112793,362.565857 562.591431,361.536499   C563.145569,361.871033 563.647217,362.566650 564.204712,363.582306  z" />
    <path d="M388.906036,244.511948   C389.517670,244.384735 390.147522,244.305435 390.777405,244.226151   C390.798645,244.349075 390.819916,244.471985 390.841187,244.594894   C390.412323,244.650146 389.983459,244.705399 389.236725,244.711472   C388.918854,244.662292 388.924255,244.559875 388.906036,244.511948  z" />
    <path d="M507.943481,255.800247   C507.821655,255.580948 507.815521,255.240158 508.031158,254.971313   C508.247162,255.273026 508.182556,255.484833 507.943481,255.800247  z" />
    <path d="M457.410828,108.409142   C457.410278,107.899155 457.403717,108.034531 457.516724,108.421242   C457.744995,109.056137 457.860260,109.304321 457.975494,109.552498   C457.975494,109.552498 457.621582,109.800735 457.538086,109.869461   C457.440186,109.598503 457.425781,109.258812 457.410828,108.409142  z" />
    <path d="M357.037537,462.968109   C356.755219,462.911713 356.576996,462.761749 356.398773,462.611786   C356.630280,462.536652 356.861786,462.461517 357.221924,462.537323   C357.350555,462.688263 357.141632,462.874542 357.037537,462.968109  z" />
    <path d="M178.571289,466.630737   C178.605774,466.702209 178.536789,466.559265 178.571289,466.630737  z" />
    <path d="M530.900574,197.922852   C530.911194,197.965317 530.734070,198.366608 530.734070,198.366608   C530.734070,198.366608 530.745300,198.184052 530.782959,198.005402   C530.820679,197.826767 530.889954,197.880386 530.900574,197.922852  z" />
    <path d="M465.030701,141.590546   C467.068787,141.601486 469.140839,141.960907 471.515991,142.372894   C471.815796,140.852966 472.078369,139.521790 472.450958,137.632904   C476.095703,139.479263 479.543396,141.225800 483.075867,143.393997   C483.032318,143.959091 482.903961,144.102524 482.775604,144.245972   C481.794037,144.133484 480.799988,144.085403 479.832825,143.898438   C471.504669,142.288589 471.506104,142.281097 470.767090,150.851532   C468.752716,148.117050 466.908722,145.028030 465.030701,141.590546  z" />
    <path d="M390.194733,273.030518   C391.929291,270.974579 394.027191,269.012909 396.447418,266.977478   C396.792206,269.295074 396.814697,271.686401 396.837158,274.077759   C394.744141,273.760101 392.651123,273.442444 390.194733,273.030518  z" />
    <path d="M503.228455,286.432404   C503.849121,284.151428 504.728882,282.080719 505.608673,280.009979   C506.208618,280.097870 506.808594,280.185791 507.408569,280.273682   C507.803101,281.828308 509.006470,284.148071 508.416687,284.771515   C507.329346,285.920929 505.189056,286.074280 503.228455,286.432404  z" />
    <path d="M434.244873,189.233612   C434.319000,188.218109 434.637665,187.433075 434.978516,186.323761   C435.455109,185.824341 436.015106,185.386322 436.345795,185.519150   C437.835663,186.117538 439.449188,186.664597 440.609528,187.691757   C441.033051,188.066696 440.323364,189.721756 440.130646,190.792801   C438.250244,190.349884 436.369843,189.906967 434.244873,189.233612  z" />
    <path d="M460.002838,222.969788   C461.739288,220.924316 463.609558,219.210602 465.775330,217.372864   C465.623993,219.150604 465.489594,221.205490 464.651703,222.915665   C463.588654,225.085236 461.855316,225.664810 460.002838,222.969788  z" />
    <path d="M411.146423,256.009979   C412.666016,254.419647 414.422729,253.057205 416.501526,251.567017   C416.554291,253.639465 416.284943,255.839645 415.928619,258.750183   C413.867340,257.610779 412.625458,256.924316 411.146423,256.009979  z" />
    <path d="M427.011383,245.239792   C428.392456,243.884705 429.816254,242.873215 431.562622,241.773041   C431.554291,243.235703 431.633881,245.074219 430.796539,246.271408   C429.528320,248.084625 427.829956,248.394943 427.011383,245.239792  z" />
    <path d="M431.791138,229.911362   C430.821167,231.045959 429.503815,232.032288 427.452576,233.053406   C426.145325,233.057907 425.571991,233.027603 424.998596,232.997299   C425.246460,232.191254 425.494293,231.385208 426.055969,230.140686   C426.603882,229.490265 426.814362,229.257034 427.001221,229.002472   C428.482056,229.256012 429.962860,229.509537 431.791138,229.911362  z" />
    <path d="M488.948792,293.224670   C488.256927,294.065369 487.565063,294.906097 486.873199,295.746826   C487.188934,293.987701 482.331177,290.432159 488.685059,291.319458   C488.964142,292.238129 488.956482,292.731415 488.948792,293.224670  z" />
    <path d="M449.093689,220.249908   C448.624939,220.555405 448.156189,220.860901 447.407532,221.231445   C446.744904,220.213440 446.362152,219.130356 445.979401,218.047287   C446.823029,217.916870 447.666626,217.786453 448.761475,218.203033   C449.039703,219.249969 449.066681,219.749954 449.093689,220.249908  z" />
    <path d="M377.093201,279.214600   C376.559479,280.784882 375.633392,282.408539 374.427185,284.248260   C374.998322,282.732208 375.849579,281.000122 377.093201,279.214600  z" />
    <path d="M529.797607,140.728989   C530.658569,140.846329 531.388245,141.312286 532.246826,142.013489   C530.612549,143.848190 529.477295,143.994720 529.797607,140.728989  z" />
    <path d="M456.621399,201.118820   C456.476776,202.483261 455.959686,203.968597 455.241119,205.724930   C455.442749,204.410538 455.845856,202.825119 456.621399,201.118820  z" />
    <path d="M399.920349,254.170898   C399.336029,255.228821 398.516693,256.091064 397.423279,257.075226   C397.994568,256.123169 398.839935,255.049179 399.920349,254.170898  z" />
    <path d="M524.936890,139.125854   C526.341797,139.108978 527.727844,139.374863 529.309021,139.877014   C528.235352,140.117493 526.966614,140.121704 525.314331,140.050568   C524.926575,139.786377 524.922302,139.597504 524.936890,139.125854  z" />
    <path d="M396.844879,257.130219   C396.588226,257.820221 395.979248,258.491180 395.125305,259.289429   C395.417755,258.648193 395.955139,257.879669 396.844879,257.130219  z" />
    <path d="M316.920654,368.627930   C316.086823,368.589752 315.173248,368.250854 314.024933,367.728943   C314.807098,367.806366 315.824005,368.066772 316.920654,368.627930  z" />
    <path d="M512.912598,160.854218   C513.144836,159.910049 513.717896,158.968002 514.573486,157.847855   C514.321838,158.731949 513.787659,159.794128 512.912598,160.854218  z" />
    <path d="M476.267151,207.934738   C476.747864,207.051926 477.580444,206.135315 478.699524,205.090164   C478.197052,205.941391 477.408051,206.921158 476.267151,207.934738  z" />
    <path d="M453.853943,227.394562   C454.209320,226.700439 454.767975,226.228165 455.589233,225.663879   C455.253662,226.253372 454.655426,226.934906 453.853943,227.394562  z" />
    <path d="M521.894043,145.909149   C521.828003,145.380112 521.901245,145.152069 522.239502,144.856995   C522.545776,145.658661 522.698303,146.563110 522.850769,147.467560   C522.541199,147.036514 522.231567,146.605469 521.894043,145.909149  z" />
    <path d="M298.058319,379.964844   C298.519562,379.249634 299.364594,378.488586 300.516846,377.576416   C300.030121,378.256500 299.236115,379.087738 298.058319,379.964844  z" />
    <path d="M287.711121,373.035736   C287.729675,373.609650 287.446747,374.214844 287.009766,375.025085   C287.040375,374.509094 287.225006,373.788086 287.711121,373.035736  z" />
    <path d="M424.816467,233.252686   C425.571991,233.027603 426.145325,233.057907 427.148895,233.117035   C426.646088,233.806152 425.713074,234.466431 424.445312,235.212006   C424.285126,234.700882 424.459747,234.104477 424.816467,233.252686  z" />
    <path d="M470.560303,213.714386   C470.710693,213.112534 471.185913,212.520126 471.906189,211.772125   C471.729218,212.318954 471.307190,213.021393 470.560303,213.714386  z" />
    <path d="M453.612610,208.999939   C453.861511,209.559235 453.737152,210.118515 453.015320,210.839264   C451.945221,211.000687 451.472626,211.000641 451.000000,211.000610   C451.000000,211.000610 451.000000,211.000000 451.000000,210.666763   C451.000000,209.889221 451.000000,209.444916 451.000000,209.000610   C451.746460,209.000381 452.492950,209.000153 453.612610,208.999939  z" />
    <path d="M373.154541,289.981903   C373.446320,289.302063 373.957916,288.763214 374.729706,288.098145   C374.451385,288.688904 373.912903,289.405914 373.154541,289.981903  z" />
    <path d="M421.115601,248.964966   C421.593170,248.308441 422.428864,247.616837 423.588165,246.844360   C423.099091,247.485611 422.286407,248.207748 421.115601,248.964966  z" />
    <path d="M468.558685,162.083603   C468.683929,162.542908 468.588562,163.087769 468.291565,163.831863   C468.172638,163.410461 468.255341,162.789795 468.558685,162.083603  z" />
    <path d="M451.104736,211.310974   C451.472626,211.000641 451.945221,211.000687 452.772278,211.000977   C453.027893,211.583893 452.929077,212.166580 452.613953,212.952759   C452.001617,212.644608 451.605560,212.132980 451.104736,211.310974  z" />
    <path d="M450.768951,209.078857   C451.000000,209.444916 451.000000,209.889221 451.000000,210.666763   C450.845978,210.385696 450.691925,209.771393 450.768951,209.078857  z" />
    <path d="M463.332062,182.211884   C463.465271,182.608414 463.333801,183.021942 463.035583,183.717499   C462.934998,183.409302 463.001190,182.819092 463.332062,182.211884  z" />
    <path d="M381.133026,274.164490   C381.065399,274.658997 380.736450,275.178375 380.122498,275.825073   C380.182251,275.364746 380.526978,274.777039 381.133026,274.164490  z" />
    <path d="M306.037964,374.805725   C306.360962,374.404327 306.871948,374.175659 307.675049,373.927704   C307.386719,374.265106 306.806335,374.621765 306.037964,374.805725  z" />
    <path d="M466.662598,170.093857   C466.813995,170.650314 466.743225,171.301376 466.414551,172.162476   C466.251221,171.644516 466.345825,170.916473 466.662598,170.093857  z" />
    <path d="M449.403137,220.123871   C449.066681,219.749954 449.039703,219.249969 449.006653,218.374542   C449.231506,218.018768 449.462463,218.038452 450.038696,218.100494   C450.160187,218.761200 449.936371,219.379517 449.403137,220.123871  z" />
    <path d="M517.506348,228.506226   C517.486877,228.513229 517.525818,228.499237 517.506348,228.506226  z" />
    <path d="M568.494019,329.506226   C568.487122,329.486877 568.500854,329.525604 568.494019,329.506226  z" />
    <path d="M426.817261,229.150421   C426.814362,229.257034 426.603882,229.490265 426.187103,229.851425   C426.188446,229.743637 426.398071,229.509537 426.817261,229.150421  z" />
    <path d="M506.854187,171.118805   C507.024567,171.108566 507.117126,171.099487 507.160767,171.159271   C507.204437,171.219070 506.740448,171.339325 506.740448,171.339325   C506.740448,171.339325 506.683777,171.129028 506.854187,171.118805  z" />
    <path d="M412.563354,243.600189   C412.451752,243.493164 412.346466,243.350037 412.241180,243.206924   C412.316193,243.247879 412.391205,243.288834 412.554199,243.441528   C412.642181,243.553268 412.569672,243.564102 412.563354,243.600189  z" />
    <path d="M395.493652,240.493774   C395.513123,240.486786 395.474213,240.500763 395.493652,240.493774  z" />
    <path d="M521.493713,219.506439   C521.486633,219.486847 521.500793,219.526047 521.493713,219.506439  z" />
    <path d="M483.353607,143.600891   C484.169586,143.739838 484.792603,144.093552 486.280121,144.938110   C484.568176,144.816498 483.848358,144.765350 482.952057,144.480103   C482.903961,144.102524 483.032318,143.959091 483.353607,143.600891  z" />
  </g>
</svg>
