<svg version="1.1" id="Layer_1" xmlns="http://www.w3.org/2000/svg" xmlns:xlink="http://www.w3.org/1999/xlink" x="0px" y="0px"
	 width="1822.76622" viewBox="112.503433 44.901569 1822.76622 595.335553" enable-background="new 0 0 2048 682" xml:space="preserve">

<path fill="#FEFEFE" opacity="1.000000" stroke="none" 
	d="
M388.887817,244.464020 
	C391.110504,242.081848 393.333191,239.699692 396.187683,237.153717 
	C397.566132,236.044617 398.312744,235.099304 399.059387,234.153992 
	C402.691284,229.972610 406.323212,225.791229 410.374817,221.822403 
	C413.844879,227.847580 416.499542,223.421432 419.905029,221.864258 
	C418.009766,219.553909 416.448273,217.650452 414.886780,215.746979 
	C420.279755,207.375580 425.672729,199.004196 431.577240,190.253693 
	C432.725952,189.584091 433.363159,189.293625 434.244873,189.233612 
	C436.369843,189.906967 438.250244,190.349884 440.130646,190.792801 
	C440.323364,189.721756 441.033051,188.066696 440.609528,187.691757 
	C439.449188,186.664597 437.835663,186.117538 436.345795,185.519150 
	C436.015106,185.386322 435.455109,185.824341 434.715698,185.988159 
	C434.240723,185.969467 434.050720,185.962143 433.860718,185.954834 
	C436.171875,180.843018 438.483032,175.731201 441.354004,170.300156 
	C443.098145,169.333740 444.282532,168.686539 445.466888,168.039337 
	C444.576019,167.337692 443.685150,166.636032 442.794250,165.934357 
	C445.466522,157.529205 448.138794,149.124054 450.903809,140.368164 
	C450.996582,140.017410 450.932434,140.075562 451.353577,139.981277 
	C456.182068,140.338699 460.589386,140.790390 465.030701,141.590546 
	C466.908722,145.028030 468.752716,148.117050 470.621399,151.636932 
	C470.023834,155.377914 469.401581,158.687988 468.558716,162.083603 
	C468.255341,162.789795 468.172638,163.410461 468.154938,164.419312 
	C467.774902,166.538101 467.329834,168.268677 466.662598,170.093857 
	C466.345825,170.916473 466.251221,171.644516 466.148682,172.745438 
	C465.292725,176.143845 464.444733,179.169373 463.332092,182.211884 
	C463.001190,182.819092 462.934998,183.409302 462.880249,184.371140 
	C460.925751,190.161163 458.959808,195.579544 456.621399,201.118820 
	C455.845856,202.825119 455.442749,204.410538 455.078094,206.330551 
	C454.739655,207.443420 454.362732,208.221680 453.612610,208.999939 
	C452.492950,209.000153 451.746460,209.000381 450.768951,209.078857 
	C450.691925,209.771393 450.845978,210.385696 451.000000,211.000000 
	C451.000000,211.000000 451.000000,211.000610 451.104736,211.310974 
	C451.605560,212.132980 452.001617,212.644608 452.357239,213.499542 
	C451.672577,215.276199 451.028290,216.709534 450.038696,218.100494 
	C449.462463,218.038452 449.231506,218.018768 448.755402,217.827576 
	C447.666626,217.786453 446.823029,217.916870 445.979401,218.047287 
	C446.362152,219.130356 446.744904,220.213440 446.911987,221.558548 
	C441.843750,224.566940 436.991150,227.313293 431.791138,229.911362 
	C429.962860,229.509537 428.482056,229.256012 426.817261,229.150421 
	C426.398071,229.509537 426.188446,229.743637 425.873291,230.289917 
	C425.494293,231.385208 425.246460,232.191254 424.816467,233.252686 
	C424.459747,234.104477 424.285126,234.700882 423.954346,235.587524 
	C420.079498,238.436264 416.360840,240.994781 412.554199,243.441544 
	C412.391205,243.288834 412.316193,243.247879 412.241180,243.206924 
	C412.346466,243.350037 412.451752,243.493164 412.467285,243.957123 
	C408.303497,247.640823 404.229431,251.003708 399.920349,254.170898 
	C398.839935,255.049179 397.994568,256.123169 397.132721,257.156647 
	C397.116241,257.116119 397.197235,257.149261 396.844879,257.130219 
	C395.955139,257.879669 395.417755,258.648193 394.694855,259.716370 
	C390.137695,264.723938 385.766052,269.431793 381.133057,274.164490 
	C380.526978,274.777039 380.182251,275.364746 379.776459,276.238892 
	C378.972107,277.403992 378.228851,278.282593 377.093201,279.214600 
	C375.849579,281.000122 374.998322,282.732208 374.103912,284.778259 
	C373.685394,286.675110 373.310059,288.258026 373.154541,289.981903 
	C373.912903,289.405914 374.451385,288.688904 375.085205,287.647339 
	C380.064148,282.527222 384.947754,277.731750 390.194733,273.030518 
	C392.651123,273.442444 394.744141,273.760101 396.837158,274.077759 
	C396.814697,271.686401 396.792206,269.295074 396.924927,266.597107 
	C401.689850,262.787689 406.299561,259.284882 411.146423,256.009949 
	C412.625458,256.924316 413.867340,257.610779 415.928619,258.750183 
	C416.284943,255.839645 416.554291,253.639465 417.037384,251.232361 
	C418.419922,250.350311 419.588684,249.675186 421.115601,248.964966 
	C422.286407,248.207748 423.099091,247.485611 424.083679,246.506866 
	C425.159973,245.798889 426.064331,245.347549 427.011383,245.239807 
	C427.829956,248.394943 429.528320,248.084625 430.796539,246.271408 
	C431.633881,245.074219 431.554291,243.235703 432.104187,241.431793 
	C439.432343,236.510376 446.541504,231.841522 453.853943,227.394562 
	C454.655426,226.934906 455.253662,226.253372 456.064697,225.342743 
	C457.474701,224.288437 458.671875,223.463242 460.002838,222.969788 
	C461.855316,225.664810 463.588654,225.085236 464.651703,222.915665 
	C465.489594,221.205490 465.623993,219.150604 466.207031,216.966431 
	C467.640625,215.690994 468.938049,214.697968 470.560303,213.714386 
	C471.307190,213.021393 471.729218,212.318954 472.322540,211.329712 
	C473.634308,210.018127 474.774811,208.993347 476.267151,207.934753 
	C477.408051,206.921158 478.197052,205.941391 479.092682,204.643616 
	C487.622620,193.669174 496.028534,182.998825 504.510468,172.389221 
	C505.045441,171.720047 506.172791,171.524460 506.854187,171.118805 
	C506.683777,171.129028 506.740448,171.339325 506.740448,171.339325 
	C506.740448,171.339325 507.204437,171.219070 506.763672,171.282440 
	C508.405853,167.847916 510.488800,164.350006 512.912598,160.854202 
	C513.787659,159.794128 514.321838,158.731949 514.900391,157.330933 
	C517.251892,153.209381 519.559021,149.426651 521.894043,145.909164 
	C522.231567,146.605469 522.541199,147.036514 522.850769,147.467560 
	C522.698303,146.563110 522.545776,145.658661 522.453735,144.412811 
	C523.319763,142.706024 524.125305,141.340637 525.314331,140.050568 
	C526.966614,140.121704 528.235352,140.117493 529.646362,140.122772 
	C529.788574,140.132233 529.928955,140.380356 529.797607,140.728973 
	C529.477295,143.994720 530.612549,143.848190 532.719543,142.350159 
	C536.549194,144.889023 540.035156,147.326431 543.521057,149.763840 
	C542.532043,155.644958 541.543030,161.526062 540.030762,167.819031 
	C539.395020,169.291946 539.282532,170.353012 539.170044,171.414093 
	C538.140076,175.706192 537.110107,179.998291 535.687500,184.732117 
	C535.233398,185.796539 535.171875,186.419220 535.110413,187.041931 
	C533.829956,190.846176 532.549438,194.650421 531.007080,198.319366 
	C530.745300,198.184052 530.734070,198.366608 530.734070,198.366608 
	C530.734070,198.366608 530.911194,197.965317 530.911194,197.965317 
	C530.200134,201.111679 529.489014,204.258041 528.178345,207.733627 
	C524.295715,208.848404 525.036011,210.314743 526.917053,211.974106 
	C525.636169,215.432022 524.355286,218.889938 522.596558,222.849289 
	C521.795898,224.388428 521.473022,225.426147 521.150146,226.463867 
	C519.844238,229.774246 518.538391,233.084641 516.742126,236.852295 
	C515.874268,238.314270 515.496765,239.319000 515.119263,240.323730 
	C513.022766,245.113068 510.926270,249.902405 508.319580,254.795547 
	C507.815521,255.240158 507.821655,255.580948 507.827820,255.921753 
	C506.967133,257.756012 506.106445,259.590240 504.713623,261.886688 
	C503.977844,263.161041 503.774139,263.973206 503.570435,264.785339 
	C499.027466,273.262756 494.484497,281.740173 489.708832,290.563538 
	C489.476135,290.909454 489.014648,291.004852 488.706482,290.949463 
	C482.331177,290.432159 487.188934,293.987701 486.873199,295.746826 
	C487.565063,294.906097 488.256927,294.065369 489.229858,293.084290 
	C489.817596,292.403351 490.124237,291.862732 490.430847,291.322144 
	C501.324493,281.380310 511.836975,270.970551 523.253662,261.670868 
	C530.187195,256.023010 538.645813,252.451950 548.123779,252.992233 
	C549.214844,253.054428 550.292969,253.343124 551.473511,253.543121 
	C549.080688,258.432892 546.842773,263.006042 544.005981,267.942200 
	C540.784851,271.159882 540.698486,274.315216 542.296692,277.670319 
	C542.495911,280.519684 542.695190,283.369049 542.541626,286.769775 
	C540.045837,289.779175 541.703430,291.029816 543.727478,292.164001 
	C547.306946,302.985596 553.541077,311.740234 563.779541,318.171021 
	C564.668274,321.117554 565.422363,323.130127 567.998169,320.226837 
	C569.872620,320.862213 571.747009,321.497589 573.917603,322.715820 
	C574.473938,325.101898 574.734070,326.905121 574.994141,328.708344 
	C572.330566,330.344879 569.516113,331.781281 567.031189,333.654816 
	C559.045166,339.676117 557.044434,347.561035 560.901978,356.894623 
	C561.405273,358.112305 561.871826,359.345215 562.447144,361.234314 
	C563.112793,362.565857 563.686646,363.234100 564.260498,363.902344 
	C569.216187,369.321289 574.171875,374.740234 579.086853,380.661255 
	C578.054810,385.111755 580.863403,382.705444 582.072937,382.973267 
	C583.856262,384.347473 585.639526,385.721680 587.374390,387.449921 
	C587.111633,388.226196 586.897339,388.648438 586.683105,389.070679 
	C587.486572,388.970428 588.290039,388.870148 589.093506,388.769867 
	C591.545105,390.471954 593.996765,392.174072 596.717163,394.514404 
	C596.941711,396.278351 596.897522,397.404053 596.853271,398.529724 
	C591.410706,396.533600 585.968140,394.537476 580.182861,392.047180 
	C579.202332,391.429993 578.564636,391.306976 577.926880,391.183960 
	C568.750854,387.753082 559.574890,384.322235 550.127686,380.339264 
	C549.545044,379.151337 549.233582,378.515533 548.922058,377.879730 
	C548.235901,378.372406 547.549744,378.865082 546.863586,379.357758 
	C541.483948,377.839874 536.104248,376.321991 530.261841,374.420898 
	C529.200928,374.020782 528.602661,374.003876 528.004456,373.986938 
	C520.643799,373.241577 513.283142,372.496185 505.312012,371.409363 
	C503.466492,371.284454 502.231415,371.500977 500.996338,371.717529 
	C484.353210,374.591675 474.897491,385.805664 468.281708,400.151825 
	C461.506226,414.844299 459.036377,430.556396 458.341736,446.531586 
	C458.129242,451.418610 459.235321,456.430725 460.229462,461.284790 
	C461.392120,466.961548 465.350708,469.991119 471.087311,469.086029 
	C477.774170,468.030975 484.318756,466.084564 490.939362,464.588074 
	C491.985962,464.351501 493.107697,464.447479 494.194702,464.389648 
	C494.488281,464.785767 494.781891,465.181915 495.075500,465.578033 
	C491.444855,469.220551 488.101807,473.217957 484.128448,476.437531 
	C473.204071,485.289398 460.569031,487.166077 447.022888,484.664764 
	C443.436340,484.002502 439.824738,483.388794 436.196777,483.070770 
	C434.005554,482.878723 431.760651,483.298615 428.324921,483.522797 
	C435.509155,490.199432 443.003784,493.145325 451.150970,494.024200 
	C463.696381,495.377533 476.305511,496.138763 488.886505,497.165161 
	C489.799500,497.239685 490.703278,497.427338 492.122772,497.638428 
	C451.888672,520.178772 392.273285,514.204407 356.998291,463.322571 
	C357.141632,462.874542 357.350555,462.688263 357.350555,462.688232 
	C368.959442,462.869293 380.578735,463.398193 392.171814,463.050842 
	C396.475525,462.921906 401.044952,461.372314 404.924011,459.368652 
	C414.890900,454.220459 417.337769,444.357483 412.313354,431.775146 
	C411.090485,428.712830 409.605743,425.755096 408.104828,422.448395 
	C412.420776,421.584412 416.586456,420.904236 420.674103,419.904846 
	C436.177002,416.114563 445.323273,405.792328 450.227814,391.058380 
	C455.289124,375.853424 456.101440,360.172119 455.974182,343.663483 
	C451.191498,343.110718 446.503876,342.222839 441.794495,342.086761 
	C424.829315,341.596558 407.880524,341.647736 391.274841,345.981476 
	C376.593903,349.812958 362.926758,355.526947 352.509094,367.132355 
	C343.303833,377.387115 339.834747,391.864471 350.040771,403.628784 
	C350.439362,404.088226 350.676941,404.687408 351.168640,405.527435 
	C344.325745,406.365051 337.809509,406.948822 331.369659,408.000366 
	C321.344757,409.637238 311.345795,411.643036 303.570374,418.941010 
	C297.473877,424.663116 295.747559,431.856201 297.714935,439.849609 
	C299.174011,445.777771 301.016876,451.611450 302.776642,457.795959 
	C301.895844,457.795959 300.783142,458.044952 299.831085,457.759064 
	C281.933716,452.385284 265.389496,444.612000 252.399109,430.648895 
	C240.571716,417.935822 234.862549,402.659973 234.254105,385.524323 
	C233.456940,363.074097 240.061340,342.376648 250.617691,321.193298 
	C251.113068,326.286560 251.408920,330.066010 251.864197,333.826172 
	C252.459671,338.744598 252.695328,343.774872 253.940384,348.533447 
	C257.535126,362.272247 265.458069,366.936462 279.794067,364.066803 
	C283.062225,364.825409 285.601837,365.659119 288.198059,365.912109 
	C291.651398,366.248596 292.426880,364.090363 290.844543,361.555573 
	C289.680420,359.690796 287.602356,358.396545 285.931580,356.848053 
	C287.515717,349.094452 289.099823,341.340851 290.657532,333.716522 
	C292.802795,335.278564 295.126282,336.970367 297.796143,339.100647 
	C298.756348,339.709198 299.370178,339.879272 299.983978,340.049347 
	C304.343536,339.630127 308.703125,339.210907 313.567993,339.003204 
	C314.715637,338.823425 315.358002,338.432098 316.000366,338.040771 
	C318.433197,336.714569 320.865997,335.388397 323.968018,334.218689 
	C326.381561,334.545013 328.234619,335.148834 329.835785,334.747498 
	C331.118652,334.425964 332.095612,332.883942 333.208313,331.883545 
	C332.152466,331.130493 331.096588,330.377472 330.040741,329.624420 
	C334.142334,325.480896 338.243896,321.337372 342.790955,317.242615 
	C343.820526,316.183746 344.404663,315.076141 344.988831,313.968506 
	C344.939667,313.631958 345.028870,313.337311 345.731598,312.942352 
	C346.417694,312.179138 346.628662,311.558197 346.839600,310.937225 
	C347.107910,310.213470 347.376190,309.489716 347.733948,308.194641 
	C347.252411,305.843903 346.544983,304.638031 345.000549,306.951965 
	C343.524109,306.379608 342.047668,305.807251 340.202881,304.656494 
	C338.535522,303.711884 337.236511,303.345734 335.937531,302.979553 
	C331.993439,300.649170 327.851562,298.586090 324.188416,295.875946 
	C322.349335,294.515289 319.664337,292.512390 322.610596,289.374054 
	C324.593384,290.775208 326.000061,292.146088 327.406769,293.516968 
	C327.679169,291.633545 327.994568,289.754791 328.199799,287.864075 
	C328.268433,287.231812 328.055573,286.569000 327.971375,285.920135 
	C329.443451,285.013794 330.915558,284.107452 332.855896,283.469513 
	C334.036469,284.990570 334.748810,286.243256 335.461151,287.495911 
	C336.048859,287.187073 336.636566,286.878265 337.224274,286.569427 
	C336.477203,285.044037 335.730133,283.518616 334.983063,281.993195 
	C340.142151,278.866119 345.301270,275.739014 351.183228,272.611877 
	C354.770294,273.249054 356.012421,271.934265 356.049103,269.168915 
	C365.771271,261.758911 375.493408,254.348938 385.762115,246.967606 
	C386.866730,246.196167 387.424774,245.396072 387.982849,244.595963 
	C388.258636,244.444946 388.534424,244.293930 389.182434,244.451782 
	C389.983459,244.705399 390.412323,244.650146 390.841187,244.594894 
	C390.819916,244.471985 390.798645,244.349075 390.777405,244.226151 
	C390.147522,244.305435 389.517670,244.384735 388.887817,244.464020 
M308.456421,373.296478 
	C311.895050,372.587616 315.333679,371.878784 319.080353,371.106445 
	C318.265045,370.252808 317.632751,369.590759 316.840881,368.327209 
	C315.824005,368.066772 314.807098,367.806366 312.998230,367.325836 
	C303.810242,365.437103 295.086182,365.589600 287.409637,373.067047 
	C287.225006,373.788086 287.040375,374.509094 286.623535,376.026917 
	C284.713776,381.680389 285.119568,387.258820 286.747711,392.729065 
	C290.493408,388.369232 294.083954,384.189941 298.442108,379.918976 
	C299.236115,379.087738 300.030121,378.256500 301.283844,376.981903 
	C302.805878,376.198944 304.327911,375.415955 306.225952,374.978424 
	C306.806335,374.621765 307.386719,374.265106 308.456421,373.296478 
M421.343781,288.881714 
	C427.254791,282.140625 433.165802,275.399536 439.076813,268.658478 
	C419.393707,276.709473 402.175323,287.753754 389.816986,305.604553 
	C396.440033,306.064636 402.378632,306.632324 408.327118,306.767700 
	C409.613525,306.796997 411.413574,305.576263 412.157288,304.409027 
	C415.258209,299.542114 418.046326,294.475830 421.343781,288.881714 
M503.487518,286.642670 
	C505.189056,286.074280 507.329346,285.920929 508.416687,284.771515 
	C509.006470,284.148071 507.803101,281.828308 507.408569,280.273682 
	C506.808594,280.185791 506.208618,280.097870 505.608673,280.009979 
	C504.728882,282.080719 503.849121,284.151428 503.487518,286.642670 
M517.525818,228.499237 
	C517.525818,228.499237 517.486877,228.513229 517.525818,228.499237 
M568.500854,329.525604 
	C568.500854,329.525604 568.487122,329.486877 568.500854,329.525604 
M395.474213,240.500763 
	C395.474213,240.500763 395.513123,240.486786 395.474213,240.500763 
M521.500793,219.526047 
	C521.500793,219.526047 521.486633,219.486847 521.500793,219.526047 
z"/>
<path fill="#FEFEFE" opacity="1.000000" stroke="none" 
	d="
M1314.978394,260.980438 
	C1332.413452,254.046295 1349.475830,247.207123 1366.999023,240.183228 
	C1366.999023,250.191116 1367.134888,259.513947 1366.849731,268.823914 
	C1366.807861,270.193817 1365.035400,272.166046 1363.611816,272.740540 
	C1340.533691,282.054810 1317.382568,291.188171 1293.276245,300.747742 
	C1293.276245,307.528961 1293.146851,314.667450 1293.307861,321.799377 
	C1293.525024,331.418671 1296.493408,334.272125 1305.846680,334.273865 
	C1324.676758,334.277344 1343.506958,334.274689 1362.337036,334.274536 
	C1364.120850,334.274536 1365.904541,334.274536 1368.494141,334.274536 
	C1365.328247,342.278503 1362.447510,349.561310 1359.490234,357.037750 
	C1337.871704,357.037750 1316.385986,357.034760 1294.900269,357.039886 
	C1289.635986,357.041138 1284.361084,357.290253 1279.109375,357.040283 
	C1266.710449,356.450073 1257.448730,345.753082 1256.004272,332.258240 
	C1255.448364,327.064636 1255.399170,321.816803 1255.082520,315.909515 
	C1237.531372,322.806213 1219.641724,329.835907 1201.199951,337.082550 
	C1201.199951,327.266235 1201.051514,318.139374 1201.356689,309.027740 
	C1201.403564,307.631317 1203.274292,305.653290 1204.753662,305.046234 
	C1220.710449,298.498413 1236.776245,292.216797 1252.746582,285.701263 
	C1254.066772,285.162689 1255.825439,283.455322 1255.834229,282.279388 
	C1255.989380,261.619415 1255.905151,240.957596 1255.852905,220.296219 
	C1255.852173,220.009399 1255.595337,219.723221 1255.228638,218.958023 
	C1241.829346,218.958023 1228.208740,218.857513 1214.595215,219.125397 
	C1213.339966,219.150085 1211.542969,221.308701 1210.989380,222.835983 
	C1203.597290,243.227356 1196.372314,263.679382 1189.125610,284.123322 
	C1180.985107,307.088959 1172.840820,330.053345 1164.765015,353.041779 
	C1163.768555,355.878387 1162.379639,357.183197 1159.062256,357.105774 
	C1148.245117,356.853363 1137.418457,357.011169 1125.943604,357.011169 
	C1142.200562,310.930634 1158.306763,265.276978 1174.611206,219.061844 
	C1157.748169,219.061844 1141.794922,219.061844 1125.421997,219.061844 
	C1125.421997,210.048584 1125.421997,201.329697 1125.421997,192.118973 
	C1144.652832,192.118973 1164.058228,192.118973 1183.697388,192.118973 
	C1187.262451,181.748779 1190.853760,171.785660 1194.064941,161.701569 
	C1195.203491,158.126694 1196.844604,156.794693 1200.717163,156.897018 
	C1211.695557,157.187149 1222.686523,156.998657 1234.410400,156.998657 
	C1230.234497,168.800262 1226.229248,180.119888 1222.111084,191.758148 
	C1257.582153,191.758148 1292.393921,191.758148 1327.882935,191.758148 
	C1325.368164,183.140884 1322.905396,174.701477 1320.282593,165.713684 
	C1331.203735,165.713684 1341.511353,165.643295 1351.814697,165.818314 
	C1352.891479,165.836578 1354.587158,167.104248 1354.911011,168.133484 
	C1360.079468,184.559021 1365.072876,201.039703 1370.085938,217.513992 
	C1370.172974,217.799789 1370.008667,218.162125 1369.890259,218.983307 
	C1344.731323,218.983307 1319.500366,218.983307 1294.015625,218.983307 
	C1294.015625,235.883942 1294.015625,252.289932 1294.015625,269.440765 
	C1301.163452,266.536774 1307.884521,263.806091 1314.978394,260.980438 
z"/>
<path fill="#FEFEFE" opacity="1.000000" stroke="none" 
	d="
M451.031464,139.991760 
	C435.306274,139.307999 419.533966,137.898392 403.788849,138.155716 
	C375.263123,138.621933 347.403503,143.717087 320.549438,153.517746 
	C287.812103,165.465561 259.687775,184.321869 236.466019,210.423203 
	C221.821686,226.883514 208.717697,244.381134 198.974487,264.244141 
	C189.309387,283.947876 182.710068,304.629333 181.130478,326.533203 
	C179.853012,344.247742 179.748581,362.052490 179.345123,379.822235 
	C179.120773,389.702728 176.747894,398.844757 171.162796,407.022888 
	C163.944839,417.591949 153.440277,419.159668 143.206528,411.460114 
	C133.411453,404.090576 127.767242,394.300018 125.750000,382.301514 
	C122.787704,364.681793 122.371368,347.040039 129.286102,330.318848 
	C131.981094,323.801849 137.683060,318.542175 141.934479,312.651398 
	C146.977402,305.663879 152.469055,298.925079 156.783234,291.506805 
	C161.565948,283.282898 158.005341,278.535645 148.491501,277.768616 
	C133.105820,276.528168 125.422874,289.835938 122.140755,301.617706 
	C121.210312,304.957672 120.624283,308.393616 119.683617,312.682281 
	C113.528175,301.035950 112.503433,289.512848 118.591324,279.007721 
	C124.264664,269.217987 132.100677,260.660004 139.178772,251.713333 
	C144.123108,245.463745 149.789917,239.754974 154.405624,233.285004 
	C158.778732,227.155045 160.210434,220.086838 155.804474,213.202698 
	C153.449112,209.522537 154.719131,207.418350 157.910675,205.723267 
	C164.932602,201.993805 172.056381,198.455368 179.062302,194.696747 
	C186.003952,190.972626 192.513367,186.631973 196.509247,179.543884 
	C201.228958,171.171860 197.396561,164.438354 187.791046,165.152496 
	C182.924393,165.514297 178.214600,167.986359 173.499847,169.483414 
	C171.947174,162.834259 174.841995,157.214676 182.513809,155.887756 
	C191.300659,154.367981 200.274689,153.818100 209.191452,153.186508 
	C225.020477,152.065262 239.453400,146.650681 253.743835,140.120651 
	C284.331573,126.143562 316.382721,118.012337 350.102386,115.791595 
	C384.940063,113.497223 418.580383,118.359543 452.156433,129.677338 
	C452.179962,133.327286 451.556213,136.701431 450.932434,140.075562 
	C450.932434,140.075562 450.996582,140.017410 451.031464,139.991760 
z"/>
<path fill="#FDFDFD" opacity="1.000000" stroke="none" 
	d="
M453.994507,108.015869 
	C439.335266,106.341873 424.695587,104.462029 410.009918,103.066101 
	C400.185699,102.132286 391.110840,99.475258 383.245026,93.453041 
	C377.670776,89.185303 372.802643,84.041725 374.087708,76.381874 
	C374.766357,72.336769 376.531250,68.001183 379.088409,64.831581 
	C387.126556,54.868164 398.023865,50.110680 410.754883,49.196487 
	C425.170990,48.161285 439.217102,49.770176 453.048615,53.987576 
	C460.605164,56.291660 466.720367,60.444912 472.211151,66.040794 
	C479.193329,73.156677 486.539520,79.921936 493.873535,86.681328 
	C495.673584,88.340347 497.921906,89.634964 500.161041,90.671974 
	C506.098694,93.421913 510.484222,91.095779 512.004272,84.616562 
	C514.328430,74.709618 511.100494,65.331833 502.304291,59.967045 
	C495.598907,55.877407 488.152008,53.003616 481.451172,49.788609 
	C492.882111,44.901569 505.304962,45.400528 515.877991,53.642857 
	C525.353027,61.029263 533.273621,70.402458 541.933533,78.844208 
	C547.266174,84.042458 552.406006,89.499741 558.174011,94.172005 
	C563.392578,98.399193 569.658142,99.353157 575.917480,96.084312 
	C579.518127,94.203911 581.553040,95.425987 582.917114,98.810593 
	C586.194580,106.943359 588.984741,115.320190 592.903564,123.130943 
	C595.752686,128.809631 599.637268,134.155563 603.929382,138.856079 
	C606.668518,141.855728 610.760742,144.730881 615.506531,142.268692 
	C619.606506,140.141571 621.973694,132.763702 620.344849,127.699944 
	C619.288574,124.416145 617.868469,121.249382 616.622559,118.058662 
	C626.078796,117.582619 630.729736,121.950653 630.911377,132.397415 
	C631.032410,139.361221 630.322571,146.337128 630.059875,153.310440 
	C629.463745,169.139008 633.379700,184.078613 637.899475,199.141891 
	C643.115295,216.524658 647.287537,234.285995 650.767334,252.106674 
	C654.644714,271.962921 654.125610,292.247375 652.551331,312.283508 
	C650.250610,341.565125 642.893616,369.791046 630.524780,396.497040 
	C625.726318,406.857574 619.728027,416.664062 614.223877,426.694153 
	C613.540527,427.939331 612.533142,429.006714 610.860962,431.249725 
	C613.280212,421.917358 615.863892,414.044006 617.300903,405.966644 
	C620.196838,389.688263 623.227661,373.370239 624.773376,356.934143 
	C626.168701,342.097382 626.756714,327.009430 625.784241,312.157776 
	C622.720764,265.371979 608.870483,222.263000 578.186401,185.898621 
	C568.138367,173.990570 556.507080,163.417328 545.566711,152.266190 
	C544.898010,151.584610 543.936951,151.189911 543.456238,149.888641 
	C547.132874,129.281555 547.129700,109.418602 544.403931,89.462822 
	C543.640259,90.250175 543.291992,91.100494 543.000244,91.969742 
	C539.685120,101.844818 536.668579,111.833496 532.956055,121.556534 
	C530.884338,126.982239 527.659668,131.967712 524.850037,136.817627 
	C516.940125,132.108276 509.427490,127.052994 501.253754,123.532867 
	C491.455811,119.313263 481.093781,116.403374 470.995758,112.839203 
	C471.015472,112.752068 471.037811,112.574806 471.031250,112.107132 
	C469.552826,98.810837 466.175201,86.482147 461.527893,73.731834 
	C460.107330,85.375046 458.788422,96.185204 457.156799,107.002121 
	C455.894226,107.344543 454.944366,107.680206 453.994507,108.015869 
z"/>
<path fill="#FDFDFD" opacity="1.000000" stroke="none" 
	d="
M1051.000000,357.029022 
	C1007.388550,357.029022 964.277100,357.029022 920.947266,357.029022 
	C920.947266,347.882599 920.947266,339.271698 920.947266,330.054993 
	C925.030701,330.054993 929.091309,330.054993 933.564087,330.054993 
	C933.564087,295.857788 933.564087,262.259735 933.564087,228.328033 
	C946.407288,228.328033 958.833557,228.328033 971.832031,228.328033 
	C971.832031,261.885773 971.832031,295.598358 971.832031,329.621063 
	C978.464966,329.621063 984.531494,329.621063 990.960327,329.621063 
	C990.960327,281.485321 990.960327,233.450394 990.960327,184.933487 
	C967.658325,184.933487 944.572205,184.933487 921.117432,184.933487 
	C921.117432,175.724869 921.117432,166.987915 921.117432,157.835541 
	C977.160461,157.835541 1033.198120,157.835541 1089.645874,157.835541 
	C1089.645874,166.598846 1089.645874,175.322876 1089.645874,184.644501 
	C1069.968018,184.644501 1050.239868,184.644501 1030.183838,184.644501 
	C1030.183838,199.296112 1030.183838,213.360107 1030.183838,227.927673 
	C1049.962036,227.927673 1069.701416,227.927673 1089.731201,227.927673 
	C1089.731201,237.149887 1089.731201,245.874176 1089.731201,254.986847 
	C1069.980347,254.986847 1050.382202,254.986847 1030.322021,254.986847 
	C1030.322021,280.046814 1030.322021,304.725555 1030.322021,329.770691 
	C1049.983521,329.770691 1069.597534,329.770691 1089.634277,329.770691 
	C1089.634277,338.840027 1089.634277,347.562744 1089.634277,357.029022 
	C1077.016235,357.029022 1064.258057,357.029022 1051.000000,357.029022 
z"/>
<path fill="#FDFDFE" opacity="1.000000" stroke="none" 
	d="
M542.705261,533.788696 
	C568.044678,521.797974 589.215881,504.929810 607.673462,484.495605 
	C621.771606,468.887665 634.111084,452.102722 643.152710,432.974304 
	C651.077026,416.209686 656.729065,398.736145 658.843018,380.372833 
	C660.585388,365.237305 661.043091,349.951508 661.984253,334.726990 
	C662.639587,324.126587 664.685486,314.024658 671.332947,305.325409 
	C678.459656,295.999054 687.897034,294.502563 697.413757,301.256531 
	C708.005310,308.773254 713.457703,319.482574 714.737488,331.940002 
	C716.373291,347.863617 716.696716,364.106720 709.874207,378.982880 
	C706.591125,386.141479 700.424011,391.984802 695.518982,398.390106 
	C690.484802,404.963989 684.929565,411.195770 680.462219,418.131134 
	C675.854614,425.284210 679.433105,430.957642 688.005310,431.709229 
	C698.496155,432.629028 705.725342,427.529297 710.347168,418.929901 
	C713.598755,412.879974 715.459473,406.082520 717.764526,400.079010 
	C723.753235,409.058502 723.185669,425.054779 714.445618,436.393890 
	C707.180420,445.819702 698.301514,453.988098 690.362366,462.913605 
	C686.089355,467.717468 681.962891,472.721802 678.373047,478.042358 
	C675.185669,482.766510 675.310974,488.176422 678.059570,493.200592 
	C680.187256,497.089691 678.937317,499.484741 675.313782,501.200378 
	C667.071899,505.102570 658.451111,508.374298 650.695862,513.075989 
	C645.335876,516.325500 640.317566,520.928955 636.669189,526.018799 
	C631.702881,532.947510 635.614319,538.220093 643.835693,538.757568 
	C649.061768,539.099182 654.483215,536.450317 659.664246,535.179871 
	C660.155762,542.797424 656.299194,547.946167 647.793518,548.669800 
	C638.851990,549.430420 629.848145,549.474670 620.869812,549.782837 
	C606.698486,550.269470 593.586609,554.722412 580.611572,560.033569 
	C557.791016,569.374695 534.119263,575.309204 509.565308,578.238098 
	C486.408630,581.000244 463.406372,580.522278 440.489899,576.937073 
	C411.097443,572.338806 383.187469,563.110474 357.233063,548.353333 
	C356.429810,547.896606 355.782532,547.165527 355.194092,546.672546 
	C367.886230,548.872742 380.534576,551.490295 393.305542,553.183167 
	C414.426758,555.983032 435.610260,556.822021 456.962158,555.221191 
	C477.762421,553.661804 498.094940,550.197571 517.850098,543.645020 
	C526.176941,540.883057 534.198792,537.201965 542.705261,533.788696 
z"/>
<path fill="#FEFEFE" opacity="1.000000" stroke="none" 
	d="
M287.754242,529.258362 
	C316.702393,557.476685 350.952240,574.451721 390.405090,580.937866 
	C401.354584,582.737976 412.404144,583.930908 423.409637,585.388611 
	C433.010834,586.660278 441.782837,589.922058 448.915253,596.648987 
	C458.743317,605.918274 458.404938,616.877014 448.335663,625.929688 
	C439.666351,633.723694 429.585541,637.423157 417.917694,637.604370 
	C402.954163,637.836731 388.267242,636.281555 374.691711,629.843445 
	C369.183777,627.231384 364.421112,622.739319 359.852814,618.524475 
	C352.411041,611.658447 345.552856,604.161743 338.147614,597.253601 
	C335.154633,594.461548 331.289124,591.765015 326.923615,593.882996 
	C322.501373,596.028503 322.149719,600.648743 321.770020,605.054260 
	C320.877655,615.409058 326.504364,622.103821 334.579376,626.960632 
	C339.776276,630.086365 345.594025,632.179932 351.269775,634.799011 
	C336.802856,640.237122 323.787201,637.013855 313.016876,626.657898 
	C304.303284,618.279541 296.962799,608.488464 288.759094,599.557556 
	C285.072571,595.544312 281.064575,591.686096 276.658875,588.512207 
	C272.020538,585.170715 266.568970,584.226013 261.111176,587.039062 
	C257.642242,588.826965 255.416733,587.835083 254.120758,584.302185 
	C250.984863,575.753540 248.385834,566.954590 244.540878,558.738281 
	C242.002213,553.313416 238.127289,548.293396 233.959686,543.946289 
	C231.942352,541.842102 226.752258,539.940979 224.986191,541.066528 
	C221.957443,542.996765 219.059494,547.237976 218.723801,550.758484 
	C218.298187,555.221741 220.485977,559.934204 221.521637,564.430054 
	C213.999527,564.910706 209.181076,561.036621 209.083984,552.914062 
	C208.988861,544.956543 209.496597,536.977478 210.050171,529.029541 
	C211.045746,514.735352 208.934616,500.929016 204.472031,487.361115 
	C192.343399,450.485626 188.778824,412.577026 193.208420,374.195099 
	C197.619370,335.974670 210.182434,300.311584 231.180801,267.843353 
	C232.767715,265.389587 234.604019,263.097137 236.742966,260.153687 
	C233.307098,273.075378 229.360565,285.049652 227.046371,297.331512 
	C224.011566,313.437958 221.880325,329.743866 220.048889,346.041351 
	C216.936447,373.737946 219.680862,401.147614 226.489609,428.039612 
	C234.230911,458.614868 248.549194,485.957397 269.467621,509.680603 
	C275.292877,516.286926 281.482086,522.572388 287.754242,529.258362 
z"/>
<path fill="#FEFEFE" opacity="1.000000" stroke="none" 
	d="
M1846.000000,357.011871 
	C1825.336670,357.009918 1805.172974,356.942871 1785.010010,357.034790 
	C1775.620117,357.077576 1767.156738,355.091370 1763.059082,345.675323 
	C1761.199097,341.401367 1760.208496,336.411346 1760.172485,331.735779 
	C1759.930420,300.243652 1760.049805,268.748749 1760.065552,237.254730 
	C1760.065674,236.949081 1760.250244,236.643524 1760.446167,236.035553 
	C1812.400757,236.035553 1864.439331,236.035553 1916.946655,236.035553 
	C1916.946655,251.468384 1917.345703,266.771210 1916.741333,282.034332 
	C1916.514160,287.773071 1914.875000,293.886536 1912.265137,299.006134 
	C1907.558350,308.239258 1899.349243,313.001892 1888.765503,313.052795 
	C1879.433960,313.097626 1870.099854,312.945435 1860.771729,313.125641 
	C1858.009399,313.178955 1856.622192,312.241760 1855.506348,309.778442 
	C1852.044800,302.135437 1848.345337,294.600189 1844.180054,285.850739 
	C1854.997559,285.850739 1864.754395,285.912842 1874.509644,285.809723 
	C1877.146973,285.781891 1879.805908,285.399445 1882.406860,284.919586 
	C1885.905762,284.273987 1888.024292,282.110229 1888.102905,278.452972 
	C1888.209473,273.487762 1888.129272,268.518524 1888.129272,263.256348 
	C1858.797119,263.256348 1829.919800,263.256348 1800.504883,263.256348 
	C1800.504883,265.163330 1800.505005,266.786713 1800.505005,268.410126 
	C1800.504883,285.740631 1800.495361,303.071136 1800.509277,320.401642 
	C1800.515015,327.565033 1803.213379,330.317413 1810.406982,330.323212 
	C1849.733887,330.355011 1889.060791,330.350464 1928.387695,330.358337 
	C1930.375610,330.358734 1932.363647,330.358398 1935.204956,330.358398 
	C1931.269775,339.105682 1927.699219,347.380188 1923.726440,355.456940 
	C1923.213623,356.499725 1920.620483,356.941833 1918.988281,356.948059 
	C1894.825806,357.040314 1870.662842,357.011780 1846.000000,357.011871 
z"/>
<path fill="#FEFEFE" opacity="1.000000" stroke="none" 
	d="
M1641.829590,262.928070 
	C1645.047485,262.530121 1646.150024,263.515076 1646.052856,266.458588 
	C1645.849609,272.618195 1646.323730,278.815155 1645.844238,284.943939 
	C1645.627563,287.714172 1644.428345,290.927765 1642.592041,292.963226 
	C1633.374268,303.180389 1623.804565,313.080261 1614.336914,323.071136 
	C1613.579590,323.870300 1612.659424,324.515076 1610.557617,326.298340 
	C1624.159668,327.102051 1636.322266,327.820740 1648.712402,328.552826 
	C1648.712402,337.895844 1648.712402,347.150543 1648.712402,357.044067 
	C1641.169189,356.639374 1633.725220,356.588501 1626.366211,355.772888 
	C1610.884277,354.057129 1595.438477,352.004181 1579.995605,349.955902 
	C1573.920654,349.150116 1567.903076,347.261841 1561.841431,347.178772 
	C1555.011353,347.085236 1548.149414,348.379364 1541.321655,349.231842 
	C1526.356323,351.100281 1511.420166,353.211914 1496.440063,354.947723 
	C1487.234009,356.014465 1477.968628,356.570221 1468.378418,357.385284 
	C1468.378418,347.414307 1468.378418,338.160461 1468.378418,328.556183 
	C1480.696167,327.776672 1493.053955,326.994598 1506.690918,326.131622 
	C1494.063354,315.489655 1482.418213,305.543304 1472.902954,292.015900 
	C1483.443848,292.015900 1493.067871,292.692352 1502.552246,291.831116 
	C1512.617676,290.917145 1519.983521,293.427734 1526.291016,301.852478 
	C1533.133057,310.991364 1542.736572,317.351654 1553.396973,321.659851 
	C1555.820068,322.639099 1559.417969,323.412262 1561.411499,322.326874 
	C1577.449707,313.594360 1590.694580,301.380707 1604.094604,287.247406 
	C1559.225464,287.247406 1515.713989,287.247406 1471.262451,287.247406 
	C1474.337036,280.150085 1477.126221,273.858307 1479.795654,267.516083 
	C1484.106934,257.273224 1488.452637,247.041840 1492.528687,236.705032 
	C1493.604736,233.976105 1494.840942,232.870575 1497.888672,232.923309 
	C1509.140869,233.118027 1520.398438,233.000732 1532.240845,233.000732 
	C1528.044067,243.131424 1524.133179,252.572037 1519.843262,262.927673 
	C1560.630249,262.927673 1600.989014,262.927673 1641.829590,262.928070 
z"/>
<path fill="#FDFDFD" opacity="1.000000" stroke="none" 
	d="
M897.525757,420.519348 
	C897.936707,419.961060 898.203613,419.724121 898.331482,419.427307 
	C902.997437,408.596039 911.746582,406.648865 922.386658,407.746338 
	C926.118469,408.131226 927.099854,409.085480 927.077576,412.718231 
	C926.931519,436.543976 927.001587,460.371002 927.001160,484.197632 
	C927.001160,485.174683 927.001221,486.151733 927.001221,488.376953 
	C934.389709,478.363220 941.116638,469.272552 947.815491,460.161255 
	C959.796448,443.865631 971.711853,427.521271 983.809814,411.313080 
	C984.961792,409.769806 987.149597,408.226654 988.960938,408.092255 
	C994.573425,407.675964 1000.236389,407.940063 1006.326904,407.940063 
	C1006.462891,409.911377 1006.670532,411.525604 1006.671570,413.139984 
	C1006.694336,449.463074 1006.613831,485.786560 1006.797668,522.108765 
	C1006.821472,526.800293 1005.363403,528.231873 1000.812866,527.917480 
	C995.525940,527.552368 990.194519,527.832397 984.304871,527.832397 
	C984.304871,501.290375 984.304871,475.090820 984.304871,448.891296 
	C983.965271,448.770966 983.625671,448.650604 983.286072,448.530273 
	C981.688599,450.692139 980.049805,452.824860 978.499939,455.020355 
	C962.424744,477.792755 946.315063,500.541199 930.354736,523.393860 
	C928.112366,526.604614 925.581116,528.116516 921.667480,527.864624 
	C917.851074,527.619019 913.985107,527.560181 910.179932,527.881714 
	C906.003601,528.234680 904.739685,526.701782 904.770813,522.552124 
	C904.941956,499.726501 904.859680,476.898987 904.864319,454.072113 
	C904.864685,452.429688 904.864319,450.787292 904.864319,447.551788 
	C902.787476,450.427643 901.477356,452.172882 900.238708,453.967438 
	C884.113403,477.328766 868.048096,500.732025 851.782349,523.995117 
	C850.536072,525.777588 847.949158,527.547913 845.888000,527.669312 
	C838.425171,528.108948 830.920715,527.842468 821.514954,527.842468 
	C847.295776,491.440826 872.306274,456.126831 897.525757,420.519348 
z"/>
<path fill="#FDFDFD" opacity="1.000000" stroke="none" 
	d="
M1475.066895,226.318497 
	C1472.606445,226.319107 1470.638062,226.319107 1468.364868,226.319107 
	C1468.364868,218.140167 1468.364868,210.393646 1468.364868,202.082153 
	C1491.803101,202.082153 1515.191650,202.082153 1538.838013,202.082153 
	C1538.838013,198.590698 1538.838013,195.646149 1538.838013,192.144714 
	C1517.907837,192.144714 1496.847412,192.144714 1475.375732,192.144714 
	C1475.375732,183.711807 1475.375732,175.818359 1475.375732,167.335358 
	C1496.331543,167.335358 1517.387573,167.335358 1538.819946,167.335358 
	C1538.989502,163.869019 1539.132080,160.956436 1539.288208,157.765076 
	C1552.177002,157.765076 1564.908691,157.765076 1577.957275,157.765076 
	C1577.957275,160.895828 1577.957275,163.689529 1577.957275,166.929230 
	C1598.191772,166.929230 1618.117188,166.929230 1638.431885,166.929230 
	C1638.431885,175.274399 1638.431885,183.178131 1638.431885,191.723633 
	C1618.500854,191.723633 1598.460205,191.723633 1578.183838,191.723633 
	C1578.183838,195.296448 1578.183838,198.246109 1578.183838,201.721252 
	C1601.468872,201.721252 1624.859619,201.721252 1648.602783,201.721252 
	C1648.602783,209.969559 1648.602783,217.706985 1648.602783,226.317886 
	C1590.996582,226.317886 1533.277710,226.317886 1475.066895,226.318497 
z"/>
<path fill="#FEFEFE" opacity="1.000000" stroke="none" 
	d="
M908.389282,222.506073 
	C904.765869,230.689529 901.322449,238.538345 897.605713,247.010056 
	C900.795227,247.010056 903.503357,247.010056 906.598877,247.010056 
	C906.598877,284.060883 906.598877,320.595642 906.598877,357.506836 
	C894.651550,357.506836 882.612671,357.506836 870.149597,357.506836 
	C870.149597,328.901489 870.149597,300.333679 870.149597,271.261932 
	C862.505432,271.261932 855.260559,271.261932 846.982788,271.261932 
	C854.063171,255.108704 860.796448,239.747375 867.845520,223.665588 
	C860.779968,223.665588 854.542847,223.665588 847.905212,223.665588 
	C848.087952,222.203613 847.991211,221.191666 848.348511,220.379440 
	C857.220947,200.211365 866.098694,180.045135 875.151123,159.957748 
	C875.741455,158.647842 877.722656,157.152832 879.081909,157.128250 
	C891.224792,156.908615 903.373291,157.000244 916.557434,157.000244 
	C909.440308,173.024612 902.580505,188.469528 895.426025,204.577835 
	C902.561890,204.577835 908.959778,204.577835 916.588745,204.577835 
	C913.665161,210.991806 911.117188,216.581604 908.389282,222.506073 
z"/>
<path fill="#FBFBFB" opacity="1.000000" stroke="none" 
	d="
M1780.004150,526.987305 
	C1773.888550,526.675293 1768.174438,526.910767 1762.676392,525.932434 
	C1752.541626,524.129028 1746.480713,517.289062 1746.398926,506.920654 
	C1746.138916,473.945709 1746.297974,440.967438 1746.316650,407.990448 
	C1746.316895,407.531250 1746.595703,407.072205 1746.833496,406.338257 
	C1755.587036,406.338257 1764.346069,406.338257 1773.772461,406.338257 
	C1773.772461,437.994110 1773.772461,469.674316 1773.772461,501.614349 
	C1786.843506,501.614349 1799.251343,501.614349 1812.257690,501.614349 
	C1812.257690,469.890381 1812.257690,438.347565 1812.257690,406.423981 
	C1821.544312,406.423981 1830.241577,406.423981 1839.227051,406.423981 
	C1839.227051,446.564972 1839.227051,486.620972 1839.227051,526.987305 
	C1819.442871,526.987305 1799.973022,526.987305 1780.004150,526.987305 
z"/>
<path fill="#FEFEFE" opacity="1.000000" stroke="none" 
	d="
M1564.018799,502.763336 
	C1572.800903,502.763336 1581.085938,502.763336 1589.882568,502.763336 
	C1589.882568,470.640778 1589.882568,439.073730 1589.882568,407.254395 
	C1599.011841,407.254395 1607.625000,407.254395 1616.620972,407.254395 
	C1616.620972,447.195312 1616.620972,487.229675 1616.620972,527.817505 
	C1614.767334,527.817505 1612.984863,527.817505 1611.202393,527.817566 
	C1589.703491,527.817810 1568.204712,527.814453 1546.705811,527.819702 
	C1532.365112,527.823181 1524.001709,519.586243 1523.992676,505.350708 
	C1523.973022,474.185699 1523.985718,443.020691 1523.984985,411.855682 
	C1523.984863,410.399414 1523.984863,408.943146 1523.984863,407.248779 
	C1533.171265,407.248779 1541.903931,407.248779 1550.984131,407.248779 
	C1550.984131,438.943085 1550.984131,470.385986 1550.984131,502.763336 
	C1555.375732,502.763336 1559.448730,502.763336 1564.018799,502.763336 
z"/>
<path fill="#FEFEFE" opacity="1.000000" stroke="none" 
	d="
M1114.061035,490.999939 
	C1114.059448,497.163330 1114.197632,502.830963 1114.027100,508.489258 
	C1113.668701,520.383972 1107.603516,526.757019 1095.772095,526.927002 
	C1077.286621,527.192627 1058.791870,527.198486 1040.306274,526.942444 
	C1028.432495,526.778015 1021.924500,519.848328 1021.900330,507.989502 
	C1021.843872,480.338837 1021.852905,452.687897 1021.898010,425.037201 
	C1021.916321,413.830902 1029.422852,406.206879 1040.631836,406.130890 
	C1058.287598,406.011200 1075.944458,406.045013 1093.600952,406.057617 
	C1106.432617,406.066772 1114.011108,413.587280 1114.055176,426.536743 
	C1114.127930,447.857605 1114.066162,469.178864 1114.061035,490.999939 
M1043.931763,449.500122 
	C1043.931763,467.564453 1043.931763,485.628784 1043.931763,503.572632 
	C1060.385132,503.572632 1076.093140,503.572632 1091.635498,503.572632 
	C1091.635498,478.116486 1091.635498,453.052185 1091.635498,427.958282 
	C1075.693848,427.958282 1060.100830,427.958282 1043.931763,427.958282 
	C1043.931763,434.946869 1043.931763,441.723511 1043.931763,449.500122 
z"/>
<path fill="#FDFDFE" opacity="1.000000" stroke="none" 
	d="
M1719.521484,499.452515 
	C1726.107422,508.104156 1732.487183,516.460083 1739.731689,525.948425 
	C1729.695435,525.948425 1721.315552,526.051270 1712.943970,525.831421 
	C1711.761597,525.800354 1710.360718,524.396790 1709.499634,523.287842 
	C1697.576172,507.932953 1685.774170,492.483551 1673.822754,477.150635 
	C1671.686035,474.409515 1671.969360,472.460968 1674.062622,469.797150 
	C1683.612915,457.643097 1692.951782,445.322784 1702.353638,433.052246 
	C1703.339722,431.765289 1704.239868,430.412506 1705.593994,428.508026 
	C1688.726929,428.508026 1672.544800,428.508026 1655.635010,428.508026 
	C1655.635010,460.838104 1655.635010,493.204865 1655.635010,526.273865 
	C1648.667114,526.273865 1642.398438,526.368896 1636.140015,526.158752 
	C1635.317993,526.131165 1634.245728,524.661926 1633.839966,523.641479 
	C1633.438232,522.630798 1633.723145,521.343079 1633.723145,520.176941 
	C1633.722412,484.352997 1633.721313,448.529083 1633.727417,412.705139 
	C1633.728516,406.153137 1633.743286,406.149109 1640.437988,406.148804 
	C1667.764160,406.147583 1695.090820,406.226135 1722.416016,406.068726 
	C1726.648926,406.044312 1728.740356,407.041046 1728.115723,411.622864 
	C1727.848145,413.585938 1728.069702,415.615723 1728.069458,417.615204 
	C1728.067139,437.221863 1728.026855,437.189697 1715.777710,452.501648 
	C1710.998657,458.475769 1706.518677,464.688843 1701.749756,470.671356 
	C1700.121948,472.713409 1700.128052,474.217896 1701.738037,476.266876 
	C1707.681519,483.830658 1713.469238,491.516754 1719.521484,499.452515 
z"/>
<path fill="#FBFBFB" opacity="1.000000" stroke="none" 
	d="
M1354.999512,527.530212 
	C1345.543457,527.530151 1336.587280,527.530151 1327.395752,527.530151 
	C1327.395752,519.679565 1327.395752,512.406372 1327.395752,504.429504 
	C1345.425903,504.429504 1363.464355,504.429504 1381.782715,504.429504 
	C1381.782715,495.494232 1381.782715,487.259033 1381.782715,478.518829 
	C1370.776367,478.518829 1359.990479,478.699188 1349.215820,478.429016 
	C1344.970337,478.322571 1340.611938,477.669128 1336.550781,476.447784 
	C1330.626953,474.666290 1327.206909,469.468140 1327.177612,463.238251 
	C1327.118164,450.580109 1327.151123,437.921509 1327.157837,425.263092 
	C1327.164185,413.096008 1331.526611,406.927612 1343.488403,406.461884 
	C1364.578857,405.640717 1385.724487,406.232086 1407.187500,406.232086 
	C1407.187500,413.933899 1407.187500,421.333923 1407.187500,429.334778 
	C1388.959473,429.334778 1370.887329,429.334778 1352.513184,429.334778 
	C1352.513184,438.172607 1352.513184,446.416412 1352.513184,455.320953 
	C1361.938110,455.320953 1371.201782,455.260071 1380.463867,455.346619 
	C1385.106812,455.389954 1389.845703,455.170166 1394.367920,456.006378 
	C1402.964233,457.595825 1407.400879,462.999786 1407.514404,471.606995 
	C1407.685791,484.596252 1407.742676,497.592957 1407.498413,510.579865 
	C1407.309326,520.639771 1402.059692,526.466003 1391.942383,527.016724 
	C1379.821411,527.676575 1367.649536,527.400818 1354.999512,527.530212 
z"/>
<path fill="#FDFDFD" opacity="1.000000" stroke="none" 
	d="
M1202.875244,457.916077 
	C1208.308228,461.099030 1210.257324,465.634796 1210.193604,471.467743 
	C1210.047852,484.793274 1210.173706,498.121490 1210.121948,511.448364 
	C1210.087524,520.307007 1204.962524,526.397461 1196.021729,526.924927 
	C1185.230225,527.561523 1174.388184,527.387451 1163.567261,527.458801 
	C1152.598511,527.531128 1141.628906,527.474792 1130.329102,527.474792 
	C1130.329102,519.784302 1130.329102,512.380798 1130.329102,504.392731 
	C1148.332275,504.392731 1166.392456,504.392731 1184.719849,504.392731 
	C1184.719849,495.572754 1184.719849,487.330292 1184.719849,478.521088 
	C1173.954468,478.521088 1163.345703,478.653931 1152.743408,478.452026 
	C1148.810303,478.377136 1144.745972,478.013794 1140.998413,476.909729 
	C1133.585815,474.725952 1130.026489,469.450012 1130.003052,461.664276 
	C1129.966919,449.670044 1129.992554,437.675598 1129.994141,425.681244 
	C1129.995850,413.287628 1134.919434,406.792847 1147.123169,406.383362 
	C1167.887207,405.686646 1188.691528,406.191559 1209.813232,406.191559 
	C1209.813232,413.945984 1209.813232,421.352539 1209.813232,429.356110 
	C1205.162842,429.356110 1200.545776,429.356110 1195.928589,429.356140 
	C1183.934204,429.356201 1171.938599,429.455627 1159.946411,429.292114 
	C1156.605957,429.246582 1155.111938,430.053131 1155.230103,433.697113 
	C1155.455688,440.656494 1155.295532,447.628387 1155.295532,455.326050 
	C1160.316162,455.326050 1164.905640,455.329010 1169.495117,455.325409 
	C1177.158081,455.319397 1184.832275,455.064606 1192.479004,455.413116 
	C1195.858643,455.567108 1199.182617,456.940460 1202.875244,457.916077 
z"/>
<path fill="#FDFDFE" opacity="1.000000" stroke="none" 
	d="
M1866.027100,527.002319 
	C1862.230469,527.002319 1858.929565,527.002319 1855.279419,527.002319 
	C1855.279419,519.236633 1855.279419,511.864502 1855.279419,503.980591 
	C1873.481812,503.980591 1891.542114,503.980591 1909.848145,503.980591 
	C1909.848145,495.215118 1909.848145,486.954102 1909.848145,477.985321 
	C1901.754639,477.985321 1893.657349,478.117371 1885.566650,477.942841 
	C1879.284424,477.807343 1872.892456,477.922455 1866.762939,476.780365 
	C1859.167236,475.365051 1855.151367,469.998810 1855.036255,462.207489 
	C1854.839355,448.887268 1854.802368,435.559357 1855.023926,422.240082 
	C1855.178589,412.950378 1860.741821,406.399261 1869.485229,406.244751 
	C1891.105713,405.862671 1912.737549,406.119385 1934.796021,406.119385 
	C1934.796021,413.722534 1934.796021,421.078125 1934.796021,428.947693 
	C1916.641235,428.947693 1898.578369,428.947693 1880.258179,428.947693 
	C1880.258179,437.702301 1880.258179,445.952576 1880.258179,454.914734 
	C1882.089111,454.914734 1883.851318,454.910278 1885.613647,454.915466 
	C1896.604248,454.947815 1907.607178,454.670349 1918.582031,455.102203 
	C1929.979370,455.550690 1935.127197,461.231628 1935.182983,472.468903 
	C1935.242432,484.459564 1935.269653,496.450928 1935.215332,508.441528 
	C1935.158447,520.963989 1929.037109,526.988953 1916.485229,526.999023 
	C1899.831055,527.012329 1883.177002,527.002319 1866.027100,527.002319 
z"/>
<path fill="#FEFEFE" opacity="1.000000" stroke="none" 
	d="
M1773.000488,224.117508 
	C1766.384766,224.117554 1760.268799,224.117554 1753.253418,224.117554 
	C1757.222046,216.172913 1760.781738,208.944473 1764.432007,201.762054 
	C1771.353760,188.142761 1778.379639,174.576157 1785.235962,160.924179 
	C1786.643921,158.120590 1788.233887,156.880615 1791.651245,156.898926 
	C1823.482544,157.069321 1855.315430,156.959976 1887.146851,157.109329 
	C1888.858398,157.117386 1891.429565,158.265594 1892.140381,159.638824 
	C1902.899292,180.423660 1913.415405,201.334213 1923.972656,222.223328 
	C1924.182861,222.639236 1924.202026,223.151840 1924.419678,224.091934 
	C1910.949341,224.091934 1897.679077,224.165039 1884.413086,223.960419 
	C1883.287842,223.943054 1881.786743,222.277985 1881.144165,221.027023 
	C1874.839478,208.753311 1868.587036,196.450287 1862.547729,184.044647 
	C1861.105713,181.082657 1859.373169,179.986023 1856.070190,180.043564 
	C1844.740845,180.240906 1833.404053,180.219467 1822.073853,180.041656 
	C1819.168091,179.996033 1817.552490,180.947662 1816.273438,183.495422 
	C1810.166504,195.659988 1803.858154,207.723572 1797.768555,219.896652 
	C1796.291504,222.849457 1794.655640,224.454514 1790.993164,224.215012 
	C1785.184937,223.835175 1779.333374,224.116089 1773.000488,224.117508 
z"/>
<path fill="#FDFDFD" opacity="1.000000" stroke="none" 
	d="
M1289.589844,514.524780 
	C1282.485718,492.221771 1275.563477,470.276825 1268.244141,447.072571 
	C1260.169067,474.379120 1252.412476,500.608704 1244.645386,526.873779 
	C1235.776001,526.873779 1227.132812,526.873779 1217.895996,526.873779 
	C1219.787109,520.188721 1221.546387,513.759705 1223.424683,507.365692 
	C1232.890015,475.142975 1242.430420,442.942200 1251.808105,410.694031 
	C1252.817993,407.220703 1254.107788,405.547760 1258.131714,405.716675 
	C1266.770142,406.079254 1275.434326,405.827850 1284.469849,405.827850 
	C1296.191406,446.131378 1307.863770,486.265564 1319.647583,526.783325 
	C1310.510498,526.783325 1302.063599,526.783325 1293.359863,526.783325 
	C1292.147217,522.761719 1290.959473,518.822266 1289.589844,514.524780 
z"/>
<path fill="#FDFDFD" opacity="1.000000" stroke="none" 
	d="
M1485.350830,418.653687 
	C1495.765625,454.449005 1506.071533,489.854675 1516.606689,526.047974 
	C1507.993042,526.047974 1499.940918,526.145386 1491.898315,525.911560 
	C1491.000610,525.885437 1489.733398,524.112671 1489.352783,522.921448 
	C1483.761108,505.412201 1478.298218,487.861908 1472.788086,470.326538 
	C1470.457397,462.909912 1468.088013,455.505432 1465.231934,446.506256 
	C1457.128296,473.808502 1449.442627,499.702850 1441.691895,525.816528 
	C1432.878296,525.816528 1424.127441,525.816528 1414.864746,525.816528 
	C1426.731323,485.454224 1438.490112,445.458801 1450.333984,405.173950 
	C1459.837280,405.173950 1469.314819,405.063873 1478.783203,405.309631 
	C1480.002563,405.341248 1481.734253,406.991547 1482.256714,408.284698 
	C1483.551636,411.490051 1484.283813,414.922729 1485.350830,418.653687 
z"/>

<path fill="#FDFDFE" opacity="1.000000" stroke="none" 
	d="
M1744.519043,210.419937 
	C1745.743530,213.353821 1746.758789,215.966476 1747.982056,219.114273 
	C1741.692139,219.114273 1735.813354,219.114273 1729.086914,219.114273 
	C1735.537109,234.757767 1741.706665,249.720810 1748.125732,265.288574 
	C1735.564209,265.288574 1723.601807,265.340149 1711.641968,265.189575 
	C1710.695801,265.177643 1709.311157,263.954071 1708.897827,262.970947 
	C1700.619385,243.276581 1692.453857,223.534760 1683.997070,203.155899 
	C1690.391968,203.155899 1696.122437,203.155899 1702.774902,203.155899 
	C1696.390869,187.459198 1690.301880,172.487991 1684.004639,157.004654 
	C1696.412598,157.004654 1708.350586,156.865967 1720.275879,157.193817 
	C1721.646851,157.231522 1723.482666,159.645645 1724.195190,161.339691 
	C1731.011841,177.545731 1737.632935,193.834015 1744.519043,210.419937 
z"/>
<path fill="#FEFEFE" opacity="1.000000" stroke="none" 
	d="
M1452.889648,311.878510 
	C1450.214355,325.943176 1447.661987,339.595551 1444.895752,353.204498 
	C1444.610718,354.606537 1443.073975,356.827423 1442.079468,356.848511 
	C1430.120850,357.102356 1418.154785,357.012726 1405.810547,357.012726 
	C1409.663696,336.685608 1413.407959,316.878326 1417.175903,297.075562 
	C1419.771851,283.431702 1422.346680,269.783112 1425.110229,256.173035 
	C1425.352539,254.978912 1426.912964,253.159805 1427.887573,253.142761 
	C1439.844238,252.933517 1451.805908,253.006516 1463.963989,253.006516 
	C1460.236450,272.790222 1456.593994,292.122040 1452.889648,311.878510 
z"/>
<path fill="#FDFDFD" opacity="1.000000" stroke="none" 
	d="
M1738.605713,307.725708 
	C1733.532349,323.392548 1728.576538,338.682098 1723.761841,354.015961 
	C1722.813843,357.034607 1721.247681,358.023895 1718.034546,357.959106 
	C1706.886963,357.734436 1695.732056,357.872437 1683.936890,357.872437 
	C1687.644653,346.480194 1691.204590,335.508514 1694.786743,324.544159 
	C1699.469971,310.208923 1704.114258,295.860291 1708.959473,281.579926 
	C1709.401367,280.277527 1711.160889,278.530701 1712.338257,278.507446 
	C1723.982666,278.277679 1735.633423,278.368439 1748.219360,278.368439 
	C1744.961792,288.366852 1741.867188,297.865417 1738.605713,307.725708 
z"/>
<path fill="#FDFDFD" opacity="1.000000" stroke="none" 
	d="
M1428.459961,232.989563 
	C1426.715332,231.391495 1424.719849,229.980164 1424.239502,228.167358 
	C1420.259521,213.145081 1416.561035,198.048218 1412.774658,182.974609 
	C1411.178467,176.620407 1409.575806,170.267868 1407.824951,163.314148 
	C1420.373535,163.314148 1432.309448,163.238007 1444.239380,163.466888 
	C1445.138550,163.484146 1446.456909,165.553192 1446.803467,166.872589 
	C1452.261230,187.646225 1457.590698,208.453506 1462.952515,229.252335 
	C1463.233521,230.342804 1463.541260,231.426422 1463.966064,232.990234 
	C1452.099609,232.990234 1440.505615,232.990234 1428.459961,232.989563 
z"/>
<path fill="#FCFCFC" opacity="1.000000" stroke="none" 
	d="
M402.735352,406.781830 
	C394.369263,427.654510 375.337585,428.283783 357.540283,431.099670 
	C360.255676,429.984589 363.050110,429.028870 365.673553,427.728271 
	C381.734863,419.765839 390.057098,405.970551 395.126953,389.399750 
	C397.628754,381.222565 400.959808,373.227631 404.663605,365.509186 
	C408.597046,357.312164 415.986359,352.995636 424.720306,351.536346 
	C432.213898,350.284271 439.846619,349.864929 447.709015,349.047028 
	C448.115448,355.523651 448.646332,361.778656 448.830383,368.043823 
	C448.900269,370.422882 448.734772,372.867645 445.156128,373.392944 
	C424.841064,376.374817 412.494690,389.688660 402.735352,406.781830 
z"/>
<path fill="#FBFBFB" opacity="1.000000" stroke="none" 
	d="
M694.421875,192.590515 
	C704.814758,193.615662 710.234192,202.441788 706.924316,212.552811 
	C704.595825,219.666077 700.555725,225.721069 694.191040,229.796829 
	C684.871521,235.764755 675.361389,241.434998 665.205750,246.635712 
	C666.186401,244.889984 667.432556,243.240143 668.103394,241.382553 
	C671.736145,231.322449 674.953674,221.103943 678.854309,211.151703 
	C681.866272,203.467133 685.055603,195.582291 694.421875,192.590515 
z"/>
<path fill="#FCFCFC" opacity="1.000000" stroke="none" 
	d="
M545.624268,622.343018 
	C536.788574,617.433105 528.271179,612.717957 521.042603,608.716309 
	C528.917969,607.504333 537.603210,606.100098 546.310181,604.847107 
	C554.763611,603.630737 563.252808,601.598572 571.701538,601.715393 
	C580.008057,601.830261 583.835327,606.092651 584.012329,611.933350 
	C584.236877,619.343872 579.659607,625.126160 572.183105,626.946960 
	C562.798401,629.232483 554.112732,627.439209 545.624268,622.343018 
z"/>
<path fill="#FCFCFC" opacity="1.000000" stroke="none" 
	d="
M281.277008,69.657280 
	C290.645477,77.294952 299.719940,84.713287 307.929504,91.424591 
	C295.137665,91.331032 281.942200,91.413300 268.759796,91.037689 
	C264.358063,90.912277 259.853607,90.056740 255.636932,88.754959 
	C248.726105,86.621437 246.119736,82.667618 246.774734,76.754692 
	C247.412003,71.001869 252.596924,65.662346 258.523102,64.832596 
	C266.537079,63.710522 274.065613,65.126862 281.277008,69.657280 
z"/>
<path fill="#FBFBFB" opacity="1.000000" stroke="none" 
	d="
M159.109802,524.218445 
	C151.646774,526.923401 145.470474,522.837463 144.921967,515.198120 
	C144.360001,507.371368 146.674149,500.076752 151.537354,494.336609 
	C159.535034,484.896851 168.449295,476.233704 176.977112,467.243134 
	C177.309952,467.474579 177.642776,467.706024 177.975601,467.937500 
	C176.652893,472.055359 174.983231,476.098694 174.079041,480.306519 
	C172.140472,489.328094 170.873795,498.498535 168.797577,507.484558 
	C167.338791,513.798340 164.840500,519.818115 159.109802,524.218445 
z"/>
<path fill="#FDFDFD" opacity="1.000000" stroke="none" 
	d="
M1643.383057,253.730194 
	C1643.433960,254.691147 1643.237061,255.987640 1643.027466,255.989685 
	C1631.696899,256.100769 1620.364868,256.140015 1609.034058,256.052795 
	C1608.025513,256.045044 1606.777222,255.377075 1606.057251,254.619537 
	C1599.541504,247.763199 1593.118652,240.818588 1585.826294,232.996384 
	C1594.363770,232.996384 1601.995972,233.724060 1609.431030,232.823914 
	C1620.279541,231.510513 1628.327148,234.764145 1634.401489,243.883163 
	C1636.768799,247.437027 1640.188721,250.289719 1643.383057,253.730194 
z"/>

<path fill="#FBFBFB" opacity="1.000000" stroke="none" 
	d="
M470.995758,112.839195 
	C471.482452,120.792526 471.988831,128.658722 472.564209,137.596710 
	C465.628723,134.693741 459.682251,132.204727 453.598602,129.355621 
	C454.671661,122.898308 455.881866,116.801071 457.356812,110.252289 
	C457.621582,109.800735 457.975494,109.552498 458.347717,109.436798 
	C462.825867,110.405670 466.931854,111.490234 471.037811,112.574806 
	C471.037811,112.574806 471.015472,112.752068 470.995758,112.839195 
z"/>
<path fill="#FDFDFD" opacity="1.000000" stroke="none" 
	d="
M285.655762,357.042297 
	C287.602356,358.396545 289.680420,359.690796 290.844543,361.555573 
	C292.426880,364.090363 291.651398,366.248596 288.198059,365.912109 
	C285.601837,365.659119 283.062225,364.825409 280.192444,364.006592 
	C281.718292,361.587433 283.549103,359.411957 285.655762,357.042297 
z"/>
<path fill="#FDFDFD" opacity="1.000000" stroke="none" 
	d="
M414.595428,215.901642 
	C416.448273,217.650452 418.009766,219.553909 419.905029,221.864258 
	C416.499542,223.421432 413.844879,227.847580 410.682678,221.572662 
	C411.815277,219.425690 413.059692,217.740997 414.595428,215.901642 
z"/>
<path fill="#FDFDFD" opacity="1.000000" stroke="none" 
	d="
M575.340210,328.630676 
	C574.734070,326.905121 574.473938,325.101898 574.185425,322.905212 
	C577.898499,323.130798 581.639954,323.749878 586.032898,324.476776 
	C582.264648,325.961334 578.975464,327.257172 575.340210,328.630676 
z"/>
<path fill="#FDFDFD" opacity="1.000000" stroke="none" 
	d="
M329.753906,329.722687 
	C331.096588,330.377472 332.152466,331.130493 333.208313,331.883545 
	C332.095612,332.883942 331.118652,334.425964 329.835785,334.747498 
	C328.234619,335.148834 326.381561,334.545013 324.308533,334.163849 
	C325.808868,332.575348 327.637939,331.198151 329.753906,329.722687 
z"/>
<path fill="#FDFDFD" opacity="1.000000" stroke="none" 
	d="
M327.631897,285.973480 
	C328.055573,286.569000 328.268433,287.231812 328.199799,287.864075 
	C327.994568,289.754791 327.679169,291.633545 327.406769,293.516968 
	C326.000061,292.146088 324.593384,290.775208 322.947632,289.129089 
	C324.236542,287.911499 325.764435,286.969147 327.631897,285.973480 
z"/>
<path fill="#FDFDFD" opacity="1.000000" stroke="none" 
	d="
M597.142212,398.720337 
	C596.897522,397.404053 596.941711,396.278351 596.989624,394.730225 
	C599.952393,396.188385 602.911438,398.068970 605.870544,399.949524 
	C605.685303,400.371490 605.500000,400.793457 605.314758,401.215424 
	C602.686890,400.447266 600.059021,399.679108 597.142212,398.720337 
z"/>
<path fill="#FDFDFD" opacity="1.000000" stroke="none" 
	d="
M334.689514,282.013947 
	C335.730133,283.518616 336.477203,285.044037 337.224274,286.569427 
	C336.636566,286.878265 336.048859,287.187073 335.461151,287.495911 
	C334.748810,286.243256 334.036469,284.990570 333.186096,283.435486 
	C333.497314,282.766937 333.946625,282.400818 334.689514,282.013947 
z"/>
<path fill="#FDFDFD" opacity="1.000000" stroke="none" 
	d="
M442.555420,166.148163 
	C443.685150,166.636032 444.576019,167.337692 445.466888,168.039337 
	C444.282532,168.686539 443.098145,169.333740 441.547821,169.991364 
	C441.560120,168.788544 441.938354,167.575256 442.555420,166.148163 
z"/>
<path fill="#FDFDFD" opacity="1.000000" stroke="none" 
	d="
M542.537964,277.323425 
	C540.698486,274.315216 540.784851,271.159882 543.733521,268.163086 
	C543.633057,271.006134 543.206116,273.991364 542.537964,277.323425 
z"/>
<path fill="#FDFDFD" opacity="1.000000" stroke="none" 
	d="
M355.727600,269.254761 
	C356.012421,271.934265 354.770294,273.249054 351.482483,272.503418 
	C352.507965,271.376862 353.957031,270.358734 355.727600,269.254761 
z"/>
<path fill="#FDFDFD" opacity="1.000000" stroke="none" 
	d="
M567.747925,320.010284 
	C565.422363,323.130127 564.668274,321.117554 564.008362,318.419861 
	C565.149170,318.650543 566.323425,319.222137 567.747925,320.010284 
z"/>
<path fill="#FDFDFD" opacity="1.000000" stroke="none" 
	d="
M543.675598,291.843170 
	C541.703430,291.029816 540.045837,289.779175 542.477539,287.159515 
	C543.051941,288.506073 543.337830,290.014191 543.675598,291.843170 
z"/>
<path fill="#FDFDFD" opacity="1.000000" stroke="none" 
	d="
M527.165527,211.716919 
	C525.036011,210.314743 524.295715,208.848404 527.919250,208.036255 
	C527.977783,209.159683 527.695923,210.309708 527.165527,211.716919 
z"/>
<path fill="#FDFDFD" opacity="1.000000" stroke="none" 
	d="
M581.929626,382.722321 
	C580.863403,382.705444 578.054810,385.111755 579.267883,380.950378 
	C580.255188,381.315430 581.020752,381.893402 581.929626,382.722321 
z"/>
<path fill="#FDFDFD" opacity="1.000000" stroke="none" 
	d="
M547.106628,379.570740 
	C547.549744,378.865082 548.235901,378.372406 548.922058,377.879730 
	C549.233582,378.515533 549.545044,379.151337 549.851074,380.120667 
	C549.013611,380.230743 548.181641,380.007263 547.106628,379.570740 
z"/>
<path fill="#FDFDFD" opacity="1.000000" stroke="none" 
	d="
M501.398438,371.754822 
	C502.231415,371.500977 503.466492,371.284454 504.853729,371.316437 
	C503.937439,371.640656 502.868958,371.716370 501.398438,371.754822 
z"/>
<path fill="#FDFDFD" opacity="1.000000" stroke="none" 
	d="
M344.735413,314.135345 
	C344.404663,315.076141 343.820526,316.183746 343.084808,317.075317 
	C343.449493,316.006927 343.965759,315.154541 344.735413,314.135345 
z"/>
<path fill="#FDFDFD" opacity="1.000000" stroke="none" 
	d="
M336.112671,303.258789 
	C337.236511,303.345734 338.535522,303.711884 339.918274,304.460815 
	C338.763947,304.408417 337.525909,303.973206 336.112671,303.258789 
z"/>
<path fill="#FDFDFD" opacity="1.000000" stroke="none" 
	d="
M398.779938,234.252869 
	C398.312744,235.099304 397.566132,236.044617 396.504150,236.996063 
	C396.959381,236.118713 397.729919,235.235229 398.779938,234.252869 
z"/>
<path fill="#FDFDFD" opacity="1.000000" stroke="none" 
	d="
M433.579041,186.156158 
	C434.050720,185.962143 434.240723,185.969467 434.693542,186.312408 
	C434.637665,187.433075 434.319000,188.218109 434.000336,189.003159 
	C433.363159,189.293625 432.725952,189.584091 431.759735,190.002899 
	C432.052917,188.873322 432.675140,187.615417 433.579041,186.156158 
z"/>
<path fill="#FBFBFB" opacity="1.000000" stroke="none" 
	d="
M454.323364,108.235092 
	C454.944366,107.680206 455.894226,107.344543 457.194855,107.254974 
	C457.516663,107.669052 457.487671,107.837036 457.431213,108.019775 
	C457.403717,108.034531 457.410278,107.899155 457.410278,107.899155 
	C456.490906,108.084206 455.571564,108.269264 454.323364,108.235092 
z"/>
<path fill="#FDFDFD" opacity="1.000000" stroke="none" 
	d="
M345.258942,307.148468 
	C346.544983,304.638031 347.252411,305.843903 347.867279,307.929962 
	C347.113190,307.939423 346.315247,307.642212 345.258942,307.148468 
z"/>
<path fill="#FDFDFD" opacity="1.000000" stroke="none" 
	d="
M589.024902,388.556793 
	C588.290039,388.870148 587.486572,388.970428 586.683105,389.070679 
	C586.897339,388.648438 587.111633,388.226196 587.571716,387.736389 
	C588.197144,387.893768 588.576721,388.118744 589.024902,388.556793 
z"/>
<path fill="#FDFDFD" opacity="1.000000" stroke="none" 
	d="
M315.713531,338.004639 
	C315.358002,338.432098 314.715637,338.823425 313.989136,338.955750 
	C314.412201,338.454041 314.919464,338.211273 315.713531,338.004639 
z"/>
<path fill="#FDFDFD" opacity="1.000000" stroke="none" 
	d="
M387.718811,244.745743 
	C387.424774,245.396072 386.866730,246.196167 386.077118,246.834610 
	C386.381989,246.080475 386.918427,245.487991 387.718811,244.745743 
z"/>
<path fill="#FDFDFD" opacity="1.000000" stroke="none" 
	d="
M521.416870,226.271851 
	C521.473022,225.426147 521.795898,224.388428 522.405762,223.173767 
	C522.356384,224.024475 522.019958,225.052155 521.416870,226.271851 
z"/>
<path fill="#FDFDFD" opacity="1.000000" stroke="none" 
	d="
M539.443970,171.168121 
	C539.282532,170.353012 539.395020,169.291946 539.784912,168.126312 
	C539.947571,168.988556 539.832703,169.955353 539.443970,171.168121 
z"/>
<path fill="#FDFDFD" opacity="1.000000" stroke="none" 
	d="
M515.384033,240.137848 
	C515.496765,239.319000 515.874268,238.314270 516.550171,237.154480 
	C516.448669,237.983612 516.048706,238.967804 515.384033,240.137848 
z"/>
<path fill="#FDFDFD" opacity="1.000000" stroke="none" 
	d="
M535.311340,186.846588 
	C535.171875,186.419220 535.233398,185.796539 535.512878,185.085419 
	C535.658020,185.548401 535.585144,186.099838 535.311340,186.846588 
z"/>
<path fill="#FDFDFD" opacity="1.000000" stroke="none" 
	d="
M578.068665,391.455872 
	C578.564636,391.306976 579.202332,391.429993 579.913635,391.794891 
	C579.394958,391.933777 578.802673,391.830780 578.068665,391.455872 
z"/>
<path fill="#FDFDFD" opacity="1.000000" stroke="none" 
	d="
M528.198364,374.183899 
	C528.602661,374.003876 529.200928,374.020782 529.903442,374.226349 
	C529.469238,374.403595 528.930786,374.392212 528.198364,374.183899 
z"/>
<path fill="#FDFDFD" opacity="1.000000" stroke="none" 
	d="
M346.591156,311.094879 
	C346.628662,311.558197 346.417694,312.179138 345.946411,312.841858 
	C345.904968,312.339905 346.123840,311.796234 346.591156,311.094879 
z"/>
<path fill="#FDFDFD" opacity="1.000000" stroke="none" 
	d="
M299.776123,339.847717 
	C299.370178,339.879272 298.756348,339.709198 298.071106,339.309631 
	C298.522522,339.268768 299.045380,339.457428 299.776123,339.847717 
z"/>
<path fill="#FDFDFD" opacity="1.000000" stroke="none" 
	d="
M503.765289,264.544189 
	C503.774139,263.973206 503.977844,263.161041 504.467468,262.173340 
	C504.488953,262.766174 504.224548,263.534637 503.765289,264.544189 
z"/>
<path fill="#FDFDFD" opacity="1.000000" stroke="none" 
	d="
M564.204712,363.582306 
	C563.686646,363.234100 563.112793,362.565857 562.591431,361.536499 
	C563.145569,361.871033 563.647217,362.566650 564.204712,363.582306 
z"/>
<path fill="#FDFDFD" opacity="1.000000" stroke="none" 
	d="
M388.906036,244.511948 
	C389.517670,244.384735 390.147522,244.305435 390.777405,244.226151 
	C390.798645,244.349075 390.819916,244.471985 390.841187,244.594894 
	C390.412323,244.650146 389.983459,244.705399 389.236725,244.711472 
	C388.918854,244.662292 388.924255,244.559875 388.906036,244.511948 
z"/>
<path fill="#FDFDFD" opacity="1.000000" stroke="none" 
	d="
M507.943481,255.800247 
	C507.821655,255.580948 507.815521,255.240158 508.031158,254.971313 
	C508.247162,255.273026 508.182556,255.484833 507.943481,255.800247 
z"/>
<path fill="#FDFDFD" opacity="1.000000" stroke="none" 
	d="
M457.410828,108.409142 
	C457.410278,107.899155 457.403717,108.034531 457.516724,108.421242 
	C457.744995,109.056137 457.860260,109.304321 457.975494,109.552498 
	C457.975494,109.552498 457.621582,109.800735 457.538086,109.869461 
	C457.440186,109.598503 457.425781,109.258812 457.410828,108.409142 
z"/>
<path fill="#FEFEFE" opacity="1.000000" stroke="none" 
	d="
M357.037537,462.968109 
	C356.755219,462.911713 356.576996,462.761749 356.398773,462.611786 
	C356.630280,462.536652 356.861786,462.461517 357.221924,462.537323 
	C357.350555,462.688263 357.141632,462.874542 357.037537,462.968109 
z"/>
<path fill="#FBFBFB" opacity="1.000000" stroke="none" 
	d="
M178.571289,466.630737 
	C178.605774,466.702209 178.536789,466.559265 178.571289,466.630737 
z"/>
<path fill="#FDFDFD" opacity="1.000000" stroke="none" 
	d="
M530.900574,197.922852 
	C530.911194,197.965317 530.734070,198.366608 530.734070,198.366608 
	C530.734070,198.366608 530.745300,198.184052 530.782959,198.005402 
	C530.820679,197.826767 530.889954,197.880386 530.900574,197.922852 
z"/>


<path fill="#FDFDFD" opacity="1.000000" stroke="none" 
	d="
M465.030701,141.590546 
	C467.068787,141.601486 469.140839,141.960907 471.515991,142.372894 
	C471.815796,140.852966 472.078369,139.521790 472.450958,137.632904 
	C476.095703,139.479263 479.543396,141.225800 483.075867,143.393997 
	C483.032318,143.959091 482.903961,144.102524 482.775604,144.245972 
	C481.794037,144.133484 480.799988,144.085403 479.832825,143.898438 
	C471.504669,142.288589 471.506104,142.281097 470.767090,150.851532 
	C468.752716,148.117050 466.908722,145.028030 465.030701,141.590546 
z"/>
<path fill="#FDFDFD" opacity="1.000000" stroke="none" 
	d="
M390.194733,273.030518 
	C391.929291,270.974579 394.027191,269.012909 396.447418,266.977478 
	C396.792206,269.295074 396.814697,271.686401 396.837158,274.077759 
	C394.744141,273.760101 392.651123,273.442444 390.194733,273.030518 
z"/>
<path fill="#FDFDFD" opacity="1.000000" stroke="none" 
	d="
M503.228455,286.432404 
	C503.849121,284.151428 504.728882,282.080719 505.608673,280.009979 
	C506.208618,280.097870 506.808594,280.185791 507.408569,280.273682 
	C507.803101,281.828308 509.006470,284.148071 508.416687,284.771515 
	C507.329346,285.920929 505.189056,286.074280 503.228455,286.432404 
z"/>
<path fill="#FDFDFD" opacity="1.000000" stroke="none" 
	d="
M434.244873,189.233612 
	C434.319000,188.218109 434.637665,187.433075 434.978516,186.323761 
	C435.455109,185.824341 436.015106,185.386322 436.345795,185.519150 
	C437.835663,186.117538 439.449188,186.664597 440.609528,187.691757 
	C441.033051,188.066696 440.323364,189.721756 440.130646,190.792801 
	C438.250244,190.349884 436.369843,189.906967 434.244873,189.233612 
z"/>
<path fill="#FDFDFD" opacity="1.000000" stroke="none" 
	d="
M460.002838,222.969788 
	C461.739288,220.924316 463.609558,219.210602 465.775330,217.372864 
	C465.623993,219.150604 465.489594,221.205490 464.651703,222.915665 
	C463.588654,225.085236 461.855316,225.664810 460.002838,222.969788 
z"/>
<path fill="#FDFDFD" opacity="1.000000" stroke="none" 
	d="
M411.146423,256.009979 
	C412.666016,254.419647 414.422729,253.057205 416.501526,251.567017 
	C416.554291,253.639465 416.284943,255.839645 415.928619,258.750183 
	C413.867340,257.610779 412.625458,256.924316 411.146423,256.009979 
z"/>
<path fill="#FDFDFD" opacity="1.000000" stroke="none" 
	d="
M427.011383,245.239792 
	C428.392456,243.884705 429.816254,242.873215 431.562622,241.773041 
	C431.554291,243.235703 431.633881,245.074219 430.796539,246.271408 
	C429.528320,248.084625 427.829956,248.394943 427.011383,245.239792 
z"/>
<path fill="#FDFDFD" opacity="1.000000" stroke="none" 
	d="
M431.791138,229.911362 
	C430.821167,231.045959 429.503815,232.032288 427.452576,233.053406 
	C426.145325,233.057907 425.571991,233.027603 424.998596,232.997299 
	C425.246460,232.191254 425.494293,231.385208 426.055969,230.140686 
	C426.603882,229.490265 426.814362,229.257034 427.001221,229.002472 
	C428.482056,229.256012 429.962860,229.509537 431.791138,229.911362 
z"/>
<path fill="#FDFDFD" opacity="1.000000" stroke="none" 
	d="
M488.948792,293.224670 
	C488.256927,294.065369 487.565063,294.906097 486.873199,295.746826 
	C487.188934,293.987701 482.331177,290.432159 488.685059,291.319458 
	C488.964142,292.238129 488.956482,292.731415 488.948792,293.224670 
z"/>
<path fill="#FDFDFD" opacity="1.000000" stroke="none" 
	d="
M449.093689,220.249908 
	C448.624939,220.555405 448.156189,220.860901 447.407532,221.231445 
	C446.744904,220.213440 446.362152,219.130356 445.979401,218.047287 
	C446.823029,217.916870 447.666626,217.786453 448.761475,218.203033 
	C449.039703,219.249969 449.066681,219.749954 449.093689,220.249908 
z"/>
<path fill="#FDFDFD" opacity="1.000000" stroke="none" 
	d="
M377.093201,279.214600 
	C376.559479,280.784882 375.633392,282.408539 374.427185,284.248260 
	C374.998322,282.732208 375.849579,281.000122 377.093201,279.214600 
z"/>
<path fill="#FDFDFD" opacity="1.000000" stroke="none" 
	d="
M529.797607,140.728989 
	C530.658569,140.846329 531.388245,141.312286 532.246826,142.013489 
	C530.612549,143.848190 529.477295,143.994720 529.797607,140.728989 
z"/>
<path fill="#FDFDFD" opacity="1.000000" stroke="none" 
	d="
M456.621399,201.118820 
	C456.476776,202.483261 455.959686,203.968597 455.241119,205.724930 
	C455.442749,204.410538 455.845856,202.825119 456.621399,201.118820 
z"/>
<path fill="#FDFDFD" opacity="1.000000" stroke="none" 
	d="
M399.920349,254.170898 
	C399.336029,255.228821 398.516693,256.091064 397.423279,257.075226 
	C397.994568,256.123169 398.839935,255.049179 399.920349,254.170898 
z"/>
<path fill="#FDFDFD" opacity="1.000000" stroke="none" 
	d="
M524.936890,139.125854 
	C526.341797,139.108978 527.727844,139.374863 529.309021,139.877014 
	C528.235352,140.117493 526.966614,140.121704 525.314331,140.050568 
	C524.926575,139.786377 524.922302,139.597504 524.936890,139.125854 
z"/>
<path fill="#FDFDFD" opacity="1.000000" stroke="none" 
	d="
M396.844879,257.130219 
	C396.588226,257.820221 395.979248,258.491180 395.125305,259.289429 
	C395.417755,258.648193 395.955139,257.879669 396.844879,257.130219 
z"/>
<path fill="#FDFDFD" opacity="1.000000" stroke="none" 
	d="
M316.920654,368.627930 
	C316.086823,368.589752 315.173248,368.250854 314.024933,367.728943 
	C314.807098,367.806366 315.824005,368.066772 316.920654,368.627930 
z"/>
<path fill="#FDFDFD" opacity="1.000000" stroke="none" 
	d="
M512.912598,160.854218 
	C513.144836,159.910049 513.717896,158.968002 514.573486,157.847855 
	C514.321838,158.731949 513.787659,159.794128 512.912598,160.854218 
z"/>
<path fill="#FDFDFD" opacity="1.000000" stroke="none" 
	d="
M476.267151,207.934738 
	C476.747864,207.051926 477.580444,206.135315 478.699524,205.090164 
	C478.197052,205.941391 477.408051,206.921158 476.267151,207.934738 
z"/>
<path fill="#FDFDFD" opacity="1.000000" stroke="none" 
	d="
M453.853943,227.394562 
	C454.209320,226.700439 454.767975,226.228165 455.589233,225.663879 
	C455.253662,226.253372 454.655426,226.934906 453.853943,227.394562 
z"/>
<path fill="#FDFDFD" opacity="1.000000" stroke="none" 
	d="
M521.894043,145.909149 
	C521.828003,145.380112 521.901245,145.152069 522.239502,144.856995 
	C522.545776,145.658661 522.698303,146.563110 522.850769,147.467560 
	C522.541199,147.036514 522.231567,146.605469 521.894043,145.909149 
z"/>
<path fill="#FDFDFD" opacity="1.000000" stroke="none" 
	d="
M298.058319,379.964844 
	C298.519562,379.249634 299.364594,378.488586 300.516846,377.576416 
	C300.030121,378.256500 299.236115,379.087738 298.058319,379.964844 
z"/>
<path fill="#FDFDFD" opacity="1.000000" stroke="none" 
	d="
M287.711121,373.035736 
	C287.729675,373.609650 287.446747,374.214844 287.009766,375.025085 
	C287.040375,374.509094 287.225006,373.788086 287.711121,373.035736 
z"/>
<path fill="#FDFDFD" opacity="1.000000" stroke="none" 
	d="
M424.816467,233.252686 
	C425.571991,233.027603 426.145325,233.057907 427.148895,233.117035 
	C426.646088,233.806152 425.713074,234.466431 424.445312,235.212006 
	C424.285126,234.700882 424.459747,234.104477 424.816467,233.252686 
z"/>
<path fill="#FDFDFD" opacity="1.000000" stroke="none" 
	d="
M470.560303,213.714386 
	C470.710693,213.112534 471.185913,212.520126 471.906189,211.772125 
	C471.729218,212.318954 471.307190,213.021393 470.560303,213.714386 
z"/>
<path fill="#FDFDFD" opacity="1.000000" stroke="none" 
	d="
M453.612610,208.999939 
	C453.861511,209.559235 453.737152,210.118515 453.015320,210.839264 
	C451.945221,211.000687 451.472626,211.000641 451.000000,211.000610 
	C451.000000,211.000610 451.000000,211.000000 451.000000,210.666763 
	C451.000000,209.889221 451.000000,209.444916 451.000000,209.000610 
	C451.746460,209.000381 452.492950,209.000153 453.612610,208.999939 
z"/>
<path fill="#FDFDFD" opacity="1.000000" stroke="none" 
	d="
M373.154541,289.981903 
	C373.446320,289.302063 373.957916,288.763214 374.729706,288.098145 
	C374.451385,288.688904 373.912903,289.405914 373.154541,289.981903 
z"/>
<path fill="#FDFDFD" opacity="1.000000" stroke="none" 
	d="
M421.115601,248.964966 
	C421.593170,248.308441 422.428864,247.616837 423.588165,246.844360 
	C423.099091,247.485611 422.286407,248.207748 421.115601,248.964966 
z"/>
<path fill="#FDFDFD" opacity="1.000000" stroke="none" 
	d="
M468.558685,162.083603 
	C468.683929,162.542908 468.588562,163.087769 468.291565,163.831863 
	C468.172638,163.410461 468.255341,162.789795 468.558685,162.083603 
z"/>
<path fill="#FDFDFD" opacity="1.000000" stroke="none" 
	d="
M451.104736,211.310974 
	C451.472626,211.000641 451.945221,211.000687 452.772278,211.000977 
	C453.027893,211.583893 452.929077,212.166580 452.613953,212.952759 
	C452.001617,212.644608 451.605560,212.132980 451.104736,211.310974 
z"/>
<path fill="#FDFDFD" opacity="1.000000" stroke="none" 
	d="
M450.768951,209.078857 
	C451.000000,209.444916 451.000000,209.889221 451.000000,210.666763 
	C450.845978,210.385696 450.691925,209.771393 450.768951,209.078857 
z"/>
<path fill="#FDFDFD" opacity="1.000000" stroke="none" 
	d="
M463.332062,182.211884 
	C463.465271,182.608414 463.333801,183.021942 463.035583,183.717499 
	C462.934998,183.409302 463.001190,182.819092 463.332062,182.211884 
z"/>
<path fill="#FDFDFD" opacity="1.000000" stroke="none" 
	d="
M381.133026,274.164490 
	C381.065399,274.658997 380.736450,275.178375 380.122498,275.825073 
	C380.182251,275.364746 380.526978,274.777039 381.133026,274.164490 
z"/>
<path fill="#FDFDFD" opacity="1.000000" stroke="none" 
	d="
M306.037964,374.805725 
	C306.360962,374.404327 306.871948,374.175659 307.675049,373.927704 
	C307.386719,374.265106 306.806335,374.621765 306.037964,374.805725 
z"/>
<path fill="#FDFDFD" opacity="1.000000" stroke="none" 
	d="
M466.662598,170.093857 
	C466.813995,170.650314 466.743225,171.301376 466.414551,172.162476 
	C466.251221,171.644516 466.345825,170.916473 466.662598,170.093857 
z"/>
<path fill="#FDFDFD" opacity="1.000000" stroke="none" 
	d="
M449.403137,220.123871 
	C449.066681,219.749954 449.039703,219.249969 449.006653,218.374542 
	C449.231506,218.018768 449.462463,218.038452 450.038696,218.100494 
	C450.160187,218.761200 449.936371,219.379517 449.403137,220.123871 
z"/>

<path fill="#FDFDFD" opacity="1.000000" stroke="none" 
	d="
M517.506348,228.506226 
	C517.486877,228.513229 517.525818,228.499237 517.506348,228.506226 
z"/>
<path fill="#FDFDFD" opacity="1.000000" stroke="none" 
	d="
M568.494019,329.506226 
	C568.487122,329.486877 568.500854,329.525604 568.494019,329.506226 
z"/>
<path fill="#FDFDFD" opacity="1.000000" stroke="none" 
	d="
M426.817261,229.150421 
	C426.814362,229.257034 426.603882,229.490265 426.187103,229.851425 
	C426.188446,229.743637 426.398071,229.509537 426.817261,229.150421 
z"/>
<path fill="#FDFDFD" opacity="1.000000" stroke="none" 
	d="
M506.854187,171.118805 
	C507.024567,171.108566 507.117126,171.099487 507.160767,171.159271 
	C507.204437,171.219070 506.740448,171.339325 506.740448,171.339325 
	C506.740448,171.339325 506.683777,171.129028 506.854187,171.118805 
z"/>
<path fill="#FDFDFD" opacity="1.000000" stroke="none" 
	d="
M412.563354,243.600189 
	C412.451752,243.493164 412.346466,243.350037 412.241180,243.206924 
	C412.316193,243.247879 412.391205,243.288834 412.554199,243.441528 
	C412.642181,243.553268 412.569672,243.564102 412.563354,243.600189 
z"/>
<path fill="#FDFDFD" opacity="1.000000" stroke="none" 
	d="
M395.493652,240.493774 
	C395.513123,240.486786 395.474213,240.500763 395.493652,240.493774 
z"/>
<path fill="#FDFDFD" opacity="1.000000" stroke="none" 
	d="
M521.493713,219.506439 
	C521.486633,219.486847 521.500793,219.526047 521.493713,219.506439 
z"/>


<path fill="#FDFDFD" opacity="1.000000" stroke="none" 
	d="
M483.353607,143.600891 
	C484.169586,143.739838 484.792603,144.093552 486.280121,144.938110 
	C484.568176,144.816498 483.848358,144.765350 482.952057,144.480103 
	C482.903961,144.102524 483.032318,143.959091 483.353607,143.600891 
z"/>
</svg>