<svg version="1.1" id="Layer_1" xmlns="http://www.w3.org/2000/svg" xmlns:xlink="http://www.w3.org/1999/xlink" x="0px" y="0px"
	 width="1821.359199" viewBox="113.870781 46.028419 1821.359199 592.729638" enable-background="new 0 0 2048 682" xml:space="preserve">

<path fill="#5B5959" opacity="1.000000" stroke="none" 
	d="
M532.156738,197.005829 
	C524.443298,216.107971 517.137573,235.389160 508.858459,254.242935 
	C504.132416,265.005463 497.803772,275.062775 492.262970,285.472900 
	C491.943298,286.073486 492.221527,286.992340 492.221527,288.566833 
	C498.288177,282.794403 503.703644,277.359497 509.422089,272.264679 
	C518.663879,264.030731 528.352783,256.375397 540.875732,253.752838 
	C544.160522,253.064941 547.621948,253.220200 552.430237,252.890274 
	C541.945129,268.466583 538.898438,283.705322 546.952942,299.687531 
	C554.869080,315.395447 568.459045,322.641724 586.231628,324.400208 
	C582.450623,325.919525 579.122742,327.008423 576.030945,328.565918 
	C572.635315,330.276459 569.163147,332.058228 566.241211,334.442505 
	C558.542480,340.724670 556.955505,348.643005 561.200623,357.677399 
	C566.449829,368.848877 575.216187,377.051300 584.592041,384.596863 
	C591.418335,390.090546 598.657593,395.071014 605.472595,401.107758 
	C603.231201,400.536591 600.910889,400.174011 598.760803,399.361115 
	C582.102966,393.062897 565.562927,386.442566 548.815674,380.394745 
	C535.663086,375.645020 522.263733,371.761108 508.042511,371.508148 
	C493.841644,371.255585 482.665100,376.936554 474.946259,388.554688 
	C461.193909,409.254272 457.034149,432.456970 459.341583,456.821228 
	C460.410889,468.112457 466.206421,471.191162 477.135345,467.961853 
	C482.731567,466.308258 488.420502,464.968506 494.379333,464.321686 
	C487.486298,475.033081 478.627930,483.095581 466.049255,484.439606 
	C457.580658,485.344452 448.857208,483.876587 440.248627,483.451904 
	C436.865570,483.285004 433.485016,483.068298 429.944244,483.528351 
	C433.520477,488.492462 438.475494,491.226196 443.905457,492.133881 
	C454.048462,493.829437 464.323212,494.767212 474.560669,495.855072 
	C480.147888,496.448822 485.771057,496.704071 491.872375,497.147919 
	C480.998688,505.787140 447.554047,513.826294 422.329407,507.956329 
	C394.562439,501.494690 372.875092,486.410126 355.880798,462.511414 
	C364.852325,463.015259 372.606537,463.807037 380.356628,463.768738 
	C386.137177,463.740173 392.030731,463.168732 397.666840,461.911072 
	C411.922668,458.729980 417.484528,449.059906 413.374329,435.083374 
	C412.121918,430.824615 410.162140,426.773865 408.366608,422.223053 
	C411.176849,421.722565 413.760559,421.245178 416.350464,420.804016 
	C432.986053,417.970245 444.049683,408.411194 449.672241,392.668579 
	C455.301331,376.907593 456.094208,360.474426 456.024628,343.293976 
	C450.186554,342.837250 444.608032,342.247772 439.014252,341.990784 
	C419.070374,341.074463 399.398529,342.492889 380.406372,349.286102 
	C370.729980,352.747192 361.872589,357.579254 354.569031,364.941101 
	C341.689545,377.923492 340.606995,390.071167 351.264984,405.439667 
	C344.378601,406.307587 337.638306,406.694977 331.118561,408.103394 
	C324.008972,409.639191 316.828979,411.481659 310.174255,414.341431 
	C300.283813,418.591705 295.721161,427.272736 297.473083,437.902130 
	C298.571686,444.567749 300.883392,451.033417 302.710388,457.809692 
	C302.727234,457.803253 302.271790,458.166595 301.941101,458.075714 
	C280.810333,452.269501 261.647583,443.165741 247.947540,425.201904 
	C236.672195,410.417389 233.125595,393.446503 234.399002,375.245880 
	C235.706757,356.554657 241.519684,339.195557 250.629272,321.190430 
	C251.475525,329.806580 251.771439,337.009491 253.019287,344.043549 
	C253.843765,348.691040 255.350113,353.511353 257.774780,357.512817 
	C261.478088,363.624359 267.935150,365.382050 274.759430,364.770782 
	C281.404480,364.175537 285.259247,359.655212 286.783813,353.646393 
	C288.451904,347.072052 289.224609,340.270508 290.432281,333.310059 
	C301.273804,344.665009 312.686737,340.288757 323.716064,333.625275 
	C333.637268,327.631317 341.835846,319.706970 347.680206,308.714844 
	C344.153412,307.102570 340.934662,305.881226 337.964569,304.216278 
	C333.190918,301.540314 328.306458,298.931244 323.979828,295.625153 
	C319.614166,292.289215 320.360321,289.982391 325.077118,287.011230 
	C342.234131,276.203888 360.094788,266.289581 376.186523,254.060089 
	C414.186035,225.180908 438.608124,186.824829 450.924866,140.358276 
	C450.995819,140.005356 450.951508,140.042786 451.365540,139.959290 
	C458.329376,140.909439 464.879150,141.943085 471.579651,143.418381 
	C469.474670,169.041122 460.912964,192.478989 451.578522,215.658142 
	C450.467072,218.418076 447.869049,221.162979 445.242920,222.637909 
	C422.258911,235.546783 401.504974,251.215912 384.179749,271.177734 
	C380.357330,275.581879 377.142151,280.513062 373.647369,285.201538 
	C374.013611,285.563568 374.379883,285.925598 374.746124,286.287628 
	C376.196594,285.225006 377.846375,284.352325 379.067261,283.070953 
	C394.564209,266.806793 412.306885,253.422379 431.473480,241.817947 
	C452.826019,228.890045 472.556183,213.955566 488.022156,194.104843 
	C496.708130,182.956360 504.850342,171.384232 513.626099,159.983856 
	C514.613708,158.761047 515.212891,157.557358 515.840698,156.061340 
	C516.513428,154.821136 517.157471,153.873260 518.204712,152.938370 
	C522.374084,152.038086 521.235413,148.779572 521.739502,146.056366 
	C521.841248,145.270615 521.980164,144.752869 522.356079,144.037903 
	C522.915283,143.111725 523.237427,142.382736 523.568970,141.587387 
	C523.578369,141.521027 523.648071,141.406525 523.926758,141.202118 
	C526.132446,136.638504 528.151489,138.930145 529.855469,141.165466 
	C528.328064,145.494965 530.285767,145.382568 532.999634,143.932678 
	C532.884338,143.745850 533.267151,143.530853 533.147339,144.006195 
	C533.488647,147.536377 534.936951,147.687393 537.369812,145.952606 
	C538.780457,147.057449 539.881653,148.062302 540.988708,149.439301 
	C541.668396,150.874466 542.342224,151.937469 543.016113,153.000473 
	C540.739868,163.437256 538.463623,173.874023 535.686279,184.711609 
	C535.100159,186.066025 535.015259,187.019638 534.930298,187.973236 
	C534.559387,189.517029 534.188538,191.060806 533.195801,192.837738 
	C531.751648,193.649918 530.929321,194.228958 530.107056,194.807999 
	C530.790283,195.540604 531.473511,196.273209 532.156738,197.005829 
M402.132538,306.052979 
	C405.066559,306.445221 408.000549,306.837433 411.155334,307.259186 
	C416.437714,291.355927 428.693665,280.671417 439.934845,268.037079 
	C422.964539,272.462616 393.274811,295.714569 390.747070,306.007355 
	C394.253693,306.007355 397.731476,306.007355 402.132538,306.052979 
M285.880096,389.311066 
	C286.230682,390.411438 286.581299,391.511810 287.201447,393.458252 
	C294.338959,380.248718 304.128021,372.237396 318.704895,370.770721 
	C310.186035,365.359344 301.611938,364.380951 293.038177,369.034180 
	C285.213776,373.280701 284.505493,380.646942 285.880096,389.311066 
z"/>
<path fill="#5B5959" opacity="1.000000" stroke="none" 
	d="
M1169.768066,232.668915 
	C1171.280762,228.052002 1172.660522,223.808014 1174.181030,219.131287 
	C1157.750977,219.131287 1141.815308,219.131287 1125.490479,219.131287 
	C1125.490479,210.100677 1125.490479,201.379822 1125.490479,191.915588 
	C1127.164429,191.915588 1128.920288,191.915421 1130.676270,191.915604 
	C1146.340698,191.917221 1162.008545,191.736542 1177.667358,192.034897 
	C1182.197144,192.121185 1184.454712,190.976303 1185.798584,186.427063 
	C1188.389404,177.656082 1191.609741,169.065872 1194.763184,160.471985 
	C1195.230957,159.197540 1196.740479,157.404083 1197.796143,157.384689 
	C1209.731812,157.165543 1221.673096,157.245819 1234.499878,157.245819 
	C1230.286865,168.992905 1226.338013,180.003555 1222.195068,191.555328 
	C1257.636963,191.555328 1292.332764,191.555328 1327.854126,191.555328 
	C1325.299072,182.988297 1322.846680,174.765366 1320.083374,165.500183 
	C1323.167969,165.500183 1325.879150,165.501541 1328.590332,165.499908 
	C1335.922607,165.495529 1343.258667,165.368958 1350.584229,165.588379 
	C1352.021729,165.631454 1354.342651,166.714310 1354.696899,167.817978 
	C1359.984741,184.296783 1365.012207,200.859131 1370.083252,217.407303 
	C1370.172119,217.697357 1370.040161,218.055054 1369.962524,218.933319 
	C1344.807739,218.933319 1319.603516,218.933319 1294.113770,218.933319 
	C1294.113770,235.884186 1294.113770,252.283585 1294.113770,269.410004 
	C1318.357666,259.711670 1342.212769,250.168854 1366.877808,240.302048 
	C1366.877808,250.783951 1367.028931,260.381287 1366.685669,269.960938 
	C1366.642944,271.154602 1364.149170,272.676880 1362.505981,273.333679 
	C1341.329102,281.798737 1320.131226,290.213562 1298.855225,298.425385 
	C1295.258789,299.813446 1293.612793,301.451477 1293.847534,305.566956 
	C1294.197144,311.703064 1293.452148,317.899658 1293.766724,324.040100 
	C1294.173828,331.984406 1296.877563,334.252838 1304.715454,334.255493 
	C1323.879395,334.262024 1343.043457,334.257690 1362.207397,334.257751 
	C1364.005859,334.257782 1365.804321,334.257751 1368.585938,334.257751 
	C1365.531006,341.812073 1362.930542,348.767151 1359.800781,355.475311 
	C1359.265991,356.621674 1356.471802,357.201080 1354.714966,357.214417 
	C1338.051636,357.341278 1321.386719,357.255035 1304.722534,357.307343 
	C1299.059937,357.325134 1293.397217,357.536255 1287.735840,357.703888 
	C1267.359863,358.307129 1255.583862,347.006378 1255.250977,326.480896 
	C1255.200073,323.339752 1255.243774,320.197083 1255.243774,315.877289 
	C1237.171997,322.976959 1219.670776,329.852386 1201.265747,337.082977 
	C1201.265747,326.975739 1201.159180,317.417114 1201.424805,307.868805 
	C1201.452515,306.875519 1203.546997,305.596710 1204.921387,305.036377 
	C1220.642944,298.626953 1236.434326,292.388550 1252.128052,285.912933 
	C1253.629639,285.293396 1255.644653,283.394745 1255.658813,282.071045 
	C1255.881714,261.271973 1255.815186,240.469849 1255.815186,219.359283 
	C1254.372925,219.218597 1253.269165,219.019348 1252.165039,219.017319 
	C1240.333374,218.995544 1228.499756,219.124283 1216.671387,218.926300 
	C1213.505981,218.873306 1211.989624,219.786591 1210.917847,222.834015 
	C1199.708862,254.707504 1188.368042,286.534729 1177.032837,318.363739 
	C1172.846313,330.119415 1168.494629,341.817047 1164.407837,353.606873 
	C1163.426636,356.437592 1162.034180,357.427338 1159.007690,357.373871 
	C1148.212769,357.183075 1137.412231,357.299255 1125.843994,357.299255 
	C1140.596191,315.440002 1155.115601,274.240906 1169.768066,232.668915 
z"/>
<path fill="#5B5959" opacity="1.000000" stroke="none" 
	d="
M451.017883,139.986511 
	C400.136078,134.787674 350.602112,139.404861 303.465118,160.804108 
	C273.784241,174.278595 249.518372,194.604828 228.637329,219.446991 
	C198.589813,255.194534 181.182907,295.838287 179.578537,342.784698 
	C179.152039,355.264618 179.247620,367.765564 179.268723,380.256561 
	C179.284668,389.698730 176.743729,398.408539 171.677292,406.240509 
	C164.349716,417.567841 153.234390,419.184906 142.583145,410.961945 
	C132.222916,402.963654 126.399010,392.178589 125.331390,379.476379 
	C124.361633,367.938446 124.507484,356.212585 125.305511,344.648560 
	C126.004829,334.514984 130.275833,325.562531 137.378922,317.844269 
	C143.220840,311.496399 148.224319,304.363464 153.428314,297.449707 
	C155.111969,295.212891 156.522278,292.678925 157.591400,290.088470 
	C160.534943,282.956299 158.128433,279.090576 150.406998,277.884186 
	C141.166672,276.440521 133.517960,279.656433 128.996277,287.444611 
	C124.746780,294.763947 122.135674,303.034485 118.840607,310.799530 
	C115.064186,304.152405 113.870781,296.182434 115.500671,287.734253 
	C117.602470,276.840088 124.037277,268.348877 131.156601,260.323730 
	C137.344086,253.348999 143.883804,246.682617 149.959976,239.615234 
	C152.531586,236.624115 154.589600,233.095413 156.391815,229.561539 
	C159.044998,224.359009 159.273224,218.781982 155.994354,213.841385 
	C153.257736,209.717834 154.733032,207.379166 158.302444,205.472336 
	C163.290192,202.807846 168.549164,200.616333 173.385910,197.712509 
	C179.771667,193.878693 186.016525,189.760696 191.994812,185.324036 
	C194.144348,183.728790 195.646210,181.010605 196.922943,178.536224 
	C200.795837,171.030411 197.940582,165.717621 189.450592,165.166565 
	C186.300720,164.962112 182.969452,166.097397 179.869247,167.086578 
	C177.745300,167.764252 175.877609,169.245102 173.809998,170.415237 
	C171.958939,162.169724 175.834015,156.582306 184.583328,155.247894 
	C190.494537,154.346344 196.508453,153.902573 202.490570,153.721710 
	C220.637329,153.173065 237.340591,147.889282 253.746979,140.263458 
	C290.355316,123.247574 329.055206,114.835709 369.463776,115.376381 
	C396.222870,115.734413 422.531799,119.520622 447.916473,128.503723 
	C449.260681,128.979416 450.820526,128.845612 452.781616,129.238678 
	C453.059967,130.316238 452.836731,131.150711 452.307892,131.987549 
	C451.263428,132.063248 450.524536,132.136551 448.847168,132.302963 
	C450.491028,133.173874 451.323822,133.615082 452.167542,134.440033 
	C451.769470,136.563446 451.360474,138.303116 450.951477,140.042786 
	C450.951508,140.042786 450.995819,140.005356 451.017883,139.986511 
z"/>
<path fill="#5B5A5A" opacity="1.000000" stroke="none" 
	d="
M543.207214,152.712463 
	C542.342224,151.937469 541.668396,150.874466 541.308838,149.535828 
	C542.238953,149.474106 542.854675,149.688019 543.437012,150.010803 
	C543.403564,150.119675 543.427612,150.236771 543.427612,150.236771 
	C543.427612,150.236771 543.360413,149.927994 543.584839,149.574005 
	C547.393860,131.226181 547.596008,102.589287 544.393738,89.957848 
	C538.722961,105.358795 532.862000,121.276230 526.937012,137.367584 
	C524.390869,136.265121 523.189880,135.745071 521.731812,134.983612 
	C506.494293,124.828964 489.986786,118.290359 472.962097,112.525658 
	C472.366211,111.829384 471.809937,111.414658 471.131012,110.599838 
	C468.257355,98.397964 465.506348,86.596176 462.755341,74.794388 
	C462.348175,74.922020 461.941040,75.049652 461.533875,75.177292 
	C460.120636,85.791237 458.707367,96.405182 456.864807,107.006317 
	C452.970001,106.959785 449.504517,106.926071 446.039001,106.892357 
	C431.324707,105.281281 416.474182,104.411118 401.954712,101.740639 
	C394.895386,100.442261 387.813232,96.676514 381.877167,92.437355 
	C371.613312,85.107597 371.026978,74.332451 379.177521,64.721832 
	C388.178406,54.108608 400.058319,49.770935 413.577789,49.155781 
	C427.002747,48.544930 440.170532,50.111790 452.986664,54.224674 
	C459.543976,56.328995 465.488312,59.323029 470.399353,64.492149 
	C477.157990,71.605995 484.292664,78.379944 491.526459,85.015808 
	C494.180908,87.450813 497.410950,89.422523 500.673218,90.993340 
	C505.936615,93.527733 509.662262,91.687874 511.564789,86.167221 
	C515.232117,75.525429 510.823303,64.546997 499.733063,58.379158 
	C493.971863,55.175076 487.657379,52.965908 481.828979,50.410835 
	C488.606689,46.028419 501.793549,46.152134 511.284119,50.901821 
	C521.354736,55.941795 528.747864,64.066643 536.124268,72.245415 
	C541.805847,78.545044 547.338501,85.018143 553.447754,90.882408 
	C560.097168,97.265167 567.778564,100.394081 577.143372,96.064407 
	C578.357483,95.503082 581.734436,97.053146 582.462952,98.471115 
	C585.033752,103.475075 586.699951,108.933838 589.061157,114.057945 
	C592.113403,120.681602 595.093079,127.403793 598.917358,133.579956 
	C600.908630,136.795929 604.317383,139.503952 607.668213,141.426361 
	C613.458374,144.748306 618.463806,142.753387 619.749573,136.235199 
	C620.564697,132.103149 619.365662,127.512283 618.708191,123.182121 
	C618.452271,121.496872 617.202576,119.962532 616.359985,118.267754 
	C624.593140,117.740273 629.160645,121.079773 630.381470,128.630493 
	C630.856140,131.566437 631.074707,134.634628 630.801514,137.586273 
	C628.616821,161.196060 632.754150,183.566055 640.167542,206.178757 
	C659.311157,264.571259 658.485168,323.235168 636.799500,380.981445 
	C631.391052,395.383514 623.560242,408.882782 616.693726,422.723022 
	C615.659790,424.807098 613.807739,426.485229 611.648804,429.218903 
	C614.749634,416.088867 617.980713,404.340912 620.259827,392.411102 
	C628.710022,348.180328 629.223206,304.072937 617.034058,260.323639 
	C607.013916,224.359436 588.093323,193.686508 561.594910,167.565002 
	C557.089233,163.123444 552.526184,158.733551 547.830872,154.495728 
	C546.673218,153.450882 544.892578,153.096329 543.207214,152.712463 
M457.517303,96.412086 
	C457.517303,96.412086 457.583588,96.523270 457.517303,96.412086 
z"/>
<path fill="#5B5959" opacity="1.000000" stroke="none" 
	d="
M632.722717,451.688416 
	C650.785217,423.291016 659.286560,392.307098 661.239563,359.331116 
	C661.908630,348.034363 661.939880,336.686279 662.996338,325.430573 
	C663.770996,317.177002 667.270996,309.697937 672.927612,303.481750 
	C679.899963,295.819702 688.802429,294.823944 697.078125,300.971344 
	C705.191101,306.997864 711.108582,314.725220 713.275635,324.815857 
	C717.023193,342.266083 716.708618,359.722015 710.878784,376.578308 
	C708.792053,382.611725 704.217896,387.920074 700.204163,393.115143 
	C695.839050,398.764893 690.641785,403.764832 686.127747,409.309021 
	C683.628357,412.378906 681.396667,415.802155 679.730408,419.385162 
	C676.752991,425.787506 678.868347,429.589050 685.669128,431.089111 
	C696.429138,433.462372 706.295654,428.327606 711.461121,416.994446 
	C714.059448,411.293610 715.683105,405.148529 717.791504,399.077484 
	C722.172791,408.204590 723.116150,417.621277 719.348328,427.328125 
	C715.385681,437.536835 707.966370,445.193726 700.490234,452.837646 
	C693.750000,459.729218 686.877197,466.535095 680.672180,473.892578 
	C675.574524,479.937103 674.380127,487.038116 678.697876,494.288361 
	C680.316406,497.006165 679.122009,498.870392 676.867065,500.049622 
	C672.452393,502.358368 667.818542,504.246735 663.393066,506.536591 
	C656.904602,509.893982 650.177063,512.959717 644.220520,517.110168 
	C640.727356,519.544189 638.006653,523.549622 635.885864,527.373657 
	C633.221802,532.177185 634.418091,535.627930 639.541687,537.219788 
	C643.251343,538.372314 647.596985,538.129700 651.546814,537.627319 
	C654.173645,537.293213 656.602783,535.404663 659.169922,534.188477 
	C660.191467,541.702209 657.146362,546.487732 650.262634,547.934753 
	C647.187439,548.581177 643.974426,549.094910 640.859070,548.943909 
	C617.589966,547.816284 596.085083,553.907898 574.376343,562.022400 
	C502.412384,588.921936 431.503906,586.001099 362.516327,551.019226 
	C360.014069,549.750427 357.663940,548.181641 355.412689,546.177490 
	C364.377655,547.928833 373.298157,549.961914 382.314880,551.385193 
	C436.858551,559.995056 490.236115,557.399353 541.341187,534.186584 
	C570.280457,521.041931 593.899048,501.024658 614.101074,476.836365 
	C620.699097,468.936401 626.412354,460.297485 632.722717,451.688416 
z"/>
<path fill="#5B5959" opacity="1.000000" stroke="none" 
	d="
M218.681305,564.303833 
	C211.517838,562.071472 208.824799,558.764587 208.944931,551.373291 
	C209.101807,541.722107 210.551483,532.027893 209.952087,522.445557 
	C209.282806,511.746521 208.238953,500.751404 205.100082,490.582092 
	C192.055862,448.321381 187.645157,405.511108 195.023895,361.793121 
	C200.652817,328.442596 212.309662,297.281250 230.654022,268.740173 
	C231.694473,267.121368 232.730560,265.499725 233.768707,263.879425 
	C234.202332,263.983978 234.635956,264.088531 235.069580,264.193054 
	C234.373749,267.456360 233.903030,270.787201 232.947159,273.972443 
	C223.650467,304.951782 218.805954,336.594543 219.021255,368.942108 
	C219.431137,430.519806 240.783997,483.207306 285.081390,526.609070 
	C316.827026,557.712891 354.439941,576.008362 398.269592,581.981689 
	C406.509613,583.104675 414.780548,583.999329 423.025543,585.087891 
	C433.165771,586.426697 442.388519,589.886902 449.871857,597.151733 
	C457.777527,604.826538 458.315063,614.160156 451.183319,622.525696 
	C441.984528,633.315735 429.843842,637.427612 416.062531,637.451721 
	C401.266846,637.477600 386.753754,635.500122 373.325287,629.020691 
	C368.827362,626.850464 364.890289,623.219727 361.208954,619.718201 
	C353.860779,612.729065 347.060852,605.159119 339.641815,598.250793 
	C336.106232,594.958618 331.662994,590.674988 326.479797,594.009827 
	C321.220245,597.393860 320.931885,603.590332 321.686554,609.359558 
	C322.532379,615.825195 326.081909,621.050232 331.437958,624.419373 
	C337.542603,628.259399 344.207275,631.209167 350.380951,634.417297 
	C342.260162,638.758057 330.255005,637.792664 320.238678,631.828979 
	C310.273529,625.895752 303.356110,616.898621 296.091766,608.207947 
	C291.505524,602.721130 286.927338,597.178589 281.847076,592.166260 
	C275.749268,586.150146 268.501373,583.402771 259.997467,587.217957 
	C256.341858,588.858032 255.043457,586.161133 254.097549,583.729309 
	C250.962524,575.669434 248.563385,567.287537 244.939774,559.465637 
	C242.404724,553.993469 238.730286,548.893005 234.796051,544.282349 
	C232.339584,541.403564 228.695892,538.660156 224.216019,540.647705 
	C220.413086,542.334900 217.570541,548.703308 218.585464,553.608337 
	C219.314865,557.133606 220.785461,560.505493 222.072189,564.388733 
	C221.083099,564.388733 220.070175,564.388733 218.681305,564.303833 
z"/>
<path fill="#5A5858" opacity="1.000000" stroke="none" 
	d="
M991.593384,272.999878 
	C991.593201,243.542313 991.593201,214.584778 991.593201,185.086990 
	C967.768677,185.086990 944.535217,185.086990 920.950073,185.086990 
	C920.950073,175.829605 920.950073,167.110168 920.950073,158.050903 
	C977.134705,158.050903 1033.206543,158.050903 1089.645752,158.050903 
	C1089.645752,166.781174 1089.645752,175.515137 1089.645752,184.708527 
	C1069.961792,184.708527 1050.372437,184.708527 1030.373535,184.708527 
	C1030.373535,199.196625 1030.373535,213.236115 1030.373535,227.849792 
	C1050.103516,227.849792 1069.822021,227.849792 1089.769531,227.849792 
	C1089.769531,237.158783 1089.769531,245.897141 1089.769531,255.100494 
	C1069.924805,255.100494 1050.333252,255.100494 1030.358154,255.100494 
	C1030.358154,280.110962 1030.358154,304.660828 1030.358154,329.859711 
	C1049.981812,329.859711 1069.688965,329.859711 1089.706543,329.859711 
	C1089.706543,339.084747 1089.706543,347.667969 1089.706543,356.640320 
	C1033.566284,356.640320 977.509766,356.640320 921.056641,356.640320 
	C921.056641,347.985931 921.056641,339.288696 921.056641,330.191284 
	C922.776489,330.105896 924.389526,329.982422 926.004272,329.952820 
	C935.046326,329.786957 933.823364,330.968781 933.837158,321.816406 
	C933.881592,292.320587 933.947571,262.823975 933.741821,233.329498 
	C933.710754,228.871643 934.955627,227.641861 939.342957,227.769730 
	C949.973816,228.079559 960.619873,227.870377 971.809082,227.870377 
	C971.809082,261.848236 971.809082,295.419525 971.809082,329.456726 
	C978.536682,329.456726 984.724670,329.456726 991.593567,329.456726 
	C991.593567,310.721130 991.593567,292.110504 991.593384,272.999878 
z"/>
<path fill="#5A5959" opacity="1.000000" stroke="none" 
	d="
M1870.000000,330.328918 
	C1891.786377,330.329010 1913.072754,330.329010 1935.229980,330.329010 
	C1931.260986,339.125000 1927.696411,347.292847 1923.813721,355.306610 
	C1923.298828,356.369202 1921.165405,357.207764 1919.781372,357.208008 
	C1874.294922,357.216095 1828.806763,357.301270 1783.322998,356.909180 
	C1768.435669,356.780853 1762.369141,350.607422 1760.628540,335.924591 
	C1760.237915,332.628967 1760.162720,329.280975 1760.158569,325.956818 
	C1760.123657,297.630554 1760.138794,269.304230 1760.138916,240.977905 
	C1760.138916,239.352921 1760.138916,237.727951 1760.138916,235.481674 
	C1762.231689,235.481674 1763.851318,235.481644 1765.471069,235.481659 
	C1814.458862,235.482452 1863.446899,235.522812 1912.434326,235.401398 
	C1915.970947,235.392639 1917.032715,236.342117 1916.994385,239.852936 
	C1916.834106,254.514206 1917.098999,269.180756 1916.885254,283.840668 
	C1916.637207,300.856018 1904.303955,313.028046 1887.372070,313.239838 
	C1878.542236,313.350311 1869.708984,313.341064 1860.880005,313.204224 
	C1859.420532,313.181580 1857.168335,312.637360 1856.651367,311.630951 
	C1852.497070,303.545135 1848.671509,295.290497 1844.306030,286.169556 
	C1849.537109,286.169556 1853.795532,286.298950 1858.043213,286.141479 
	C1865.854980,285.851807 1873.659546,285.376160 1881.468750,285.011780 
	C1886.051880,284.797913 1887.982422,282.018738 1888.140137,277.856415 
	C1888.316284,273.204010 1888.180542,268.539795 1888.180542,263.441528 
	C1859.039673,263.441528 1830.156128,263.441528 1800.666870,263.441528 
	C1800.528564,264.808838 1800.233765,266.382629 1800.231079,267.956848 
	C1800.202637,284.952606 1800.187988,301.948517 1800.238525,318.944214 
	C1800.264771,327.787842 1802.789307,330.309204 1811.514160,330.320587 
	C1830.842773,330.345795 1850.171387,330.328674 1870.000000,330.328918 
z"/>
<path fill="#5B5A5A" opacity="1.000000" stroke="none" 
	d="
M1477.016479,327.975098 
	C1486.598389,327.372955 1495.708618,326.796661 1505.359985,326.186127 
	C1494.261475,315.161011 1483.684814,304.654236 1473.108032,294.147461 
	C1473.444824,293.559814 1473.781616,292.972198 1474.118408,292.384583 
	C1475.666016,292.316986 1477.213379,292.193085 1478.761108,292.190796 
	C1490.255371,292.173981 1501.755493,291.990479 1513.239380,292.335999 
	C1515.645874,292.408417 1518.680054,293.865051 1520.255249,295.692169 
	C1530.050171,307.055145 1540.737671,317.164795 1555.212646,322.221100 
	C1557.271362,322.940247 1560.296997,322.914490 1562.143066,321.900665 
	C1577.324341,313.563049 1589.988037,302.049286 1601.803833,289.539215 
	C1602.114746,289.210175 1602.171997,288.641663 1602.608765,287.505249 
	C1558.953857,287.505249 1515.611572,287.505249 1471.167847,287.505249 
	C1473.214600,282.671021 1474.870728,278.776398 1476.513550,274.876068 
	C1481.939209,261.994659 1487.304565,249.087173 1492.864258,236.263916 
	C1493.459351,234.891464 1495.158569,233.066620 1496.378906,233.040985 
	C1508.019897,232.796448 1519.668091,232.894958 1532.252686,232.894958 
	C1528.102173,243.048737 1524.189209,252.621628 1520.007324,262.852478 
	C1562.001465,262.852478 1603.636230,262.852478 1645.787476,262.852478 
	C1645.787476,271.555450 1646.531982,279.749420 1645.466553,287.700867 
	C1644.950562,291.551270 1641.449585,295.319000 1638.586792,298.477753 
	C1630.236084,307.691528 1621.526245,316.579651 1612.307007,326.279541 
	C1624.340088,327.045471 1636.407349,327.813568 1648.694092,328.595642 
	C1648.694092,337.974579 1648.694092,347.070801 1648.694092,357.176331 
	C1641.016357,356.643158 1633.436646,356.475677 1625.955566,355.529541 
	C1604.166016,352.773743 1582.454590,349.351288 1560.625854,346.990631 
	C1554.545288,346.333069 1548.176758,348.564911 1541.918579,349.281738 
	C1519.269287,351.876068 1496.611816,354.401154 1473.952881,356.910339 
	C1472.321533,357.090973 1470.652954,356.933960 1468.387085,356.933960 
	C1468.387085,347.929352 1468.321045,339.152893 1468.502808,330.381592 
	C1468.518677,329.614288 1470.066772,328.447906 1471.070312,328.227112 
	C1472.826782,327.840637 1474.713013,328.044434 1477.016479,327.975098 
z"/>
<path fill="#5B5A5A" opacity="1.000000" stroke="none" 
	d="
M929.477295,524.593994 
	C926.194946,525.810181 923.172241,527.306824 920.064270,527.512268 
	C915.309265,527.826538 908.794312,529.028992 906.193970,526.542175 
	C903.687378,524.145081 904.995911,517.548401 904.978088,512.795410 
	C904.898315,491.496246 904.943359,470.196564 904.943359,447.267578 
	C898.979553,455.841461 893.829834,463.213654 888.712463,470.608246 
	C876.403503,488.394775 864.137695,506.211334 851.756470,523.947388 
	C850.767761,525.363708 849.060669,527.177856 847.625549,527.234253 
	C839.552429,527.551819 831.460388,527.387451 821.925537,527.387451 
	C825.233765,522.466675 827.763794,518.514954 830.478638,514.694702 
	C854.282532,481.199310 878.181335,447.771088 901.872986,414.196686 
	C905.052246,409.691254 908.455017,407.094177 914.204651,407.728333 
	C918.142883,408.162659 922.167786,407.811493 926.722656,407.811493 
	C926.722656,434.195984 926.722656,460.234924 926.722656,487.901550 
	C928.731995,485.564514 929.807251,484.468933 930.707092,483.244446 
	C948.250671,459.372101 965.709167,435.436584 983.420898,411.689911 
	C984.871338,409.745300 987.925781,408.248016 990.395691,407.969696 
	C995.456299,407.399414 1000.626221,407.798584 1006.450867,407.798584 
	C1006.450867,410.837067 1006.450745,413.290833 1006.450867,415.744568 
	C1006.453064,451.228607 1006.375977,486.713074 1006.556213,522.196228 
	C1006.579163,526.710205 1005.153076,528.107971 1000.836914,527.723999 
	C997.200684,527.400513 993.486389,527.381531 989.854431,527.728394 
	C985.288147,528.164429 983.821533,526.601013 983.865295,521.914612 
	C984.076843,499.260406 983.945068,476.602936 983.919800,453.946655 
	C983.918030,452.383728 983.791748,450.820923 982.648499,448.941559 
	C964.998596,474.059784 947.348694,499.177979 929.477295,524.593994 
z"/>
<path fill="#5B5959" opacity="1.000000" stroke="none" 
	d="
M1544.136963,157.666763 
	C1555.430298,157.666565 1566.237915,157.666565 1577.555054,157.666565 
	C1577.707764,160.972610 1577.842285,163.882309 1578.002563,167.350403 
	C1598.148682,167.350403 1618.040161,167.350403 1638.323242,167.350403 
	C1638.323242,175.773941 1638.323242,183.628937 1638.323242,192.009262 
	C1618.195190,192.009262 1598.283447,192.009262 1578.065918,192.009262 
	C1578.065918,195.440765 1578.065918,198.358948 1578.065918,201.940277 
	C1601.530273,201.940277 1624.913452,201.940277 1648.623779,201.940277 
	C1648.623779,210.329681 1648.623779,218.062500 1648.623779,226.150391 
	C1588.676880,226.150391 1528.929199,226.150391 1468.755127,226.150391 
	C1468.755127,218.298492 1468.755127,210.450424 1468.755127,202.162811 
	C1492.145874,202.162811 1515.242432,202.162811 1538.740967,202.162811 
	C1538.740967,198.692230 1538.740967,195.646973 1538.740967,191.982635 
	C1517.674561,191.982635 1496.622559,191.982635 1475.284912,191.982635 
	C1475.284912,183.636139 1475.284912,175.890030 1475.284912,167.689056 
	C1496.373291,167.689056 1517.319336,167.689056 1537.470215,167.689056 
	C1541.601562,164.916214 1535.046997,157.022858 1544.136963,157.666763 
z"/>
<path fill="#5B5A5A" opacity="1.000000" stroke="none" 
	d="
M902.670654,235.690918 
	C900.980164,239.505692 899.445923,242.972427 897.951538,246.349319 
	C898.527771,246.798630 898.761475,247.139221 899.020691,247.159973 
	C906.876770,247.788376 906.868164,247.783432 906.867676,255.907745 
	C906.865906,287.885437 906.870361,319.863129 906.872375,351.840820 
	C906.872498,353.627686 906.872375,355.414551 906.872375,357.465973 
	C894.471680,357.465973 882.567139,357.465973 869.952576,357.465973 
	C869.952576,328.781677 869.952576,300.263245 869.952576,271.238281 
	C862.181580,271.238281 855.102478,271.238281 846.963745,271.238281 
	C854.031799,255.172668 860.742432,239.919632 867.794189,223.891144 
	C860.664124,223.891144 854.427368,223.891144 847.118835,223.891144 
	C848.162598,221.163788 848.806824,219.216690 849.636963,217.352402 
	C858.028015,198.508209 866.519165,179.708069 874.788391,160.810699 
	C876.049988,157.927521 877.530640,156.874496 880.686890,156.925964 
	C892.333008,157.115814 903.984131,157.001404 916.640625,157.001404 
	C909.555969,172.928757 902.725220,188.285309 895.495117,204.539764 
	C902.825806,204.539764 909.343567,204.539764 916.698425,204.539764 
	C911.799866,215.417618 907.313354,225.380234 902.670654,235.690918 
z"/>
<path fill="#5C5A5B" opacity="1.000000" stroke="none" 
	d="
M1746.410400,419.014709 
	C1746.411133,414.548462 1746.411133,410.579468 1746.411133,406.278442 
	C1755.520142,406.278442 1764.262817,406.278442 1773.730103,406.278442 
	C1773.730103,407.988861 1773.729858,409.749146 1773.730103,411.509430 
	C1773.732544,439.655792 1773.856689,467.803131 1773.623047,495.947540 
	C1773.582153,500.863342 1775.093140,502.129761 1779.794312,501.950806 
	C1788.941040,501.602600 1798.117676,501.639954 1807.267334,501.948608 
	C1811.575195,502.093964 1812.516479,500.506012 1812.495728,496.502380 
	C1812.350586,468.523346 1812.424805,440.543152 1812.428589,412.563354 
	C1812.428833,410.588165 1812.428589,408.612976 1812.428589,406.283875 
	C1821.560791,406.283875 1830.278076,406.283875 1839.286621,406.283875 
	C1839.286621,446.210571 1839.286621,486.103699 1839.286621,526.427795 
	C1837.711060,526.551392 1836.283447,526.759338 1834.855591,526.760986 
	C1813.704224,526.785522 1792.552734,526.825806 1771.401611,526.741455 
	C1768.095581,526.728333 1764.713257,526.459106 1761.502197,525.718689 
	C1753.234619,523.812256 1747.656982,517.347107 1746.675049,508.933136 
	C1746.444336,506.955750 1746.416504,504.946381 1746.415527,502.951691 
	C1746.401489,475.138428 1746.407959,447.325195 1746.410400,419.014709 
z"/>
<path fill="#5B5959" opacity="1.000000" stroke="none" 
	d="
M1617.057861,504.000000 
	C1617.057861,511.968506 1617.057861,519.437073 1617.057861,527.353882 
	C1615.005493,527.452759 1613.384888,527.598022 1611.764404,527.598694 
	C1590.443237,527.607239 1569.120117,527.738892 1547.802246,527.470459 
	C1543.422485,527.415344 1538.774048,526.524170 1534.757324,524.820801 
	C1528.157593,522.022095 1524.204102,516.509216 1524.173828,509.184326 
	C1524.034058,475.382660 1524.112183,441.580109 1524.112183,407.340027 
	C1532.958008,407.340027 1541.675537,407.340027 1550.968750,407.340027 
	C1550.968750,438.744507 1550.968750,470.294342 1550.968750,502.288696 
	C1564.072266,502.288696 1576.613403,502.288696 1589.677979,502.288696 
	C1589.677979,470.725342 1589.677979,439.172577 1589.677979,407.259521 
	C1598.912720,407.259521 1607.638428,407.259521 1617.057861,407.259521 
	C1617.057861,439.346802 1617.057861,471.423401 1617.057861,504.000000 
z"/>
<path fill="#5B5959" opacity="1.000000" stroke="none" 
	d="
M1053.004150,526.761963 
	C1049.174438,526.759766 1045.843140,526.800415 1042.513062,526.748352 
	C1027.943970,526.520569 1021.795227,520.468994 1021.720886,505.976685 
	C1021.622681,486.825256 1021.690552,467.673004 1021.692566,448.521088 
	C1021.693359,441.026917 1021.557983,433.528839 1021.750610,426.039398 
	C1022.085388,413.023315 1029.196655,406.041473 1042.133423,405.984772 
	C1059.453003,405.908844 1076.773560,405.918152 1094.093140,405.985077 
	C1105.980103,406.031006 1113.877319,413.247101 1113.983887,425.028748 
	C1114.237061,453.004486 1114.218872,480.985291 1113.993164,508.961517 
	C1113.898804,520.661255 1107.134888,526.586975 1094.471313,526.721191 
	C1080.816772,526.865906 1067.159302,526.759094 1053.004150,526.761963 
M1052.612549,503.610992 
	C1065.540527,503.610992 1078.468506,503.610992 1091.514648,503.610992 
	C1091.514648,477.946869 1091.514648,452.953278 1091.514648,427.948517 
	C1075.567749,427.948517 1060.007324,427.948517 1044.160400,427.948517 
	C1044.160400,453.151611 1044.160400,478.030304 1044.160400,503.611359 
	C1046.743896,503.611359 1049.195190,503.611359 1052.612549,503.610992 
z"/>
<path fill="#5C5A5B" opacity="1.000000" stroke="none" 
	d="
M1713.069214,490.886353 
	C1721.879761,502.337860 1730.469360,513.508179 1739.058960,524.678528 
	C1738.885864,525.208008 1738.712646,525.737549 1738.539551,526.267029 
	C1735.028809,526.267029 1731.517456,526.313049 1728.007568,526.259399 
	C1708.473389,525.960815 1714.113647,528.750732 1702.178101,513.659546 
	C1692.574341,501.516876 1683.346436,489.077393 1673.782715,476.902313 
	C1671.755615,474.321411 1671.771240,472.573944 1673.784180,470.001862 
	C1683.118530,458.073914 1692.257080,445.992584 1701.459717,433.961639 
	C1702.725342,432.307037 1703.957886,430.627136 1705.648193,428.367462 
	C1688.669312,428.367462 1672.611206,428.367462 1655.769043,428.367462 
	C1655.769043,430.138855 1655.768921,431.881744 1655.769165,433.624664 
	C1655.772339,462.451324 1655.654053,491.279022 1655.890869,520.103760 
	C1655.933350,525.273987 1654.293091,526.968689 1649.305908,526.483948 
	C1645.508179,526.114807 1641.647339,526.320679 1637.816650,526.387573 
	C1634.944214,526.437683 1633.706909,525.405518 1633.713135,522.292664 
	C1633.788818,484.968201 1633.775024,447.643402 1633.699951,410.318909 
	C1633.693604,407.186554 1635.114136,406.235107 1637.925415,406.238251 
	C1666.751953,406.270477 1695.578613,406.294525 1724.405151,406.252502 
	C1727.486938,406.248016 1728.501343,407.661560 1728.473267,410.528320 
	C1728.401733,417.859253 1728.661377,425.201050 1728.324829,432.517212 
	C1728.219604,434.803497 1727.055664,437.333923 1725.656982,439.218750 
	C1718.416382,448.975769 1711.075562,458.666138 1703.483276,468.150452 
	C1700.548706,471.816254 1699.881348,474.634064 1703.375732,478.382751 
	C1706.875854,482.137543 1709.717773,486.505829 1713.069214,490.886353 
z"/>
<path fill="#5B5A5A" opacity="1.000000" stroke="none" 
	d="
M1346.000488,527.130493 
	C1339.550171,527.130493 1333.599609,527.130493 1327.346436,527.130493 
	C1327.346436,519.282166 1327.346436,512.043457 1327.346436,504.316833 
	C1345.420044,504.316833 1363.337646,504.316833 1381.677734,504.316833 
	C1381.677734,495.461639 1381.677734,487.076080 1381.677734,478.066772 
	C1370.464478,478.066772 1359.195557,478.121918 1347.927734,478.029663 
	C1344.952026,478.005280 1341.888916,477.893951 1339.023560,477.185364 
	C1331.098511,475.225525 1327.148071,470.225250 1327.080566,462.125153 
	C1326.972412,449.129150 1326.978394,436.130646 1327.101929,423.134796 
	C1327.192993,413.544403 1331.776611,408.344452 1341.209595,406.818420 
	C1343.335449,406.474487 1345.510010,406.283142 1347.662720,406.278534 
	C1365.658569,406.239807 1383.654297,406.254517 1401.650146,406.274658 
	C1403.435669,406.276672 1405.221069,406.422180 1407.197998,406.509552 
	C1407.197998,414.168457 1407.197998,421.418182 1407.197998,429.313690 
	C1388.861572,429.313690 1370.792603,429.313690 1352.426025,429.313690 
	C1352.426025,438.051361 1352.426025,446.149506 1352.426025,454.853455 
	C1353.972046,454.946716 1355.550171,455.122253 1357.128662,455.124084 
	C1367.626099,455.136261 1378.123413,455.088898 1388.620850,455.104126 
	C1401.234741,455.122375 1407.397339,461.201233 1407.436279,473.701874 
	C1407.473145,485.530701 1407.489380,497.360046 1407.418457,509.188599 
	C1407.347900,520.969543 1401.366943,526.997192 1389.490112,527.092773 
	C1375.161133,527.208069 1360.830322,527.126709 1346.000488,527.130493 
z"/>
<path fill="#5B5A5A" opacity="1.000000" stroke="none" 
	d="
M1183.704346,503.916779 
	C1184.617188,495.474701 1185.059570,487.107574 1185.536011,478.097076 
	C1173.700195,478.097076 1162.597046,478.173401 1151.496094,478.050232 
	C1148.193604,478.013550 1144.801147,477.799713 1141.616943,477.001068 
	C1133.828125,475.047546 1130.191650,470.224274 1130.143311,462.189240 
	C1130.066040,449.359070 1130.052124,436.527924 1130.113525,423.697662 
	C1130.162598,413.430817 1134.592529,408.328918 1144.620850,406.721344 
	C1145.606689,406.563324 1146.599121,406.328369 1147.588623,406.327271 
	C1168.241821,406.304260 1188.895142,406.309906 1210.044556,406.309906 
	C1210.044556,413.858215 1210.044556,421.230286 1210.044556,429.248962 
	C1192.103882,429.248962 1174.040894,429.248962 1155.579102,429.248962 
	C1155.579102,438.073334 1155.579102,446.269623 1155.579102,455.133575 
	C1162.633057,455.133575 1169.575317,455.132843 1176.517700,455.133789 
	C1182.016479,455.134521 1187.521240,454.974518 1193.012939,455.173157 
	C1204.474976,455.587708 1210.425659,461.782043 1210.447998,473.117065 
	C1210.472046,485.281097 1210.513550,497.445618 1210.434814,509.609161 
	C1210.363037,520.704163 1204.588623,526.941772 1193.652466,527.058716 
	C1173.325806,527.276184 1152.995361,527.128540 1132.666504,527.112427 
	C1132.035034,527.111877 1131.403809,526.885925 1130.441406,526.701660 
	C1130.441406,519.368103 1130.441406,512.123901 1130.441406,503.991699 
	C1148.068726,503.991699 1165.651367,503.991699 1183.704346,503.916779 
z"/>
<path fill="#5B5A5A" opacity="1.000000" stroke="none" 
	d="
M1935.161377,506.896423 
	C1935.052734,521.247803 1929.612183,526.751709 1915.759888,526.794739 
	C1897.275513,526.852234 1878.791016,526.819275 1860.306519,526.802856 
	C1858.687744,526.801392 1857.069092,526.634216 1855.229248,526.531738 
	C1855.229248,518.871216 1855.229248,511.623566 1855.229248,503.857819 
	C1873.343994,503.857819 1891.237183,503.857819 1909.584717,503.857819 
	C1909.584717,495.013977 1909.584717,486.677216 1909.584717,477.775574 
	C1898.841309,477.775574 1888.231567,477.827972 1877.622681,477.743378 
	C1874.473633,477.718262 1871.271240,477.603973 1868.190918,477.018005 
	C1859.209595,475.309418 1855.020142,470.129913 1854.993042,460.982574 
	C1854.956055,448.493225 1854.956543,436.003510 1855.010132,423.514252 
	C1855.058228,412.279236 1861.017700,406.097809 1872.203735,406.034332 
	C1892.983887,405.916412 1913.765137,406.000549 1934.854492,406.000549 
	C1934.854492,413.704163 1934.854492,421.080170 1934.854492,428.852600 
	C1916.668091,428.852600 1898.742065,428.852600 1880.449951,428.852600 
	C1880.449951,437.469147 1880.449951,445.702301 1880.449951,454.530029 
	C1882.135864,454.615875 1883.898438,454.778534 1885.661621,454.783417 
	C1895.986206,454.812073 1906.311890,454.715515 1916.635254,454.830414 
	C1929.663208,454.975372 1935.158203,460.582123 1935.152100,473.440735 
	C1935.146851,484.431488 1935.157593,495.422272 1935.161377,506.896423 
z"/>
<path fill="#5C5A5B" opacity="1.000000" stroke="none" 
	d="
M1760.633301,209.487061 
	C1769.046753,193.008484 1777.329346,176.879883 1785.437256,160.663971 
	C1786.743774,158.051041 1788.301270,157.137207 1791.202759,157.146042 
	C1823.336670,157.244064 1855.471069,157.172562 1887.604736,157.314713 
	C1889.188477,157.321701 1891.554321,158.468964 1892.227783,159.771805 
	C1903.214844,181.028748 1913.987427,202.396530 1925.237549,224.585648 
	C1922.487061,224.585648 1920.425293,224.585342 1918.363525,224.585693 
	C1907.874146,224.587463 1897.382812,224.480225 1886.896362,224.658630 
	C1883.798462,224.711349 1882.141724,223.663376 1880.791016,220.877731 
	C1874.912720,208.754211 1868.743652,196.771774 1862.841797,184.659348 
	C1861.448608,181.800049 1859.862549,180.531097 1856.436646,180.610168 
	C1845.121216,180.871292 1833.794678,180.754471 1822.474121,180.632706 
	C1819.351929,180.599121 1817.493286,181.383591 1815.953369,184.519028 
	C1809.944458,196.753448 1803.410767,208.729095 1797.286987,220.908951 
	C1795.882935,223.701767 1794.215576,224.691269 1791.124390,224.650375 
	C1778.697632,224.485947 1766.267578,224.582352 1752.894043,224.582352 
	C1755.669556,219.151367 1758.057129,214.479706 1760.633301,209.487061 
z"/>
<path fill="#5C5A5B" opacity="1.000000" stroke="none" 
	d="
M1245.557617,523.588562 
	C1244.404907,524.850891 1243.400635,526.466187 1242.353760,526.494385 
	C1234.415161,526.708313 1226.468262,526.611450 1217.884033,526.611450 
	C1220.733276,516.749573 1223.352295,507.531128 1226.060425,498.338898 
	C1234.660278,469.149872 1243.373901,439.993958 1251.816772,410.759766 
	C1252.943726,406.857819 1254.549927,405.530823 1258.632690,405.702301 
	C1267.098511,406.057831 1275.589478,405.809631 1284.494385,405.809631 
	C1296.154907,445.817322 1307.769775,485.667999 1319.676392,526.519409 
	C1310.947754,526.519409 1302.895996,526.640991 1294.858887,526.353577 
	C1293.934814,526.320557 1292.715088,524.127319 1292.268677,522.732117 
	C1284.815674,499.443176 1277.466064,476.121185 1270.085449,452.809052 
	C1269.636475,451.390961 1269.121948,449.993561 1268.199219,447.311127 
	C1260.472412,473.359863 1253.079468,498.283173 1245.557617,523.588562 
z"/>
<path fill="#5C5A5B" opacity="1.000000" stroke="none" 
	d="
M1505.179688,486.733215 
	C1508.972534,499.710022 1512.652466,512.296997 1516.612549,525.842224 
	C1507.840820,525.842224 1499.781006,525.988281 1491.741577,525.651123 
	C1490.774536,525.610535 1489.566772,523.063843 1489.062134,521.489197 
	C1481.697510,498.509857 1474.437744,475.497070 1467.137329,452.497162 
	C1466.667236,451.016113 1466.068970,449.575714 1465.106323,446.967285 
	C1461.524658,458.894714 1458.260132,469.661102 1455.060791,480.446838 
	C1450.942749,494.329071 1446.948975,508.249054 1442.684570,522.085876 
	C1442.222534,523.585388 1440.368774,525.678223 1439.083618,525.734314 
	C1431.283691,526.074707 1423.461304,525.903992 1414.757080,525.903992 
	C1426.675659,485.398346 1438.436157,445.429962 1450.250610,405.278076 
	C1460.550415,405.278076 1470.683960,405.278076 1481.556885,405.278076 
	C1489.342651,432.124939 1497.204712,459.234192 1505.179688,486.733215 
z"/>
<path fill="#5C5A5B" opacity="1.000000" stroke="none" 
	d="
M1733.239624,229.611404 
	C1738.267090,241.565414 1743.143799,253.165253 1748.387695,265.638519 
	C1735.681641,265.638519 1723.773071,265.692535 1711.867310,265.540009 
	C1710.871826,265.527252 1709.400024,264.331024 1708.981445,263.335022 
	C1700.690796,243.605896 1692.522949,223.825195 1683.988403,203.230148 
	C1690.398926,203.230148 1696.078125,203.230148 1702.724365,203.230148 
	C1696.327515,187.494354 1690.294067,172.652344 1684.017334,157.212143 
	C1696.476074,157.212143 1708.251831,157.150574 1720.024414,157.310760 
	C1721.157471,157.326172 1722.867554,158.468506 1723.306763,159.510452 
	C1731.622925,179.238800 1739.788086,199.030823 1748.269653,219.497559 
	C1741.921509,219.497559 1736.202026,219.497559 1729.568359,219.497559 
	C1730.921387,223.248352 1732.005127,226.252792 1733.239624,229.611404 
z"/>
<path fill="#5B5A5A" opacity="1.000000" stroke="none" 
	d="
M1455.055786,300.087524 
	C1451.713379,317.820953 1448.294189,335.106934 1445.211914,352.452789 
	C1444.600830,355.891296 1443.630249,357.236237 1439.940430,357.155609 
	C1428.818481,356.912659 1417.687744,357.067963 1405.827148,357.067963 
	C1412.376465,322.350800 1418.830811,288.136536 1425.348755,253.585266 
	C1438.022949,253.585266 1450.578003,253.585266 1463.944824,253.585266 
	C1460.964355,269.107361 1458.030762,284.384216 1455.055786,300.087524 
z"/>
<path fill="#5C5A5B" opacity="1.000000" stroke="none" 
	d="
M1731.602783,329.712158 
	C1728.858887,338.147461 1726.363892,346.246399 1723.511230,354.217285 
	C1722.993652,355.663940 1721.033936,357.566833 1719.701904,357.597290 
	C1708.075439,357.863281 1696.440308,357.750977 1684.063721,357.750977 
	C1686.610962,349.664154 1688.957397,341.999420 1691.439575,334.378906 
	C1697.046997,317.163605 1702.847290,300.009644 1708.265259,282.735413 
	C1709.392212,279.142517 1711.065063,278.200104 1714.604248,278.270020 
	C1725.565674,278.486481 1736.534180,278.349152 1748.244263,278.349152 
	C1742.641724,295.644165 1737.185303,312.488007 1731.602783,329.712158 
z"/>
<path fill="#5C5A5B" opacity="1.000000" stroke="none" 
	d="
M1455.086914,198.838959 
	C1458.043091,210.147430 1460.922363,221.054245 1463.942749,232.495728 
	C1450.840210,232.495728 1438.330933,232.495728 1425.334473,232.495728 
	C1419.548706,209.798950 1413.734863,186.991837 1407.687744,163.269821 
	C1412.104370,163.269821 1416.001099,163.268066 1419.897827,163.270218 
	C1426.889160,163.274094 1433.887817,163.474548 1440.868652,163.207230 
	C1444.606323,163.064102 1446.398682,163.946701 1447.282715,167.987045 
	C1449.519897,178.211243 1452.392090,188.296417 1455.086914,198.838959 
z"/>
<path fill="#5D5C5C" opacity="1.000000" stroke="none" 
	d="
M363.220764,430.885162 
	C361.015289,431.200104 359.208771,431.448120 357.402252,431.696136 
	C357.352081,431.549866 357.301880,431.403595 357.251709,431.257294 
	C360.892029,429.611847 364.666534,428.208405 368.148560,426.277496 
	C380.691650,419.322266 388.528412,408.504059 393.107391,395.124054 
	C395.686249,387.588470 398.018127,379.958893 400.868164,372.527710 
	C405.660675,360.031708 414.366302,352.208160 428.144836,350.906952 
	C434.563599,350.300781 440.978821,349.657410 448.131287,348.959076 
	C448.131287,357.217926 448.131287,364.909485 448.131287,372.808258 
	C425.291718,375.273834 411.393372,389.660950 401.850403,408.752106 
	C397.025665,418.404297 389.821716,423.978149 380.079620,426.944061 
	C374.698578,428.582306 369.113068,429.548889 363.220764,430.885162 
z"/>
<path fill="#5D5C5C" opacity="1.000000" stroke="none" 
	d="
M567.523987,627.590942 
	C559.917297,628.108398 553.315308,626.484558 547.045166,622.857300 
	C538.362305,617.834229 529.485168,613.146790 521.000427,608.485474 
	C536.368530,606.001648 551.635376,603.465393 566.933960,601.137512 
	C569.164856,600.798035 571.568909,601.314636 573.854614,601.676758 
	C578.573364,602.424377 582.655823,604.440552 583.819275,609.448486 
	C585.083923,614.892029 583.530090,620.025513 578.899170,623.173767 
	C575.726013,625.330933 571.635742,626.138916 567.523987,627.590942 
z"/>
<path fill="#5D5C5C" opacity="1.000000" stroke="none" 
	d="
M267.210876,64.863548 
	C274.583527,65.862503 280.577972,68.775162 285.916473,73.364372 
	C293.330658,79.737938 300.950256,85.872528 308.498932,92.123489 
	C300.115692,91.745201 291.991333,91.340744 283.863586,91.022499 
	C275.764862,90.705399 267.568481,91.147865 259.586609,90.030693 
	C250.249619,88.723846 245.977417,83.947212 246.615356,77.710213 
	C247.396957,70.068924 253.503632,64.944458 262.308960,64.613510 
	C263.798676,64.557518 265.297974,64.755974 267.210876,64.863548 
z"/>
<path fill="#5D5C5C" opacity="1.000000" stroke="none" 
	d="
M687.529907,196.416260 
	C691.797729,192.573898 696.189270,191.548447 701.030518,194.334137 
	C705.776001,197.064728 709.340210,203.869308 707.525696,209.325653 
	C705.635132,215.010361 703.489441,221.768433 699.186096,225.261520 
	C688.888794,233.619888 677.258423,240.335892 666.530029,247.472855 
	C670.201294,236.335831 673.322693,225.452805 677.423462,214.952286 
	C679.922607,208.553131 683.930725,202.743286 687.529907,196.416260 
z"/>
<path fill="#5C5A5B" opacity="1.000000" stroke="none" 
	d="
M1616.178467,256.424866 
	C1610.100220,257.361633 1606.021118,255.263107 1602.368652,250.887146 
	C1597.404907,244.940231 1591.804077,239.524887 1585.558228,232.908798 
	C1593.237427,232.908798 1599.852051,233.588089 1606.273926,232.764496 
	C1618.854858,231.151031 1628.789429,234.371185 1635.917236,245.404388 
	C1638.303223,249.097656 1641.831177,252.053070 1645.822998,256.425507 
	C1635.284302,256.425507 1625.967896,256.425507 1616.178467,256.424866 
z"/>
<path fill="#5D5C5C" opacity="1.000000" stroke="none" 
	d="
M177.826340,466.861694 
	C177.889633,467.015442 178.034714,467.187714 178.004623,467.320282 
	C174.896317,481.014801 171.958145,494.752380 168.539307,508.369263 
	C167.549515,512.311462 165.427917,516.050232 163.374420,519.623230 
	C161.085724,523.605469 157.724426,526.281555 152.678802,525.016235 
	C148.004272,523.843933 144.954346,519.673950 144.845764,514.120544 
	C144.656235,504.427460 148.696915,496.329071 155.159546,489.489563 
	C162.346817,481.883179 169.910172,474.632141 177.588898,467.057129 
	C177.867996,466.887848 177.826340,466.861694 177.826340,466.861694 
z"/>
<path fill="#5D5C5C" opacity="1.000000" stroke="none" 
	d="
M471.253662,110.999924 
	C471.809937,111.414658 472.366211,111.829384 472.533997,112.709991 
	C472.121185,121.223328 472.096893,129.270798 471.703369,137.217621 
	C466.187500,135.068359 460.999786,133.113922 455.924957,130.900635 
	C454.751587,130.388885 453.964203,128.992096 452.999207,128.002563 
	C454.362549,121.931419 455.725922,115.860275 457.040466,109.391357 
	C456.991638,108.993584 456.946777,109.027382 457.331482,109.099640 
	C462.228668,109.781235 466.741150,110.390579 471.253662,110.999924 
z"/>

<path fill="#5D5C5C" opacity="1.000000" stroke="none" 
	d="
M446.372925,107.067337 
	C449.504517,106.926071 452.970001,106.959785 456.881714,107.353226 
	C457.200867,108.151085 457.073822,108.589233 456.946777,109.027382 
	C456.946777,109.027382 456.991638,108.993584 457.011993,108.974197 
	C453.590515,108.383987 450.148712,107.813156 446.372925,107.067337 
z"/>
<path fill="#5B5A5A" opacity="1.000000" stroke="none" 
	d="
M532.381470,196.742554 
	C531.473511,196.273209 530.790283,195.540604 530.107056,194.807999 
	C530.929321,194.228958 531.751648,193.649918 532.977112,193.099609 
	C533.122253,194.245331 532.864197,195.362320 532.381470,196.742554 
z"/>
<path fill="#5B5A5A" opacity="1.000000" stroke="none" 
	d="
M535.139282,187.731720 
	C535.015259,187.019638 535.100159,186.066025 535.489624,185.057465 
	C535.645569,185.831726 535.496887,186.660950 535.139282,187.731720 
z"/>
<path fill="#5D5C5C" opacity="1.000000" stroke="none" 
	d="
M177.884216,466.904846 
	C177.900452,466.921844 178.155167,466.764984 178.155167,466.764984 
	C178.155167,466.764984 178.031891,466.851013 177.929108,466.856354 
	C177.826340,466.861694 177.867996,466.887848 177.884216,466.904846 
z"/>




<path fill="#5D5C5C" opacity="1.000000" stroke="none" 
	d="
M518.204712,152.938385 
	C518.932068,150.863937 520.062622,148.802460 521.484985,146.532684 
	C521.235413,148.779572 522.374084,152.038086 518.204712,152.938385 
z"/>
<path fill="#5D5C5C" opacity="1.000000" stroke="none" 
	d="
M529.855469,141.165466 
	C531.166199,141.777771 532.166199,142.640305 533.140503,143.811157 
	C530.285767,145.382568 528.328064,145.494965 529.855469,141.165466 
z"/>
<path fill="#5D5C5C" opacity="1.000000" stroke="none" 
	d="
M533.147339,144.006195 
	C534.416260,144.128998 535.565308,144.727142 536.887451,145.588959 
	C534.936951,147.687393 533.488647,147.536377 533.147339,144.006195 
z"/>
<path fill="#5B5A5A" opacity="1.000000" stroke="none" 
	d="
M513.626099,159.983841 
	C513.911255,158.908722 514.585022,157.814499 515.535400,156.536972 
	C515.212891,157.557358 514.613708,158.761047 513.626099,159.983841 
z"/>

<path fill="#5D5C5C" opacity="1.000000" stroke="none" 
	d="
M452.307892,131.987549 
	C452.592438,132.540909 452.571350,133.096649 452.353424,133.854340 
	C451.323822,133.615082 450.491028,133.173874 448.847168,132.302963 
	C450.524536,132.136551 451.263428,132.063248 452.307892,131.987549 
z"/>


<path fill="#5D5C5C" opacity="1.000000" stroke="none" 
	d="
M457.550446,96.467682 
	C457.583588,96.523270 457.517303,96.412086 457.550446,96.467682 
z"/>

<path fill="#5D5C5C" opacity="1.000000" stroke="none" 
	d="
M472.028046,138.371628 
	C475.042877,139.415115 478.104156,140.891342 481.165436,142.367584 
	C481.036835,142.938034 480.908203,143.508499 480.779602,144.078964 
	C477.962219,143.679138 475.144806,143.279312 471.885925,142.964172 
	C471.654480,141.634018 471.864471,140.219193 472.028046,138.371628 
z"/>
</svg>